{
.appVersion = "3091";
DisplayStrings = (
AB,
"@",
".",
".,:;/ellipsis !¡?¿·/bullet *#///backslash/exclam.001 -/endash/emdash _(){}[]\"'",
$,
"£",
"¥",
"/notequal",
"/emptyset"
);
copyright = "Copyright (c) 2021 by Nguyen Type. All rights reserved.";
date = "2021-08-30 16:53:56 +0000";
designer = "Andree Nguyen";
designerURL = www.behance.net/ngmtuan;
familyName = "NGT Vina Sans";
featurePrefixes = (
{
code = "";
name = xxxx;
}
);
features = (
{
code = "sub Dcroat by Dcroat.001;\012sub G by G.001;\012sub a by a.001;\012sub i by i.001;\012sub r by r.001;\012sub v by v.001;\012sub y by y.001;\012sub y by y.002;\012sub ampersand by ampersand.001;\012sub at by at.001;\012sub exclam by exclam.001;\012sub at.002 by at;\012";
name = aalt;
},
{
code = "sub hyphen greater by rightArrow;\012sub endash greater by rightArrow;\012sub colon parenright by whiteSmilingFace;\012sub colon parenright parenright by lol;\012";
name = liga;
},
{

glyphs = (
{
glyphname = A;
lastChange = "2021-09-09 09:09:49 +0000";
layers = (
{
guideLines = (
{
position = "{459, 175}";
},
{
angle = 87.0233;
position = "{171, 0}";
}
);
layerId = "96BCCF85-5232-4835-A4EF-A1D5F093B6B0";
paths = (
{
closed = 1;
nodes = (
"231 129 LINE",
"178 129 LINE",
"171 0 LINE",
"30 0 LINE",
"115 700 LINE",
"295 700 LINE",
"380 0 LINE",
"240 0 LINE"
);
},
{
closed = 1;
nodes = (
"224 279 LINE",
"214 500 LINE",
"197 500 LINE",
"186 279 LINE"
);
}
);
width = 410;
}
);
leftKerningGroup = a;
rightKerningGroup = a;
unicode = 0041;
},
{
glyphname = E;
lastChange = "2021-08-30 16:17:22 +0000";
layers = (
{
layerId = "96BCCF85-5232-4835-A4EF-A1D5F093B6B0";
paths = (
{
closed = 1;
nodes = (
"179 570 LINE",
"179 425 LINE",
"266 425 LINE",
"266 275 LINE",
"179 275 LINE",
"179 129 LINE",
"310 129 LINE",
"310 0 LINE",
"30 0 LINE",
"30 700 LINE",
"310 700 LINE",
"310 570 LINE"
);
}
);
width = 340;
}
);
leftKerningGroup = H;
leftMetricsKey = B;
rightKerningGroup = e;
unicode = 0045;
},
{
glyphname = G;
lastChange = "2021-08-30 16:17:44 +0000";
layers = (
{
guideLines = (
{
angle = 90;
position = "{265, 73}";
},
{
position = "{233, 35}";
},
{
angle = 90;
position = "{228, 35}";
}
);
layerId = "96BCCF85-5232-4835-A4EF-A1D5F093B6B0";
paths = (
{
closed = 1;
nodes = (
"380 389 LINE",
"380 0 LINE",
"261 0 LINE",
"261 35 LINE",
"251 35 LINE",
"240 9 OFFCURVE",
"217 -10 OFFCURVE",
"179 -10 CURVE",
"82 -10 OFFCURVE",
"30 68 OFFCURVE",
"30 165 CURVE",
"30 535 LINE",
"30 632 OFFCURVE",
"108 710 OFFCURVE",
"205 710 CURVE",
"302 710 OFFCURVE",
"380 632 OFFCURVE",
"380 535 CURVE",
"380 464 LINE",
"232 464 LINE",
"232 543 LINE",
"232 558 OFFCURVE",
"220 570 OFFCURVE",
"205 570 CURVE",
"191 570 OFFCURVE",
"179 558 OFFCURVE",
"179 543 CURVE",
"179 155 LINE",
"179 141 OFFCURVE",
"191 129 OFFCURVE",
"205 129 CURVE",
"220 129 OFFCURVE",
"232 141 OFFCURVE",
"232 155 CURVE",
"232 240 LINE",
"232 239 LINE",
"232 389 LINE"
);
}
);
width = 410;
}
);
leftKerningGroup = o;
rightKerningGroup = G;
unicode = 0047;
},
{
glyphname = J;
lastChange = "2021-08-30 16:18:07 +0000";
layers = (
{
layerId = "96BCCF85-5232-4835-A4EF-A1D5F093B6B0";
paths = (
{
closed = 1;
nodes = (
"380 700 LINE",
"380 165 LINE",
"380 68 OFFCURVE",
"302 -10 OFFCURVE",
"205 -10 CURVE",
"108 -10 OFFCURVE",
"30 68 OFFCURVE",
"30 165 CURVE",
"30 275 LINE",
"179 275 LINE",
"179 155 LINE",
"179 141 OFFCURVE",
"191 129 OFFCURVE",
"205 129 CURVE",
"220 129 OFFCURVE",
"232 141 OFFCURVE",
"232 155 CURVE",
"232 570 LINE",
"118 570 LINE",
"118 700 LINE"
);
}
);
width = 410;
}
);
leftKerningGroup = J;
rightKerningGroup = u;
rightMetricsKey = H;
unicode = 004A;
},
{
glyphname = M;
lastChange = "2021-08-30 16:18:39 +0000";
layers = (
{
layerId = "96BCCF85-5232-4835-A4EF-A1D5F093B6B0";
paths = (
{
closed = 1;
nodes = (
"467 700 LINE",
"467 0 LINE",
"337 0 LINE",
"337 311 LINE",
"331 311 LINE",
"292 0 LINE",
"205 0 LINE",
"166 311 LINE",
"160 311 LINE",
"160 0 LINE",
"30 0 LINE",
"30 700 LINE",
"201 700 LINE",
"246 389 LINE",
"252 389 LINE",
"295 700 LINE"
);
}
);
width = 497;
}
);
leftKerningGroup = H;
leftMetricsKey = B;
rightKerningGroup = H;
unicode = 004D;
},
{
glyphname = N;
lastChange = "2021-08-30 16:18:42 +0000";
layers = (
{
layerId = "96BCCF85-5232-4835-A4EF-A1D5F093B6B0";
paths = (
{
closed = 1;
nodes = (
"250 700 LINE",
"380 700 LINE",
"380 0 LINE",
"260 0 LINE",
"175 275 LINE",
"160 275 LINE",
"160 0 LINE",
"30 0 LINE",
"30 700 LINE",
"150 700 LINE",
"235 425 LINE",
"250 425 LINE"
);
}
);
width = 410;
}
);
leftKerningGroup = H;
leftMetricsKey = B;
rightKerningGroup = H;
rightMetricsKey = H;
unicode = 004E;
},
{
glyphname = Ohorn;
lastChange = "2021-08-30 16:19:12 +0000";
layers = (
{
layerId = "96BCCF85-5232-4835-A4EF-A1D5F093B6B0";
paths = (
{
closed = 1;
nodes = (
"734 475 OFFCURVE",
"750 417 OFFCURVE",
"750 350 CURVE",
"750 151 OFFCURVE",
"589 -10 OFFCURVE",
"390 -10 CURVE",
"191 -10 OFFCURVE",
"30 151 OFFCURVE",
"30 350 CURVE",
"30 549 OFFCURVE",
"191 710 OFFCURVE",
"390 710 CURVE SMOOTH",
"535 710 OFFCURVE",
"609 636 OFFCURVE",
"627 584 CURVE",
"637 584 LINE",
"653 615 OFFCURVE",
"659 647 OFFCURVE",
"659 700 CURVE",
"749 700 LINE",
"749 634 OFFCURVE",
"741 577 OFFCURVE",
"702 529 CURVE"
);
},
{
closed = 1;
nodes = (
"601 467 OFFCURVE",
"507 561 OFFCURVE",
"390 561 CURVE",
"274 561 OFFCURVE",
"180 467 OFFCURVE",
"180 350 CURVE",
"180 234 OFFCURVE",
"274 140 OFFCURVE",
"390 140 CURVE",
"507 140 OFFCURVE",
"601 234 OFFCURVE",
"601 350 CURVE"
);
}
);
width = 780;
}
);
leftKerningGroup = O;
rightKerningGroup = O;
unicode = 01A0;
},
{
glyphname = Q;
lastChange = "2021-08-30 16:19:24 +0000";
layers = (
{
layerId = "96BCCF85-5232-4835-A4EF-A1D5F093B6B0";
paths = (
{
closed = 1;
nodes = (
"380 120 OFFCURVE",
"355 72 OFFCURVE",
"316 39 CURVE",
"316 24 LINE",
"380 -73 LINE",
"380 -88 LINE",
"253 -88 LINE",
"206 0 LINE",
"205 0 LINE",
"108 0 OFFCURVE",
"30 78 OFFCURVE",
"30 175 CURVE",
"30 535 LINE",
"30 631 OFFCURVE",
"108 710 OFFCURVE",
"205 710 CURVE",
"302 710 OFFCURVE",
"380 631 OFFCURVE",
"380 535 CURVE",
"380 175 LINE"
);
},
{
closed = 1;
nodes = (
"179 140 OFFCURVE",
"191 129 OFFCURVE",
"205 129 CURVE",
"220 129 OFFCURVE",
"232 140 OFFCURVE",
"232 155 CURVE",
"232 544 LINE",
"232 559 OFFCURVE",
"220 570 OFFCURVE",
"205 570 CURVE",
"191 570 OFFCURVE",
"179 559 OFFCURVE",
"179 544 CURVE",
"179 155 LINE"
);
}
);
width = 411;
}
);
leftKerningGroup = o;
rightKerningGroup = o;
unicode = 0051;
},
{
glyphname = R;
lastChange = "2021-08-30 16:19:28 +0000";
layers = (
{
layerId = "96BCCF85-5232-4835-A4EF-A1D5F093B6B0";
paths = (
{
closed = 1;
nodes = (
"380 466 OFFCURVE",
"380 387 OFFCURVE",
"380 386 CURVE",
"380 351 OFFCURVE",
"366 288 OFFCURVE",
"318 244 CURVE",
"318 229 LINE",
"380 0 LINE",
"230 0 LINE",
"188 193 LINE",
"179 193 LINE",
"179 0 LINE",
"30 0 LINE",
"30 700 LINE",
"183 700 LINE",
"291 700 OFFCURVE",
"380 612 OFFCURVE",
"380 503 CURVE"
);
},
{
closed = 1;
nodes = (
"187 322 LINE SMOOTH",
"211 322 OFFCURVE",
"230 328 OFFCURVE",
"230 386 CURVE SMOOTH",
"230 412 OFFCURVE",
"230 471 OFFCURVE",
"230 506 CURVE SMOOTH",
"230 562 OFFCURVE",
"211 570 OFFCURVE",
"187 570 CURVE SMOOTH",
"179 570 LINE",
"179 322 LINE"
);
}
);
width = 410;
}
);
leftKerningGroup = H;
leftMetricsKey = B;
rightKerningGroup = r;
unicode = 0052;
},
{
glyphname = T;
lastChange = "2021-08-30 16:19:41 +0000";
layers = (
{
layerId = "96BCCF85-5232-4835-A4EF-A1D5F093B6B0";
paths = (
{
closed = 1;
nodes = (
"370 700 LINE",
"370 570 LINE",
"275 570 LINE",
"275 0 LINE",
"125 0 LINE",
"125 570 LINE",
"30 570 LINE",
"30 700 LINE"
);
}
);
width = 400;
}
);
leftKerningGroup = T;
rightKerningGroup = T;
unicode = 0054;
},
{
glyphname = U;
lastChange = "2021-08-30 16:19:46 +0000";
layers = (
{
layerId = "96BCCF85-5232-4835-A4EF-A1D5F093B6B0";
paths = (
{
closed = 1;
nodes = (
"380 700 LINE",
"380 165 LINE",
"380 68 OFFCURVE",
"302 -10 OFFCURVE",
"205 -10 CURVE",
"108 -10 OFFCURVE",
"30 68 OFFCURVE",
"30 165 CURVE",
"30 700 LINE",
"179 700 LINE",
"179 156 LINE",
"179 141 OFFCURVE",
"191 129 OFFCURVE",
"205 129 CURVE",
"220 129 OFFCURVE",
"232 141 OFFCURVE",
"232 156 CURVE",
"232 700 LINE"
);
}
);
width = 410;
}
);
leftKerningGroup = u;
rightKerningGroup = u;
rightMetricsKey = H;
unicode = 0055;
},
{
glyphname = Uhorn;
lastChange = "2021-07-10 16:13:16 +0000";
layers = (
{
guideLines = (
{
position = "{852, 491}";
},
{
position = "{852, 521}";
},
{
angle = 90;
position = "{609, 211}";
}
);
layerId = "96BCCF85-5232-4835-A4EF-A1D5F093B6B0";
paths = (
{
closed = 1;
nodes = (
"659 635 OFFCURVE",
"647 570 OFFCURVE",
"609 570 CURVE",
"609 700 LINE",
"459 700 LINE",
"458 268 LINE",
"458 191 OFFCURVE",
"396 129 OFFCURVE",
"319 129 CURVE",
"241 129 OFFCURVE",
"179 191 OFFCURVE",
"179 268 CURVE",
"180 700 LINE",
"30 700 LINE",
"30 279 LINE",
"30 119 OFFCURVE",
"160 -10 OFFCURVE",
"320 -10 CURVE",
"480 -10 OFFCURVE",
"609 119 OFFCURVE",
"609 279 CURVE",
"609 491 LINE",
"735 491 OFFCURVE",
"749 622 OFFCURVE",
"749 700 CURVE",
"659 700 LINE"
);
}
);
width = 779;
}
);
leftKerningGroup = U;
rightKerningGroup = Uhorn;
unicode = 01AF;
},
{
glyphname = V;
lastChange = "2021-08-30 16:20:05 +0000";
layers = (
{
layerId = "96BCCF85-5232-4835-A4EF-A1D5F093B6B0";
paths = (
{
closed = 1;
nodes = (
"211 200 LINE",
"230 700 LINE",
"380 700 LINE",
"380 685 LINE",
"290 0 LINE",
"120 0 LINE",
"30 685 LINE",
"30 700 LINE",
"179 700 LINE",
"198 200 LINE"
);
}
);
width = 411;
}
);
leftKerningGroup = V;
rightKerningGroup = V;
unicode = 0056;
},
{
glyphname = W;
lastChange = "2021-08-30 16:20:10 +0000";
layers = (
{
layerId = "96BCCF85-5232-4835-A4EF-A1D5F093B6B0";
paths = (
{
closed = 1;
nodes = (
"467 700 LINE",
"467 685 LINE",
"424 0 LINE",
"273 0 LINE",
"257 250 LINE",
"241 250 LINE",
"224 0 LINE",
"74 0 LINE",
"30 685 LINE",
"30 700 LINE",
"141 700 LINE",
"155 389 LINE",
"168 389 LINE",
"205 700 LINE",
"292 700 LINE",
"329 389 LINE",
"342 389 LINE",
"356 700 LINE"
);
}
);
width = 497;
}
);
leftKerningGroup = W;
rightKerningGroup = W;
unicode = 0057;
},
{
glyphname = Y;
lastChange = "2021-09-07 16:24:05 +0000";
layers = (
{
layerId = "96BCCF85-5232-4835-A4EF-A1D5F093B6B0";
paths = (
{
closed = 1;
nodes = (
"212 440 LINE",
"232 700 LINE",
"380 700 LINE",
"380 685 LINE",
"280 311 LINE",
"280 0 LINE",
"131 0 LINE",
"131 311 LINE",
"30 685 LINE",
"30 700 LINE",
"179 700 LINE",
"199 440 LINE"
);
}
);
width = 411;
}
);
leftKerningGroup = Y;
rightKerningGroup = Y;
unicode = 0059;
},
{
glyphname = Dcroat.001;
lastChange = "2021-09-07 16:38:19 +0000";
layers = (
{
guideLines = (
{
angle = 90;
position = "{759, 362}";
},
{
angle = 90;
position = "{324, 389}";
}
);
layerId = "96BCCF85-5232-4835-A4EF-A1D5F093B6B0";
paths = (
{
closed = 1;
nodes = (
"284 559 OFFCURVE",
"274 570 OFFCURVE",
"261 570 CURVE",
"233 570 LINE",
"233 129 LINE",
"261 129 LINE",
"274 129 OFFCURVE",
"284 140 OFFCURVE",
"284 152 CURVE",
"284 547 LINE"
);
},
{
closed = 1;
nodes = (
"356 700 OFFCURVE",
"434 622 OFFCURVE",
"434 525 CURVE",
"434 175 LINE",
"434 78 OFFCURVE",
"356 0 OFFCURVE",
"259 0 CURVE",
"84 0 LINE",
"84 285 LINE",
"30 285 LINE",
"30 415 LINE",
"84 415 LINE",
"84 700 LINE",
"259 700 LINE"
);
}
);
width = 464;
}
);
leftKerningGroup = dcroat;
rightKerningGroup = o;
},
{
glyphname = G.001;
lastChange = "2021-08-30 16:22:04 +0000";
layers = (
{
layerId = "96BCCF85-5232-4835-A4EF-A1D5F093B6B0";
paths = (
{
closed = 1;
nodes = (
"380 389 LINE",
"380 165 LINE",
"380 68 OFFCURVE",
"302 -10 OFFCURVE",
"205 -10 CURVE",
"108 -10 OFFCURVE",
"30 68 OFFCURVE",
"30 165 CURVE",
"30 535 LINE",
"30 632 OFFCURVE",
"108 710 OFFCURVE",
"205 710 CURVE",
"302 710 OFFCURVE",
"380 632 OFFCURVE",
"380 535 CURVE",
"380 425 LINE",
"231 425 LINE",
"231 544 LINE",
"231 558 OFFCURVE",
"220 570 OFFCURVE",
"205 570 CURVE",
"191 570 OFFCURVE",
"180 558 OFFCURVE",
"180 544 CURVE",
"180 155 LINE",
"180 141 OFFCURVE",
"191 129 OFFCURVE",
"205 129 CURVE",
"220 129 OFFCURVE",
"231 141 OFFCURVE",
"231 155 CURVE",
"231 239 LINE",
"205 239 LINE",
"205 389 LINE"
);
}
);
width = 410;
}
);
leftKerningGroup = o;
rightKerningGroup = o;
},
{
glyphname = A.big;
lastChange = "2021-08-30 16:16:45 +0000";
layers = (
{
layerId = "96BCCF85-5232-4835-A4EF-A1D5F093B6B0";
paths = (
{
closed = 1;
nodes = (
"507 180 LINE",
"254 180 LINE",
"180 0 LINE",
"30 0 LINE",
"336 700 LINE",
"424 700 LINE",
"730 0 LINE",
"581 0 LINE"
);
},
{
closed = 1;
nodes = (
"453 311 LINE",
"387 470 LINE",
"374 470 LINE",
"308 311 LINE"
);
}
);
width = 760;
}
);
leftKerningGroup = A;
rightKerningGroup = A;
},
{
glyphname = E.big;
lastChange = "2021-08-30 16:17:31 +0000";
layers = (
{
layerId = "96BCCF85-5232-4835-A4EF-A1D5F093B6B0";
paths = (
{
closed = 1;
nodes = (
"180 570 LINE",
"180 425 LINE",
"573 425 LINE",
"573 275 LINE",
"180 275 LINE",
"180 129 LINE",
"660 129 LINE",
"660 0 LINE",
"30 0 LINE",
"30 700 LINE",
"660 700 LINE",
"660 570 LINE"
);
}
);
width = 690;
}
);
leftKerningGroup = H;
rightKerningGroup = E;
},
{
glyphname = I.big;
lastChange = "2021-08-30 16:18:01 +0000";
layers = (
{
layerId = "96BCCF85-5232-4835-A4EF-A1D5F093B6B0";
paths = (
{
closed = 1;
nodes = (
"630 700 LINE",
"630 570 LINE",
"405 570 LINE",
"405 129 LINE",
"630 129 LINE",
"630 0 LINE",
"30 0 LINE",
"30 129 LINE",
"255 129 LINE",
"255 570 LINE",
"30 570 LINE",
"30 700 LINE"
);
}
);
width = 660;
}
);
leftKerningGroup = I;
rightKerningGroup = I;
},
{
glyphname = O.big;
lastChange = "2021-08-30 16:19:03 +0000";
layers = (
{
layerId = "96BCCF85-5232-4835-A4EF-A1D5F093B6B0";
paths = (
{
closed = 1;
nodes = (
"599 710 OFFCURVE",
"750 554 OFFCURVE",
"750 350 CURVE SMOOTH",
"750 146 OFFCURVE",
"599 -10 OFFCURVE",
"390 -10 CURVE SMOOTH",
"180 -10 OFFCURVE",
"30 146 OFFCURVE",
"30 350 CURVE SMOOTH",
"30 554 OFFCURVE",
"180 710 OFFCURVE",
"390 710 CURVE SMOOTH"
);
},
{
closed = 1;
nodes = (
"618 482 OFFCURVE",
"523 580 OFFCURVE",
"390 580 CURVE SMOOTH",
"255 580 OFFCURVE",
"160 482 OFFCURVE",
"160 350 CURVE SMOOTH",
"160 220 OFFCURVE",
"255 122 OFFCURVE",
"390 122 CURVE SMOOTH",
"523 122 OFFCURVE",
"618 220 OFFCURVE",
"618 350 CURVE SMOOTH"
);
}
);
width = 780;
}
);
leftKerningGroup = O;
rightKerningGroup = O;
},
{
glyphname = U.big;
lastChange = "2021-08-30 16:19:51 +0000";
layers = (
{
layerId = "96BCCF85-5232-4835-A4EF-A1D5F093B6B0";
paths = (
{
closed = 1;
nodes = (
"581 700 LINE",
"730 700 LINE",
"730 340 LINE",
"730 147 OFFCURVE",
"573 -10 OFFCURVE",
"380 -10 CURVE",
"187 -10 OFFCURVE",
"30 147 OFFCURVE",
"30 340 CURVE",
"30 700 LINE",
"180 700 LINE",
"180 340 LINE",
"180 228 OFFCURVE",
"269 140 OFFCURVE",
"380 140 CURVE",
"490 140 OFFCURVE",
"581 228 OFFCURVE",
"581 340 CURVE"
);
}
);
width = 760;
}
);
leftKerningGroup = U;
rightKerningGroup = U;
},
{
glyphname = Y.big;
lastChange = "2021-08-30 16:20:27 +0000";
layers = (
{
layerId = "96BCCF85-5232-4835-A4EF-A1D5F093B6B0";
paths = (
{
closed = 1;
nodes = (
"730 700 LINE",
"730 685 LINE",
"455 311 LINE",
"455 0 LINE",
"305 0 LINE",
"305 311 LINE",
"30 685 LINE",
"30 700 LINE",
"200 700 LINE",
"373 440 LINE",
"387 440 LINE",
"561 700 LINE"
);
}
);
width = 760;
}
);
leftKerningGroup = Y;
rightKerningGroup = Y;
},
{
glyphname = C_A;
lastChange = "2021-08-30 16:22:17 +0000";
layers = (
{
guideLines = (
{
position = "{47, 425}";
},
{
position = "{-3, 275}";
}
);
layerId = "96BCCF85-5232-4835-A4EF-A1D5F093B6B0";
paths = (
{
closed = 1;
nodes = (
"428 290 LINE",
"353 290 LINE",
"331 200 LINE",
"215 200 LINE",
"325 550 LINE",
"455 550 LINE",
"565 200 LINE",
"450 200 LINE"
);
},
{
closed = 1;
nodes = (
"412 356 LINE",
"395 435 LINE",
"386 435 LINE",
"369 356 LINE"
);
},
{
closed = 1;
nodes = (
"497 102 OFFCURVE",
"587 168 OFFCURVE",
"622 262 CURVE",
"729 231 LINE",
"680 91 OFFCURVE",
"547 -10 OFFCURVE",
"390 -10 CURVE",
"190 -10 OFFCURVE",
"30 151 OFFCURVE",
"30 350 CURVE",
"30 549 OFFCURVE",
"190 710 OFFCURVE",
"390 710 CURVE",
"547 710 OFFCURVE",
"680 610 OFFCURVE",
"729 470 CURVE",
"622 438 LINE",
"586 532 OFFCURVE",
"497 598 OFFCURVE",
"390 598 CURVE SMOOTH",
"252 598 OFFCURVE",
"140 487 OFFCURVE",
"140 349 CURVE SMOOTH",
"140 211 OFFCURVE",
"252 102 OFFCURVE",
"390 102 CURVE"
);
}
);
width = 759;
}
);
leftKerningGroup = O;
rightKerningGroup = O;
},
{
glyphname = C_Aacute;
lastChange = "2021-08-30 16:22:23 +0000";
layers = (
{
components = (
{
name = acutecomb;
transform = "{1, 0, 0, 1, 340, 0}";
}
);
guideLines = (
{
position = "{47, 425}";
},
{
position = "{-3, 275}";
},
{
angle = 90;
position = "{390, 716}";
}
);
layerId = "96BCCF85-5232-4835-A4EF-A1D5F093B6B0";
paths = (
{
closed = 1;
nodes = (
"428 290 LINE",
"353 290 LINE",
"331 200 LINE",
"215 200 LINE",
"325 550 LINE",
"455 550 LINE",
"565 200 LINE",
"450 200 LINE"
);
},
{
closed = 1;
nodes = (
"412 356 LINE",
"395 435 LINE",
"386 435 LINE",
"369 356 LINE"
);
},
{
closed = 1;
nodes = (
"497 102 OFFCURVE",
"587 168 OFFCURVE",
"622 262 CURVE",
"729 231 LINE",
"680 91 OFFCURVE",
"547 -10 OFFCURVE",
"390 -10 CURVE",
"190 -10 OFFCURVE",
"30 151 OFFCURVE",
"30 350 CURVE",
"30 549 OFFCURVE",
"190 710 OFFCURVE",
"390 710 CURVE",
"547 710 OFFCURVE",
"680 610 OFFCURVE",
"729 470 CURVE",
"622 438 LINE",
"586 532 OFFCURVE",
"497 598 OFFCURVE",
"390 598 CURVE SMOOTH",
"252 598 OFFCURVE",
"140 487 OFFCURVE",
"140 349 CURVE SMOOTH",
"140 211 OFFCURVE",
"252 102 OFFCURVE",
"390 102 CURVE"
);
}
);
width = 759;
}
);
leftKerningGroup = O;
rightKerningGroup = O;
},
{
glyphname = C_Agrave;
lastChange = "2021-08-30 16:22:24 +0000";
layers = (
{
components = (
{
name = gravecomb;
transform = "{1, 0, 0, 1, 271, 0}";
}
);
guideLines = (
{
position = "{47, 425}";
},
{
position = "{-3, 275}";
},
{
angle = 90;
position = "{390, 716}";
}
);
layerId = "96BCCF85-5232-4835-A4EF-A1D5F093B6B0";
paths = (
{
closed = 1;
nodes = (
"428 290 LINE",
"353 290 LINE",
"331 200 LINE",
"215 200 LINE",
"325 550 LINE",
"455 550 LINE",
"565 200 LINE",
"450 200 LINE"
);
},
{
closed = 1;
nodes = (
"412 356 LINE",
"395 435 LINE",
"386 435 LINE",
"369 356 LINE"
);
},
{
closed = 1;
nodes = (
"497 102 OFFCURVE",
"587 168 OFFCURVE",
"622 262 CURVE",
"729 231 LINE",
"680 91 OFFCURVE",
"547 -10 OFFCURVE",
"390 -10 CURVE",
"190 -10 OFFCURVE",
"30 151 OFFCURVE",
"30 350 CURVE",
"30 549 OFFCURVE",
"190 710 OFFCURVE",
"390 710 CURVE",
"547 710 OFFCURVE",
"680 610 OFFCURVE",
"729 470 CURVE",
"622 438 LINE",
"586 532 OFFCURVE",
"497 598 OFFCURVE",
"390 598 CURVE SMOOTH",
"252 598 OFFCURVE",
"140 487 OFFCURVE",
"140 349 CURVE SMOOTH",
"140 211 OFFCURVE",
"252 102 OFFCURVE",
"390 102 CURVE"
);
}
);
width = 759;
}
);
leftKerningGroup = O;
rightKerningGroup = O;
},
{
glyphname = C_Ahookabove;
lastChange = "2021-08-30 16:22:28 +0000";
layers = (
{
components = (
{
name = hookabovecomb;
transform = "{1, 0, 0, 1, 289, -30}";
}
);
guideLines = (
{
position = "{47, 425}";
},
{
position = "{-3, 275}";
},
{
angle = 90;
position = "{390, 716}";
}
);
layerId = "96BCCF85-5232-4835-A4EF-A1D5F093B6B0";
paths = (
{
closed = 1;
nodes = (
"428 290 LINE",
"353 290 LINE",
"331 200 LINE",
"215 200 LINE",
"325 550 LINE",
"455 550 LINE",
"565 200 LINE",
"450 200 LINE"
);
},
{
closed = 1;
nodes = (
"412 356 LINE",
"395 435 LINE",
"386 435 LINE",
"369 356 LINE"
);
},
{
closed = 1;
nodes = (
"497 102 OFFCURVE",
"587 168 OFFCURVE",
"622 262 CURVE",
"729 231 LINE",
"680 91 OFFCURVE",
"547 -10 OFFCURVE",
"390 -10 CURVE",
"190 -10 OFFCURVE",
"30 151 OFFCURVE",
"30 350 CURVE",
"30 549 OFFCURVE",
"190 710 OFFCURVE",
"390 710 CURVE",
"547 710 OFFCURVE",
"680 610 OFFCURVE",
"729 470 CURVE",
"622 438 LINE",
"586 532 OFFCURVE",
"497 598 OFFCURVE",
"390 598 CURVE SMOOTH",
"252 598 OFFCURVE",
"140 487 OFFCURVE",
"140 349 CURVE SMOOTH",
"140 211 OFFCURVE",
"252 102 OFFCURVE",
"390 102 CURVE"
);
}
);
width = 759;
}
);
leftKerningGroup = O;
rightKerningGroup = O;
},
{
glyphname = C_Atilde;
lastChange = "2021-08-30 16:22:31 +0000";
layers = (
{
components = (
{
name = tildecomb;
transform = "{1, 0, 0, 1, 169, -28}";
}
);
guideLines = (
{
position = "{47, 425}";
},
{
position = "{-3, 275}";
},
{
angle = 90;
position = "{390, 716}";
}
);
layerId = "96BCCF85-5232-4835-A4EF-A1D5F093B6B0";
paths = (
{
closed = 1;
nodes = (
"428 290 LINE",
"353 290 LINE",
"331 200 LINE",
"215 200 LINE",
"325 550 LINE",
"455 550 LINE",
"565 200 LINE",
"450 200 LINE"
);
},
{
closed = 1;
nodes = (
"412 356 LINE",
"395 435 LINE",
"386 435 LINE",
"369 356 LINE"
);
},
{
closed = 1;
nodes = (
"497 102 OFFCURVE",
"587 168 OFFCURVE",
"622 262 CURVE",
"729 231 LINE",
"680 91 OFFCURVE",
"547 -10 OFFCURVE",
"390 -10 CURVE",
"190 -10 OFFCURVE",
"30 151 OFFCURVE",
"30 350 CURVE",
"30 549 OFFCURVE",
"190 710 OFFCURVE",
"390 710 CURVE",
"547 710 OFFCURVE",
"680 610 OFFCURVE",
"729 470 CURVE",
"622 438 LINE",
"586 532 OFFCURVE",
"497 598 OFFCURVE",
"390 598 CURVE SMOOTH",
"252 598 OFFCURVE",
"140 487 OFFCURVE",
"140 349 CURVE SMOOTH",
"140 211 OFFCURVE",
"252 102 OFFCURVE",
"390 102 CURVE"
);
}
);
width = 759;
}
);
leftKerningGroup = O;
rightKerningGroup = O;
},
{
glyphname = C_O;
lastChange = "2021-08-30 16:22:32 +0000";
layers = (
{
layerId = "96BCCF85-5232-4835-A4EF-A1D5F093B6B0";
paths = (
{
closed = 1;
nodes = (
"497 102 OFFCURVE",
"587 168 OFFCURVE",
"622 262 CURVE",
"729 231 LINE",
"680 91 OFFCURVE",
"547 -10 OFFCURVE",
"390 -10 CURVE",
"190 -10 OFFCURVE",
"30 151 OFFCURVE",
"30 350 CURVE",
"30 549 OFFCURVE",
"190 710 OFFCURVE",
"390 710 CURVE",
"547 710 OFFCURVE",
"680 610 OFFCURVE",
"729 470 CURVE",
"622 438 LINE",
"586 532 OFFCURVE",
"497 598 OFFCURVE",
"390 598 CURVE SMOOTH",
"252 598 OFFCURVE",
"140 487 OFFCURVE",
"140 349 CURVE SMOOTH",
"140 211 OFFCURVE",
"252 102 OFFCURVE",
"390 102 CURVE"
);
},
{
closed = 1;
nodes = (
"492 535 OFFCURVE",
"575 452 OFFCURVE",
"575 350 CURVE",
"575 247 OFFCURVE",
"492 164 OFFCURVE",
"390 164 CURVE",
"287 164 OFFCURVE",
"204 247 OFFCURVE",
"204 350 CURVE",
"204 452 OFFCURVE",
"287 535 OFFCURVE",
"390 535 CURVE"
);
},
{
closed = 1;
nodes = (
"465 392 OFFCURVE",
"431 425 OFFCURVE",
"390 425 CURVE",
"348 425 OFFCURVE",
"314 392 OFFCURVE",
"314 350 CURVE",
"314 308 OFFCURVE",
"348 275 OFFCURVE",
"390 275 CURVE",
"431 275 OFFCURVE",
"465 308 OFFCURVE",
"465 350 CURVE"
);
}
);
width = 759;
}
);
leftKerningGroup = O;
rightKerningGroup = O;
},
{
glyphname = C_Oacute;
lastChange = "2021-08-30 16:22:37 +0000";
layers = (
{
components = (
{
name = acutecomb;
transform = "{1, 0, 0, 1, 340, 0}";
}
);
guideLines = (
{
angle = 90;
position = "{390, 716}";
}
);
layerId = "96BCCF85-5232-4835-A4EF-A1D5F093B6B0";
paths = (
{
closed = 1;
nodes = (
"497 102 OFFCURVE",
"587 168 OFFCURVE",
"622 262 CURVE",
"729 231 LINE",
"680 91 OFFCURVE",
"547 -10 OFFCURVE",
"390 -10 CURVE",
"190 -10 OFFCURVE",
"30 151 OFFCURVE",
"30 350 CURVE",
"30 549 OFFCURVE",
"190 710 OFFCURVE",
"390 710 CURVE",
"547 710 OFFCURVE",
"680 610 OFFCURVE",
"729 470 CURVE",
"622 438 LINE",
"586 532 OFFCURVE",
"497 598 OFFCURVE",
"390 598 CURVE SMOOTH",
"252 598 OFFCURVE",
"140 487 OFFCURVE",
"140 349 CURVE SMOOTH",
"140 211 OFFCURVE",
"252 102 OFFCURVE",
"390 102 CURVE"
);
},
{
closed = 1;
nodes = (
"492 535 OFFCURVE",
"575 452 OFFCURVE",
"575 350 CURVE",
"575 247 OFFCURVE",
"492 164 OFFCURVE",
"390 164 CURVE",
"287 164 OFFCURVE",
"204 247 OFFCURVE",
"204 350 CURVE",
"204 452 OFFCURVE",
"287 535 OFFCURVE",
"390 535 CURVE"
);
},
{
closed = 1;
nodes = (
"465 392 OFFCURVE",
"431 425 OFFCURVE",
"390 425 CURVE",
"348 425 OFFCURVE",
"314 392 OFFCURVE",
"314 350 CURVE",
"314 308 OFFCURVE",
"348 275 OFFCURVE",
"390 275 CURVE",
"431 275 OFFCURVE",
"465 308 OFFCURVE",
"465 350 CURVE"
);
}
);
width = 759;
}
);
leftKerningGroup = O;
rightKerningGroup = O;
},
{
glyphname = C_Ograve;
lastChange = "2021-08-30 16:22:40 +0000";
layers = (
{
components = (
{
name = gravecomb;
transform = "{1, 0, 0, 1, 282, 0}";
}
);
guideLines = (
{
angle = 90;
position = "{390, 716}";
}
);
layerId = "96BCCF85-5232-4835-A4EF-A1D5F093B6B0";
paths = (
{
closed = 1;
nodes = (
"497 102 OFFCURVE",
"587 168 OFFCURVE",
"622 262 CURVE",
"729 231 LINE",
"680 91 OFFCURVE",
"547 -10 OFFCURVE",
"390 -10 CURVE",
"190 -10 OFFCURVE",
"30 151 OFFCURVE",
"30 350 CURVE",
"30 549 OFFCURVE",
"190 710 OFFCURVE",
"390 710 CURVE",
"547 710 OFFCURVE",
"680 610 OFFCURVE",
"729 470 CURVE",
"622 438 LINE",
"586 532 OFFCURVE",
"497 598 OFFCURVE",
"390 598 CURVE SMOOTH",
"252 598 OFFCURVE",
"140 487 OFFCURVE",
"140 349 CURVE SMOOTH",
"140 211 OFFCURVE",
"252 102 OFFCURVE",
"390 102 CURVE"
);
},
{
closed = 1;
nodes = (
"492 535 OFFCURVE",
"575 452 OFFCURVE",
"575 350 CURVE",
"575 247 OFFCURVE",
"492 164 OFFCURVE",
"390 164 CURVE",
"287 164 OFFCURVE",
"204 247 OFFCURVE",
"204 350 CURVE",
"204 452 OFFCURVE",
"287 535 OFFCURVE",
"390 535 CURVE"
);
},
{
closed = 1;
nodes = (
"465 392 OFFCURVE",
"431 425 OFFCURVE",
"390 425 CURVE",
"348 425 OFFCURVE",
"314 392 OFFCURVE",
"314 350 CURVE",
"314 308 OFFCURVE",
"348 275 OFFCURVE",
"390 275 CURVE",
"431 275 OFFCURVE",
"465 308 OFFCURVE",
"465 350 CURVE"
);
}
);
width = 759;
}
);
leftKerningGroup = O;
rightKerningGroup = O;
},
{
glyphname = C_Ohookabove;
lastChange = "2021-08-30 16:22:44 +0000";
layers = (
{
components = (
{
name = hookabovecomb;
transform = "{1, 0, 0, 1, 289, -30}";
}
);
guideLines = (
{
angle = 90;
position = "{390, 716}";
}
);
layerId = "96BCCF85-5232-4835-A4EF-A1D5F093B6B0";
paths = (
{
closed = 1;
nodes = (
"497 102 OFFCURVE",
"587 168 OFFCURVE",
"622 262 CURVE",
"729 231 LINE",
"680 91 OFFCURVE",
"547 -10 OFFCURVE",
"390 -10 CURVE",
"190 -10 OFFCURVE",
"30 151 OFFCURVE",
"30 350 CURVE",
"30 549 OFFCURVE",
"190 710 OFFCURVE",
"390 710 CURVE",
"547 710 OFFCURVE",
"680 610 OFFCURVE",
"729 470 CURVE",
"622 438 LINE",
"586 532 OFFCURVE",
"497 598 OFFCURVE",
"390 598 CURVE SMOOTH",
"252 598 OFFCURVE",
"140 487 OFFCURVE",
"140 349 CURVE SMOOTH",
"140 211 OFFCURVE",
"252 102 OFFCURVE",
"390 102 CURVE"
);
},
{
closed = 1;
nodes = (
"492 535 OFFCURVE",
"575 452 OFFCURVE",
"575 350 CURVE",
"575 247 OFFCURVE",
"492 164 OFFCURVE",
"390 164 CURVE",
"287 164 OFFCURVE",
"204 247 OFFCURVE",
"204 350 CURVE",
"204 452 OFFCURVE",
"287 535 OFFCURVE",
"390 535 CURVE"
);
},
{
closed = 1;
nodes = (
"465 392 OFFCURVE",
"431 425 OFFCURVE",
"390 425 CURVE",
"348 425 OFFCURVE",
"314 392 OFFCURVE",
"314 350 CURVE",
"314 308 OFFCURVE",
"348 275 OFFCURVE",
"390 275 CURVE",
"431 275 OFFCURVE",
"465 308 OFFCURVE",
"465 350 CURVE"
);
}
);
width = 759;
}
);
leftKerningGroup = O;
rightKerningGroup = O;
},
{
glyphname = C_Otilde;
lastChange = "2021-08-30 16:22:46 +0000";
layers = (
{
components = (
{
name = tildecomb;
transform = "{1, 0, 0, 1, 170, -28}";
}
);
guideLines = (
{
angle = 90;
position = "{390, 716}";
}
);
layerId = "96BCCF85-5232-4835-A4EF-A1D5F093B6B0";
paths = (
{
closed = 1;
nodes = (
"497 102 OFFCURVE",
"587 168 OFFCURVE",
"622 262 CURVE",
"729 231 LINE",
"680 91 OFFCURVE",
"547 -10 OFFCURVE",
"390 -10 CURVE",
"190 -10 OFFCURVE",
"30 151 OFFCURVE",
"30 350 CURVE",
"30 549 OFFCURVE",
"190 710 OFFCURVE",
"390 710 CURVE",
"547 710 OFFCURVE",
"680 610 OFFCURVE",
"729 470 CURVE",
"622 438 LINE",
"586 532 OFFCURVE",
"497 598 OFFCURVE",
"390 598 CURVE SMOOTH",
"252 598 OFFCURVE",
"140 487 OFFCURVE",
"140 349 CURVE SMOOTH",
"140 211 OFFCURVE",
"252 102 OFFCURVE",
"390 102 CURVE"
);
},
{
closed = 1;
nodes = (
"492 535 OFFCURVE",
"575 452 OFFCURVE",
"575 350 CURVE",
"575 247 OFFCURVE",
"492 164 OFFCURVE",
"390 164 CURVE",
"287 164 OFFCURVE",
"204 247 OFFCURVE",
"204 350 CURVE",
"204 452 OFFCURVE",
"287 535 OFFCURVE",
"390 535 CURVE"
);
},
{
closed = 1;
nodes = (
"465 392 OFFCURVE",
"431 425 OFFCURVE",
"390 425 CURVE",
"348 425 OFFCURVE",
"314 392 OFFCURVE",
"314 350 CURVE",
"314 308 OFFCURVE",
"348 275 OFFCURVE",
"390 275 CURVE",
"431 275 OFFCURVE",
"465 308 OFFCURVE",
"465 350 CURVE"
);
}
);
width = 759;
}
);
leftKerningGroup = O;
rightKerningGroup = O;
},
{
glyphname = C_a;
lastChange = "2021-08-30 16:22:49 +0000";
layers = (
{
components = (
{
name = a;
transform = "{0.6, 0, 0, 0.6, 268, 144}";
}
);
guideLines = (
{
position = "{47, 425}";
},
{
position = "{-3, 275}";
}
);
layerId = "96BCCF85-5232-4835-A4EF-A1D5F093B6B0";
paths = (
{
closed = 1;
nodes = (
"497 102 OFFCURVE",
"587 168 OFFCURVE",
"622 262 CURVE",
"729 231 LINE",
"680 91 OFFCURVE",
"547 -10 OFFCURVE",
"390 -10 CURVE",
"190 -10 OFFCURVE",
"30 151 OFFCURVE",
"30 350 CURVE",
"30 549 OFFCURVE",
"190 710 OFFCURVE",
"390 710 CURVE",
"547 710 OFFCURVE",
"680 610 OFFCURVE",
"729 470 CURVE",
"622 438 LINE",
"586 532 OFFCURVE",
"497 598 OFFCURVE",
"390 598 CURVE SMOOTH",
"252 598 OFFCURVE",
"140 487 OFFCURVE",
"140 349 CURVE SMOOTH",
"140 211 OFFCURVE",
"252 102 OFFCURVE",
"390 102 CURVE"
);
}
);
width = 759;
}
);
leftKerningGroup = O;
rightKerningGroup = O;
},
{
glyphname = C_aacute;
lastChange = "2021-08-30 16:22:51 +0000";
layers = (
{
components = (
{
name = a;
transform = "{0.6, 0, 0, 0.6, 268, 144}";
},
{
name = acutecomb;
transform = "{1, 0, 0, 1, 340, 0}";
}
);
guideLines = (
{
position = "{47, 425}";
},
{
position = "{-3, 275}";
},
{
angle = 90;
position = "{390, 716}";
}
);
layerId = "96BCCF85-5232-4835-A4EF-A1D5F093B6B0";
paths = (
{
closed = 1;
nodes = (
"497 102 OFFCURVE",
"587 168 OFFCURVE",
"622 262 CURVE",
"729 231 LINE",
"680 91 OFFCURVE",
"547 -10 OFFCURVE",
"390 -10 CURVE",
"190 -10 OFFCURVE",
"30 151 OFFCURVE",
"30 350 CURVE",
"30 549 OFFCURVE",
"190 710 OFFCURVE",
"390 710 CURVE",
"547 710 OFFCURVE",
"680 610 OFFCURVE",
"729 470 CURVE",
"622 438 LINE",
"586 532 OFFCURVE",
"497 598 OFFCURVE",
"390 598 CURVE SMOOTH",
"252 598 OFFCURVE",
"140 487 OFFCURVE",
"140 349 CURVE SMOOTH",
"140 211 OFFCURVE",
"252 102 OFFCURVE",
"390 102 CURVE"
);
}
);
width = 759;
}
);
leftKerningGroup = O;
rightKerningGroup = O;
},
{
glyphname = C_agrave;
lastChange = "2021-08-30 16:22:55 +0000";
layers = (
{
components = (
{
name = a;
transform = "{0.6, 0, 0, 0.6, 268, 144}";
},
{
name = gravecomb;
transform = "{1, 0, 0, 1, 281, 0}";
}
);
guideLines = (
{
position = "{47, 425}";
},
{
position = "{-3, 275}";
},
{
angle = 90;
position = "{390, 716}";
}
);
layerId = "96BCCF85-5232-4835-A4EF-A1D5F093B6B0";
paths = (
{
closed = 1;
nodes = (
"497 102 OFFCURVE",
"587 168 OFFCURVE",
"622 262 CURVE",
"729 231 LINE",
"680 91 OFFCURVE",
"547 -10 OFFCURVE",
"390 -10 CURVE",
"190 -10 OFFCURVE",
"30 151 OFFCURVE",
"30 350 CURVE",
"30 549 OFFCURVE",
"190 710 OFFCURVE",
"390 710 CURVE",
"547 710 OFFCURVE",
"680 610 OFFCURVE",
"729 470 CURVE",
"622 438 LINE",
"586 532 OFFCURVE",
"497 598 OFFCURVE",
"390 598 CURVE SMOOTH",
"252 598 OFFCURVE",
"140 487 OFFCURVE",
"140 349 CURVE SMOOTH",
"140 211 OFFCURVE",
"252 102 OFFCURVE",
"390 102 CURVE"
);
}
);
width = 759;
}
);
leftKerningGroup = O;
rightKerningGroup = O;
},
{
glyphname = C_ahookabove;
lastChange = "2021-08-30 16:22:57 +0000";
layers = (
{
components = (
{
name = a;
transform = "{0.6, 0, 0, 0.6, 268, 144}";
},
{
name = hookabovecomb;
transform = "{1, 0, 0, 1, 289, -30}";
}
);
guideLines = (
{
position = "{47, 425}";
},
{
position = "{-3, 275}";
},
{
angle = 90;
position = "{390, 716}";
}
);
layerId = "96BCCF85-5232-4835-A4EF-A1D5F093B6B0";
paths = (
{
closed = 1;
nodes = (
"497 102 OFFCURVE",
"587 168 OFFCURVE",
"622 262 CURVE",
"729 231 LINE",
"680 91 OFFCURVE",
"547 -10 OFFCURVE",
"390 -10 CURVE",
"190 -10 OFFCURVE",
"30 151 OFFCURVE",
"30 350 CURVE",
"30 549 OFFCURVE",
"190 710 OFFCURVE",
"390 710 CURVE",
"547 710 OFFCURVE",
"680 610 OFFCURVE",
"729 470 CURVE",
"622 438 LINE",
"586 532 OFFCURVE",
"497 598 OFFCURVE",
"390 598 CURVE SMOOTH",
"252 598 OFFCURVE",
"140 487 OFFCURVE",
"140 349 CURVE SMOOTH",
"140 211 OFFCURVE",
"252 102 OFFCURVE",
"390 102 CURVE"
);
}
);
width = 759;
}
);
leftKerningGroup = O;
rightKerningGroup = O;
},
{
glyphname = C_atilde;
lastChange = "2021-08-30 16:22:59 +0000";
layers = (
{
components = (
{
name = a;
transform = "{0.6, 0, 0, 0.6, 268, 144}";
},
{
name = tildecomb;
transform = "{1, 0, 0, 1, 170, -28}";
}
);
guideLines = (
{
position = "{47, 425}";
},
{
position = "{-3, 275}";
},
{
angle = 90;
position = "{390, 716}";
}
);
layerId = "96BCCF85-5232-4835-A4EF-A1D5F093B6B0";
paths = (
{
closed = 1;
nodes = (
"497 102 OFFCURVE",
"587 168 OFFCURVE",
"622 262 CURVE",
"729 231 LINE",
"680 91 OFFCURVE",
"547 -10 OFFCURVE",
"390 -10 CURVE",
"190 -10 OFFCURVE",
"30 151 OFFCURVE",
"30 350 CURVE",
"30 549 OFFCURVE",
"190 710 OFFCURVE",
"390 710 CURVE",
"547 710 OFFCURVE",
"680 610 OFFCURVE",
"729 470 CURVE",
"622 438 LINE",
"586 532 OFFCURVE",
"497 598 OFFCURVE",
"390 598 CURVE SMOOTH",
"252 598 OFFCURVE",
"140 487 OFFCURVE",
"140 349 CURVE SMOOTH",
"140 211 OFFCURVE",
"252 102 OFFCURVE",
"390 102 CURVE"
);
}
);
width = 759;
}
);
leftKerningGroup = O;
rightKerningGroup = O;
},
{
glyphname = H_E;
lastChange = "2021-08-30 16:59:26 +0000";
layers = (
{
layerId = "96BCCF85-5232-4835-A4EF-A1D5F093B6B0";
paths = (
{
closed = 1;
nodes = (
"660 570 LINE",
"380 570 LINE",
"380 425 LINE",
"616 425 LINE",
"616 275 LINE",
"380 275 LINE",
"380 129 LINE",
"660 129 LINE",
"660 0 LINE",
"232 0 LINE",
"232 250 LINE",
"179 250 LINE",
"179 0 LINE",
"30 0 LINE",
"30 700 LINE",
"179 700 LINE",
"179 450 LINE",
"232 450 LINE",
"232 700 LINE",
"660 700 LINE"
);
}
);
width = 690;
}
);
leftKerningGroup = H;
leftMetricsKey = B;
rightKerningGroup = H;
},
{
glyphname = L_A;
lastChange = "2021-08-30 16:23:36 +0000";
layers = (
{
layerId = "96BCCF85-5232-4835-A4EF-A1D5F093B6B0";
paths = (
{
closed = 1;
nodes = (
"179 129 LINE",
"548 129 LINE",
"548 0 LINE",
"30 0 LINE",
"30 700 LINE",
"179 700 LINE"
);
},
{
closed = 1;
nodes = (
"399 267 LINE",
"369 267 LINE",
"361 170 LINE",
"220 170 LINE",
"300 700 LINE",
"468 700 LINE",
"548 170 LINE",
"408 170 LINE"
);
},
{
closed = 1;
nodes = (
"394 381 LINE",
"390 549 LINE",
"379 549 LINE",
"374 381 LINE"
);
}
);
width = 578;
}
);
leftKerningGroup = H;
leftMetricsKey = B;
rightKerningGroup = H;
},
{
glyphname = L_E;
lastChange = "2021-08-30 16:23:38 +0000";
layers = (
{
layerId = "96BCCF85-5232-4835-A4EF-A1D5F093B6B0";
paths = (
{
closed = 1;
nodes = (
"332 580 LINE",
"332 495 LINE",
"514 495 LINE",
"514 375 LINE",
"332 375 LINE",
"332 290 LINE",
"548 290 LINE",
"548 170 LINE",
"220 170 LINE",
"220 700 LINE",
"548 700 LINE",
"548 580 LINE"
);
},
{
closed = 1;
nodes = (
"179 129 LINE",
"548 129 LINE",
"548 0 LINE",
"30 0 LINE",
"30 700 LINE",
"179 700 LINE"
);
}
);
width = 578;
}
);
leftKerningGroup = H;
leftMetricsKey = B;
rightKerningGroup = H;
},
{
glyphname = L_I;
lastChange = "2021-08-30 16:23:45 +0000";
layers = (
{
guideLines = (
{
position = "{591, 170}";
},
{
position = "{591, 170}";
},
{
angle = 90;
position = "{548, 316}";
},
{
position = "{548, 316}";
}
);
layerId = "96BCCF85-5232-4835-A4EF-A1D5F093B6B0";
paths = (
{
closed = 1;
nodes = (
"179 129 LINE",
"548 129 LINE",
"548 0 LINE",
"30 0 LINE",
"30 700 LINE",
"179 700 LINE"
);
},
{
closed = 1;
nodes = (
"548 700 LINE",
"548 570 LINE",
"439 570 LINE",
"439 300 LINE",
"548 300 LINE",
"548 170 LINE",
"220 170 LINE",
"220 300 LINE",
"328 300 LINE",
"328 570 LINE",
"220 570 LINE",
"220 700 LINE"
);
}
);
width = 578;
}
);
leftKerningGroup = H;
leftMetricsKey = B;
rightKerningGroup = H;
},
{
glyphname = L_O;
lastChange = "2021-08-30 16:23:48 +0000";
layers = (
{
guideLines = (
{
position = "{591, 170}";
},
{
position = "{480, 160}";
}
);
layerId = "96BCCF85-5232-4835-A4EF-A1D5F093B6B0";
paths = (
{
closed = 1;
nodes = (
"179 129 LINE",
"548 129 LINE",
"548 0 LINE",
"30 0 LINE",
"30 700 LINE",
"179 700 LINE"
);
},
{
closed = 1;
nodes = (
"474 710 OFFCURVE",
"548 636 OFFCURVE",
"548 546 CURVE",
"548 324 LINE",
"548 233 OFFCURVE",
"474 160 OFFCURVE",
"384 160 CURVE",
"293 160 OFFCURVE",
"220 233 OFFCURVE",
"220 324 CURVE",
"220 546 LINE",
"220 636 OFFCURVE",
"293 710 OFFCURVE",
"384 710 CURVE"
);
},
{
closed = 1;
nodes = (
"408 554 LINE",
"408 567 OFFCURVE",
"398 578 OFFCURVE",
"384 578 CURVE",
"370 578 OFFCURVE",
"360 567 OFFCURVE",
"360 554 CURVE",
"360 313 LINE",
"360 300 OFFCURVE",
"370 290 OFFCURVE",
"384 290 CURVE",
"398 290 OFFCURVE",
"408 300 OFFCURVE",
"408 313 CURVE"
);
}
);
width = 578;
}
);
leftKerningGroup = H;
leftMetricsKey = B;
rightKerningGroup = H;
},
{
glyphname = L_U;
lastChange = "2021-08-30 16:23:52 +0000";
layers = (
{
guideLines = (
{
position = "{548, 316}";
},
{
position = "{591, 170}";
},
{
angle = 90;
position = "{548, 316}";
},
{
position = "{548, 316}";
},
{
position = "{480, 160}";
}
);
layerId = "96BCCF85-5232-4835-A4EF-A1D5F093B6B0";
paths = (
{
closed = 1;
nodes = (
"179 129 LINE",
"548 129 LINE",
"548 0 LINE",
"30 0 LINE",
"30 700 LINE",
"179 700 LINE"
);
},
{
closed = 1;
nodes = (
"548 700 LINE",
"548 324 LINE",
"548 233 OFFCURVE",
"475 160 OFFCURVE",
"384 160 CURVE",
"293 160 OFFCURVE",
"219 233 OFFCURVE",
"219 324 CURVE",
"219 700 LINE",
"359 700 LINE",
"359 315 LINE",
"359 301 OFFCURVE",
"371 290 OFFCURVE",
"384 290 CURVE",
"398 290 OFFCURVE",
"409 301 OFFCURVE",
"409 315 CURVE",
"409 700 LINE"
);
}
);
width = 578;
}
);
leftKerningGroup = H;
leftMetricsKey = B;
rightKerningGroup = H;
rightMetricsKey = H;
},
{
glyphname = L_Y;
lastChange = "2021-08-30 16:23:54 +0000";
layers = (
{
guideLines = (
{
position = "{212, 167}";
}
);
layerId = "96BCCF85-5232-4835-A4EF-A1D5F093B6B0";
paths = (
{
closed = 1;
nodes = (
"404 502 LINE",
"423 700 LINE",
"574 700 LINE",
"574 689 LINE",
"471 316 LINE",
"471 167 LINE",
"322 167 LINE",
"322 316 LINE",
"220 689 LINE",
"220 700 LINE",
"369 700 LINE",
"391 502 LINE"
);
},
{
closed = 1;
nodes = (
"179 129 LINE",
"574 129 LINE",
"574 0 LINE",
"30 0 LINE",
"30 700 LINE",
"179 700 LINE"
);
}
);
width = 604;
}
);
leftKerningGroup = H;
leftMetricsKey = B;
rightKerningGroup = H;
},
{
glyphname = L_a;
lastChange = "2021-08-30 16:23:57 +0000";
layers = (
{
layerId = "96BCCF85-5232-4835-A4EF-A1D5F093B6B0";
paths = (
{
closed = 1;
nodes = (
"179 129 LINE",
"486 129 LINE",
"486 0 LINE",
"30 0 LINE",
"30 700 LINE",
"179 700 LINE"
);
},
{
closed = 1;
nodes = (
"427 710 OFFCURVE",
"486 651 OFFCURVE",
"486 577 CURVE",
"486 172 LINE",
"406 172 LINE",
"406 199 LINE",
"399 199 LINE",
"388 176 OFFCURVE",
"361 164 OFFCURVE",
"339 164 CURVE",
"266 164 OFFCURVE",
"221 223 OFFCURVE",
"221 297 CURVE",
"221 371 LINE",
"221 444 OFFCURVE",
"280 504 OFFCURVE",
"353 504 CURVE",
"374 504 LINE",
"374 601 LINE",
"374 611 OFFCURVE",
"364 620 OFFCURVE",
"353 620 CURVE",
"342 620 OFFCURVE",
"333 611 OFFCURVE",
"333 601 CURVE",
"333 524 LINE",
"221 524 LINE",
"221 577 LINE",
"221 651 OFFCURVE",
"280 710 OFFCURVE",
"353 710 CURVE"
);
},
{
closed = 1;
nodes = (
"364 270 OFFCURVE",
"374 278 OFFCURVE",
"374 289 CURVE",
"374 390 LINE",
"353 390 LINE",
"342 390 OFFCURVE",
"333 382 OFFCURVE",
"333 370 CURVE",
"333 289 LINE",
"333 278 OFFCURVE",
"342 270 OFFCURVE",
"353 270 CURVE"
);
}
);
width = 516;
}
);
leftKerningGroup = H;
leftMetricsKey = B;
rightKerningGroup = H;
rightMetricsKey = H;
},
{
glyphname = L_e;
lastChange = "2021-08-30 16:23:58 +0000";
layers = (
{
guideLines = (
{
position = "{480, 160}";
}
);
layerId = "96BCCF85-5232-4835-A4EF-A1D5F093B6B0";
paths = (
{
closed = 1;
nodes = (
"179 129 LINE",
"495 129 LINE",
"495 0 LINE",
"30 0 LINE",
"30 700 LINE",
"179 700 LINE"
);
},
{
closed = 1;
nodes = (
"433 710 OFFCURVE",
"495 649 OFFCURVE",
"495 573 CURVE",
"495 404 LINE",
"337 404 LINE",
"337 282 LINE",
"337 271 OFFCURVE",
"345 261 OFFCURVE",
"357 261 CURVE",
"368 261 OFFCURVE",
"377 271 OFFCURVE",
"377 282 CURVE",
"377 364 LINE",
"495 364 LINE",
"495 289 LINE",
"491 217 OFFCURVE",
"430 160 OFFCURVE",
"357 160 CURVE",
"281 160 OFFCURVE",
"220 221 OFFCURVE",
"220 298 CURVE",
"220 573 LINE",
"220 649 OFFCURVE",
"281 710 OFFCURVE",
"357 710 CURVE"
);
},
{
closed = 1;
nodes = (
"377 588 LINE",
"377 599 OFFCURVE",
"368 608 OFFCURVE",
"357 608 CURVE",
"345 608 OFFCURVE",
"337 599 OFFCURVE",
"337 588 CURVE",
"337 507 LINE",
"377 507 LINE"
);
}
);
width = 525;
}
);
leftKerningGroup = H;
leftMetricsKey = B;
rightKerningGroup = H;
},
{
glyphname = N_H;
lastChange = "2021-08-30 17:00:27 +0000";
layers = (
{
layerId = "96BCCF85-5232-4835-A4EF-A1D5F093B6B0";
paths = (
{
closed = 1;
nodes = (
"610 0 LINE",
"462 0 LINE",
"462 251 LINE",
"409 251 LINE",
"409 0 LINE",
"260 0 LINE",
"175 275 LINE",
"160 275 LINE",
"160 0 LINE",
"30 0 LINE",
"30 700 LINE",
"150 700 LINE",
"235 425 LINE",
"250 425 LINE",
"250 700 LINE",
"409 700 LINE",
"409 450 LINE",
"462 450 LINE",
"462 700 LINE",
"610 700 LINE"
);
}
);
width = 640;
}
);
leftKerningGroup = H;
leftMetricsKey = B;
rightKerningGroup = H;
rightMetricsKey = H;
},
{
glyphname = O_A;
lastChange = "2021-08-30 16:24:07 +0000";
layers = (
{
components = (
{
name = O.big;
}
);
layerId = "96BCCF85-5232-4835-A4EF-A1D5F093B6B0";
paths = (
{
closed = 1;
nodes = (
"428 269 LINE",
"353 269 LINE",
"331 204 LINE",
"215 204 LINE",
"336 554 LINE",
"444 554 LINE",
"565 204 LINE",
"450 204 LINE"
);
},
{
closed = 1;
nodes = (
"412 340 LINE",
"395 419 LINE",
"386 419 LINE",
"369 340 LINE"
);
}
);
width = 780;
}
);
leftKerningGroup = O;
rightKerningGroup = O;
},
{
glyphname = O_Aacute;
lastChange = "2021-08-30 16:24:09 +0000";
layers = (
{
components = (
{
name = acutecomb;
transform = "{1, 0, 0, 1, 340, 0}";
},
{
name = O.big;
}
);
guideLines = (
{
angle = 90;
position = "{390, 716}";
}
);
layerId = "96BCCF85-5232-4835-A4EF-A1D5F093B6B0";
paths = (
{
closed = 1;
nodes = (
"428 269 LINE",
"353 269 LINE",
"331 204 LINE",
"215 204 LINE",
"336 554 LINE",
"444 554 LINE",
"565 204 LINE",
"450 204 LINE"
);
},
{
closed = 1;
nodes = (
"412 340 LINE",
"395 419 LINE",
"386 419 LINE",
"369 340 LINE"
);
}
);
width = 780;
}
);
leftKerningGroup = O;
rightKerningGroup = O;
},
{
glyphname = O_Agrave;
lastChange = "2021-08-30 16:24:14 +0000";
layers = (
{
components = (
{
name = gravecomb;
transform = "{1, 0, 0, 1, 281, 0}";
},
{
name = O.big;
}
);
guideLines = (
{
angle = 90;
position = "{390, 716}";
}
);
layerId = "96BCCF85-5232-4835-A4EF-A1D5F093B6B0";
paths = (
{
closed = 1;
nodes = (
"428 269 LINE",
"353 269 LINE",
"331 204 LINE",
"215 204 LINE",
"336 554 LINE",
"444 554 LINE",
"565 204 LINE",
"450 204 LINE"
);
},
{
closed = 1;
nodes = (
"412 340 LINE",
"395 419 LINE",
"386 419 LINE",
"369 340 LINE"
);
}
);
width = 780;
}
);
leftKerningGroup = O;
rightKerningGroup = O;
},
{
glyphname = O_Ahookabove;
lastChange = "2021-08-30 16:24:16 +0000";
layers = (
{
components = (
{
name = hookabovecomb;
transform = "{1, 0, 0, 1, 289, -30}";
},
{
name = O.big;
}
);
guideLines = (
{
angle = 90;
position = "{390, 716}";
}
);
layerId = "96BCCF85-5232-4835-A4EF-A1D5F093B6B0";
paths = (
{
closed = 1;
nodes = (
"428 269 LINE",
"353 269 LINE",
"331 204 LINE",
"215 204 LINE",
"336 554 LINE",
"444 554 LINE",
"565 204 LINE",
"450 204 LINE"
);
},
{
closed = 1;
nodes = (
"412 340 LINE",
"395 419 LINE",
"386 419 LINE",
"369 340 LINE"
);
}
);
width = 780;
}
);
leftKerningGroup = O;
rightKerningGroup = O;
},
{
glyphname = O_Atilde;
lastChange = "2021-08-30 16:24:19 +0000";
layers = (
{
components = (
{
name = tildecomb;
transform = "{1, 0, 0, 1, 170, -28}";
},
{
name = O.big;
}
);
guideLines = (
{
angle = 90;
position = "{390, 716}";
}
);
layerId = "96BCCF85-5232-4835-A4EF-A1D5F093B6B0";
paths = (
{
closed = 1;
nodes = (
"428 269 LINE",
"353 269 LINE",
"331 204 LINE",
"215 204 LINE",
"336 554 LINE",
"444 554 LINE",
"565 204 LINE",
"450 204 LINE"
);
},
{
closed = 1;
nodes = (
"412 340 LINE",
"395 419 LINE",
"386 419 LINE",
"369 340 LINE"
);
}
);
width = 780;
}
);
leftKerningGroup = O;
rightKerningGroup = O;
},
{
glyphname = O_I;
lastChange = "2021-08-30 16:24:22 +0000";
layers = (
{
components = (
{
name = O.big;
}
);
layerId = "96BCCF85-5232-4835-A4EF-A1D5F093B6B0";
paths = (
{
closed = 1;
nodes = (
"440 425 LINE",
"440 275 LINE",
"489 275 LINE",
"489 175 LINE",
"291 175 LINE",
"291 275 LINE",
"340 275 LINE",
"340 425 LINE",
"291 425 LINE",
"291 525 LINE",
"489 525 LINE",
"489 425 LINE"
);
}
);
width = 780;
}
);
leftKerningGroup = O;
rightKerningGroup = O;
},
{
glyphname = O_O;
lastChange = "2021-09-16 16:20:10 +0000";
layers = (
{
guideLines = (
{
angle = 90;
position = "{477, 797}";
}
);
layerId = "96BCCF85-5232-4835-A4EF-A1D5F093B6B0";
paths = (
{
closed = 1;
nodes = (
"853 122 OFFCURVE",
"948 220 OFFCURVE",
"948 350 CURVE",
"948 482 OFFCURVE",
"853 580 OFFCURVE",
"720 580 CURVE",
"704 580 OFFCURVE",
"689 579 OFFCURVE",
"675 576 CURVE",
"723 515 OFFCURVE",
"750 437 OFFCURVE",
"750 350 CURVE",
"750 264 OFFCURVE",
"723 186 OFFCURVE",
"676 126 CURVE",
"690 123 OFFCURVE",
"705 122 OFFCURVE",
"720 122 CURVE"
);
},
{
closed = 1;
nodes = (
"160 220 OFFCURVE",
"255 122 OFFCURVE",
"390 122 CURVE",
"405 122 OFFCURVE",
"419 123 OFFCURVE",
"433 126 CURVE",
"387 186 OFFCURVE",
"360 264 OFFCURVE",
"360 350 CURVE",
"360 437 OFFCURVE",
"387 515 OFFCURVE",
"435 576 CURVE",
"420 579 OFFCURVE",
"405 580 OFFCURVE",
"390 580 CURVE",
"255 580 OFFCURVE",
"160 482 OFFCURVE",
"160 350 CURVE"
);
},
{
closed = 1;
nodes = (
"594 228 OFFCURVE",
"618 285 OFFCURVE",
"618 350 CURVE",
"618 416 OFFCURVE",
"594 473 OFFCURVE",
"554 514 CURVE",
"514 473 OFFCURVE",
"490 416 OFFCURVE",
"490 350 CURVE",
"490 285 OFFCURVE",
"514 228 OFFCURVE",
"554 188 CURVE"
);
},
{
closed = 1;
nodes = (
"929 710 OFFCURVE",
"1080 554 OFFCURVE",
"1080 350 CURVE",
"1080 146 OFFCURVE",
"929 -10 OFFCURVE",
"720 -10 CURVE",
"659 -10 OFFCURVE",
"603 3 OFFCURVE",
"555 27 CURVE",
"506 3 OFFCURVE",
"451 -10 OFFCURVE",
"390 -10 CURVE",
"180 -10 OFFCURVE",
"30 146 OFFCURVE",
"30 350 CURVE",
"30 554 OFFCURVE",
"180 710 OFFCURVE",
"390 710 CURVE",
"451 710 OFFCURVE",
"506 697 OFFCURVE",
"555 673 CURVE",
"603 697 OFFCURVE",
"659 710 OFFCURVE",
"720 710 CURVE"
);
}
);
width = 1110;
}
);
leftKerningGroup = O;
rightKerningGroup = O;
},
{
glyphname = O_e;
lastChange = "2021-08-30 16:24:29 +0000";
layers = (
{
components = (
{
name = O.big;
}
);
layerId = "96BCCF85-5232-4835-A4EF-A1D5F093B6B0";
paths = (
{
closed = 1;
nodes = (
"577 317 LINE",
"309 317 LINE",
"320 292 OFFCURVE",
"348 264 OFFCURVE",
"391 264 CURVE",
"426 264 OFFCURVE",
"451 285 OFFCURVE",
"455 292 CURVE",
"551 260 LINE",
"551 252 LINE",
"519 185 OFFCURVE",
"458 164 OFFCURVE",
"391 164 CURVE",
"288 164 OFFCURVE",
"204 247 OFFCURVE",
"204 350 CURVE",
"204 455 OFFCURVE",
"289 537 OFFCURVE",
"391 537 CURVE",
"493 537 OFFCURVE",
"577 454 OFFCURVE",
"577 350 CURVE"
);
},
{
closed = 1;
nodes = (
"473 379 LINE",
"463 408 OFFCURVE",
"434 438 OFFCURVE",
"391 438 CURVE",
"347 438 OFFCURVE",
"318 407 OFFCURVE",
"308 379 CURVE"
);
}
);
width = 780;
}
);
leftKerningGroup = O;
rightKerningGroup = O;
},
{
glyphname = Oacute_C;
lastChange = "2021-09-16 16:20:06 +0000";
layers = (
{
components = (
{
name = acutecomb;
transform = "{1, 0, 0, 1, 340, 0}";
}
);
guideLines = (
{
angle = 90;
position = "{390, 716}";
}
);
layerId = "96BCCF85-5232-4835-A4EF-A1D5F093B6B0";
paths = (
{
closed = 1;
nodes = (
"160 220 OFFCURVE",
"255 122 OFFCURVE",
"390 122 CURVE",
"413 122 OFFCURVE",
"434 125 OFFCURVE",
"454 130 CURVE",
"408 191 OFFCURVE",
"380 267 OFFCURVE",
"380 350 CURVE",
"380 434 OFFCURVE",
"408 510 OFFCURVE",
"456 571 CURVE",
"435 577 OFFCURVE",
"413 580 OFFCURVE",
"390 580 CURVE",
"255 580 OFFCURVE",
"160 482 OFFCURVE",
"160 350 CURVE"
);
},
{
closed = 1;
nodes = (
"497 288 OFFCURVE",
"520 233 OFFCURVE",
"557 191 CURVE",
"596 231 OFFCURVE",
"618 287 OFFCURVE",
"618 350 CURVE",
"618 413 OFFCURVE",
"596 469 OFFCURVE",
"559 510 CURVE",
"520 467 OFFCURVE",
"497 411 OFFCURVE",
"497 349 CURVE"
);
},
{
closed = 1;
nodes = (
"843 110 OFFCURVE",
"931 173 OFFCURVE",
"965 265 CURVE",
"1079 231 LINE",
"1030 91 OFFCURVE",
"897 -10 OFFCURVE",
"740 -10 CURVE",
"678 -10 OFFCURVE",
"619 6 OFFCURVE",
"568 33 CURVE",
"516 6 OFFCURVE",
"456 -10 OFFCURVE",
"390 -10 CURVE",
"180 -10 OFFCURVE",
"30 146 OFFCURVE",
"30 350 CURVE",
"30 554 OFFCURVE",
"180 710 OFFCURVE",
"390 710 CURVE",
"456 710 OFFCURVE",
"516 694 OFFCURVE",
"568 667 CURVE",
"619 694 OFFCURVE",
"678 710 OFFCURVE",
"740 710 CURVE",
"897 710 OFFCURVE",
"1030 610 OFFCURVE",
"1079 470 CURVE",
"965 435 LINE",
"930 527 OFFCURVE",
"843 590 OFFCURVE",
"740 590 CURVE",
"716 590 OFFCURVE",
"693 587 OFFCURVE",
"672 580 CURVE",
"721 519 OFFCURVE",
"750 439 OFFCURVE",
"750 350 CURVE",
"750 261 OFFCURVE",
"721 181 OFFCURVE",
"672 119 CURVE",
"693 113 OFFCURVE",
"716 110 OFFCURVE",
"740 110 CURVE"
);
}
);
width = 1109;
}
);
leftKerningGroup = O;
rightKerningGroup = O;
},
{
glyphname = Oacute_E;
lastChange = "2021-09-07 16:39:51 +0000";
layers = (
{
components = (
{
name = acutecomb;
transform = "{1, 0, 0, 1, 340, 0}";
}
);
guideLines = (
{
angle = 90;
position = "{390, 716}";
}
);
layerId = "96BCCF85-5232-4835-A4EF-A1D5F093B6B0";
paths = (
{
closed = 1;
nodes = (
"150 214 OFFCURVE",
"250 112 OFFCURVE",
"390 112 CURVE",
"529 112 OFFCURVE",
"628 214 OFFCURVE",
"628 350 CURVE",
"628 486 OFFCURVE",
"529 590 OFFCURVE",
"390 590 CURVE",
"250 590 OFFCURVE",
"150 486 OFFCURVE",
"150 350 CURVE"
);
},
{
closed = 1;
nodes = (
"711 528 OFFCURVE",
"732 479 OFFCURVE",
"743 425 CURVE",
"914 425 LINE",
"914 275 LINE",
"743 275 LINE",
"732 220 OFFCURVE",
"710 171 OFFCURVE",
"679 129 CURVE",
"958 129 LINE",
"958 0 LINE",
"479 0 LINE",
"451 -7 OFFCURVE",
"421 -10 OFFCURVE",
"390 -10 CURVE",
"180 -10 OFFCURVE",
"30 146 OFFCURVE",
"30 350 CURVE",
"30 554 OFFCURVE",
"180 710 OFFCURVE",
"390 710 CURVE",
"421 710 OFFCURVE",
"451 707 OFFCURVE",
"479 700 CURVE",
"958 700 LINE",
"958 570 LINE",
"680 570 LINE"
);
}
);
width = 988;
}
);
leftKerningGroup = O;
rightKerningGroup = e;
},
{
glyphname = Oacute_I;
lastChange = "2021-08-30 16:25:03 +0000";
layers = (
{
components = (
{
name = acutecomb;
transform = "{1, 0, 0, 1, 340, 0}";
},
{
name = O.big;
}
);
guideLines = (
{
angle = 90;
position = "{390, 716}";
}
);
layerId = "96BCCF85-5232-4835-A4EF-A1D5F093B6B0";
paths = (
{
closed = 1;
nodes = (
"440 425 LINE",
"440 275 LINE",
"489 275 LINE",
"489 175 LINE",
"291 175 LINE",
"291 275 LINE",
"340 275 LINE",
"340 425 LINE",
"291 425 LINE",
"291 525 LINE",
"489 525 LINE",
"489 425 LINE"
);
}
);
width = 780;
}
);
leftKerningGroup = O;
rightKerningGroup = O;
},
{
glyphname = Ocircumflexacute_C;
lastChange = "2021-09-16 16:20:01 +0000";
layers = (
{
components = (
{
name = circumflexcomb_acutecomb;
transform = "{1, 0, 0, 1, 87, -20}";
}
);
guideLines = (
{
angle = 90;
position = "{390, 716}";
}
);
layerId = "96BCCF85-5232-4835-A4EF-A1D5F093B6B0";
paths = (
{
closed = 1;
nodes = (
"160 220 OFFCURVE",
"255 122 OFFCURVE",
"390 122 CURVE",
"413 122 OFFCURVE",
"434 125 OFFCURVE",
"454 130 CURVE",
"408 191 OFFCURVE",
"380 267 OFFCURVE",
"380 350 CURVE",
"380 434 OFFCURVE",
"408 510 OFFCURVE",
"456 571 CURVE",
"435 577 OFFCURVE",
"413 580 OFFCURVE",
"390 580 CURVE",
"255 580 OFFCURVE",
"160 482 OFFCURVE",
"160 350 CURVE"
);
},
{
closed = 1;
nodes = (
"497 288 OFFCURVE",
"520 233 OFFCURVE",
"557 191 CURVE",
"596 231 OFFCURVE",
"618 287 OFFCURVE",
"618 350 CURVE",
"618 413 OFFCURVE",
"596 469 OFFCURVE",
"559 510 CURVE",
"520 467 OFFCURVE",
"497 411 OFFCURVE",
"497 349 CURVE"
);
},
{
closed = 1;
nodes = (
"843 110 OFFCURVE",
"931 173 OFFCURVE",
"965 265 CURVE",
"1079 231 LINE",
"1030 91 OFFCURVE",
"897 -10 OFFCURVE",
"740 -10 CURVE",
"678 -10 OFFCURVE",
"619 6 OFFCURVE",
"568 33 CURVE",
"516 6 OFFCURVE",
"456 -10 OFFCURVE",
"390 -10 CURVE",
"180 -10 OFFCURVE",
"30 146 OFFCURVE",
"30 350 CURVE",
"30 554 OFFCURVE",
"180 710 OFFCURVE",
"390 710 CURVE",
"456 710 OFFCURVE",
"516 694 OFFCURVE",
"568 667 CURVE",
"619 694 OFFCURVE",
"678 710 OFFCURVE",
"740 710 CURVE",
"897 710 OFFCURVE",
"1030 610 OFFCURVE",
"1079 470 CURVE",
"965 435 LINE",
"930 527 OFFCURVE",
"843 590 OFFCURVE",
"740 590 CURVE",
"716 590 OFFCURVE",
"693 587 OFFCURVE",
"672 580 CURVE",
"721 519 OFFCURVE",
"750 439 OFFCURVE",
"750 350 CURVE",
"750 261 OFFCURVE",
"721 181 OFFCURVE",
"672 119 CURVE",
"693 113 OFFCURVE",
"716 110 OFFCURVE",
"740 110 CURVE"
);
}
);
width = 1109;
}
);
leftKerningGroup = O;
rightKerningGroup = O;
},
{
glyphname = Ograve_E;
lastChange = "2021-09-07 16:39:24 +0000";
layers = (
{
components = (
{
name = gravecomb;
transform = "{1, 0, 0, 1, 282, 0}";
}
);
guideLines = (
{
angle = 90;
position = "{390, 716}";
}
);
layerId = "96BCCF85-5232-4835-A4EF-A1D5F093B6B0";
paths = (
{
closed = 1;
nodes = (
"150 486 OFFCURVE",
"250 590 OFFCURVE",
"390 590 CURVE",
"529 590 OFFCURVE",
"628 486 OFFCURVE",
"628 350 CURVE",
"628 214 OFFCURVE",
"529 112 OFFCURVE",
"390 112 CURVE",
"250 112 OFFCURVE",
"150 214 OFFCURVE",
"150 350 CURVE"
);
},
{
closed = 1;
nodes = (
"958 570 LINE",
"958 700 LINE",
"479 700 LINE",
"451 707 OFFCURVE",
"421 710 OFFCURVE",
"390 710 CURVE",
"180 710 OFFCURVE",
"30 554 OFFCURVE",
"30 350 CURVE",
"30 146 OFFCURVE",
"180 -10 OFFCURVE",
"390 -10 CURVE",
"421 -10 OFFCURVE",
"451 -7 OFFCURVE",
"479 0 CURVE",
"958 0 LINE",
"958 129 LINE",
"679 129 LINE",
"710 171 OFFCURVE",
"732 220 OFFCURVE",
"743 275 CURVE",
"914 275 LINE",
"914 425 LINE",
"743 425 LINE",
"732 479 OFFCURVE",
"711 528 OFFCURVE",
"680 570 CURVE"
);
}
);
width = 988;
}
);
leftKerningGroup = O;
rightKerningGroup = e;
},
{
glyphname = Ograve_I;
lastChange = "2021-08-30 16:25:14 +0000";
layers = (
{
components = (
{
name = gravecomb;
transform = "{1, 0, 0, 1, 282, 0}";
},
{
name = O.big;
}
);
guideLines = (
{
angle = 90;
position = "{390, 716}";
}
);
layerId = "96BCCF85-5232-4835-A4EF-A1D5F093B6B0";
paths = (
{
closed = 1;
nodes = (
"440 425 LINE",
"440 275 LINE",
"489 275 LINE",
"489 175 LINE",
"291 175 LINE",
"291 275 LINE",
"340 275 LINE",
"340 425 LINE",
"291 425 LINE",
"291 525 LINE",
"489 525 LINE",
"489 425 LINE"
);
}
);
width = 780;
}
);
leftKerningGroup = O;
rightKerningGroup = O;
},
{
glyphname = Ohookabove_E;
lastChange = "2021-09-07 16:39:42 +0000";
layers = (
{
components = (
{
name = hookabovecomb;
transform = "{1, 0, 0, 1, 289, -30}";
}
);
guideLines = (
{
angle = 90;
position = "{390, 716}";
}
);
layerId = "96BCCF85-5232-4835-A4EF-A1D5F093B6B0";
paths = (
{
closed = 1;
nodes = (
"150 486 OFFCURVE",
"250 590 OFFCURVE",
"390 590 CURVE",
"529 590 OFFCURVE",
"628 486 OFFCURVE",
"628 350 CURVE",
"628 214 OFFCURVE",
"529 112 OFFCURVE",
"390 112 CURVE",
"250 112 OFFCURVE",
"150 214 OFFCURVE",
"150 350 CURVE"
);
},
{
closed = 1;
nodes = (
"958 570 LINE",
"958 700 LINE",
"479 700 LINE",
"451 707 OFFCURVE",
"421 710 OFFCURVE",
"390 710 CURVE",
"180 710 OFFCURVE",
"30 554 OFFCURVE",
"30 350 CURVE",
"30 146 OFFCURVE",
"180 -10 OFFCURVE",
"390 -10 CURVE",
"421 -10 OFFCURVE",
"451 -7 OFFCURVE",
"479 0 CURVE",
"958 0 LINE",
"958 129 LINE",
"679 129 LINE",
"710 171 OFFCURVE",
"732 220 OFFCURVE",
"743 275 CURVE",
"914 275 LINE",
"914 425 LINE",
"743 425 LINE",
"732 479 OFFCURVE",
"711 528 OFFCURVE",
"680 570 CURVE"
);
}
);
width = 988;
}
);
leftKerningGroup = O;
rightKerningGroup = e;
},
{
glyphname = Ohookabove_I;
lastChange = "2021-08-30 16:25:21 +0000";
layers = (
{
components = (
{
name = hookabovecomb;
transform = "{1, 0, 0, 1, 289, -30}";
},
{
name = O.big;
}
);
guideLines = (
{
angle = 90;
position = "{390, 716}";
}
);
layerId = "96BCCF85-5232-4835-A4EF-A1D5F093B6B0";
paths = (
{
closed = 1;
nodes = (
"440 425 LINE",
"440 275 LINE",
"489 275 LINE",
"489 175 LINE",
"291 175 LINE",
"291 275 LINE",
"340 275 LINE",
"340 425 LINE",
"291 425 LINE",
"291 525 LINE",
"489 525 LINE",
"489 425 LINE"
);
}
);
width = 780;
}
);
leftKerningGroup = O;
rightKerningGroup = O;
},
{
glyphname = Otilde_E;
lastChange = "2021-09-07 16:39:45 +0000";
layers = (
{
components = (
{
name = tildecomb;
transform = "{1, 0, 0, 1, 170, -28}";
}
);
guideLines = (
{
angle = 90;
position = "{390, 716}";
}
);
layerId = "96BCCF85-5232-4835-A4EF-A1D5F093B6B0";
paths = (
{
closed = 1;
nodes = (
"150 486 OFFCURVE",
"250 590 OFFCURVE",
"390 590 CURVE",
"529 590 OFFCURVE",
"628 486 OFFCURVE",
"628 350 CURVE",
"628 214 OFFCURVE",
"529 112 OFFCURVE",
"390 112 CURVE",
"250 112 OFFCURVE",
"150 214 OFFCURVE",
"150 350 CURVE"
);
},
{
closed = 1;
nodes = (
"958 570 LINE",
"958 700 LINE",
"479 700 LINE",
"451 707 OFFCURVE",
"421 710 OFFCURVE",
"390 710 CURVE",
"180 710 OFFCURVE",
"30 554 OFFCURVE",
"30 350 CURVE",
"30 146 OFFCURVE",
"180 -10 OFFCURVE",
"390 -10 CURVE",
"421 -10 OFFCURVE",
"451 -7 OFFCURVE",
"479 0 CURVE",
"958 0 LINE",
"958 129 LINE",
"679 129 LINE",
"710 171 OFFCURVE",
"732 220 OFFCURVE",
"743 275 CURVE",
"914 275 LINE",
"914 425 LINE",
"743 425 LINE",
"732 479 OFFCURVE",
"711 528 OFFCURVE",
"680 570 CURVE"
);
}
);
width = 988;
}
);
leftKerningGroup = O;
rightKerningGroup = e;
},
{
glyphname = Otilde_I;
lastChange = "2021-08-30 16:25:28 +0000";
layers = (
{
components = (
{
name = tildecomb;
transform = "{1, 0, 0, 1, 170, -28}";
},
{
name = O.big;
}
);
guideLines = (
{
angle = 90;
position = "{390, 716}";
}
);
layerId = "96BCCF85-5232-4835-A4EF-A1D5F093B6B0";
paths = (
{
closed = 1;
nodes = (
"440 425 LINE",
"440 275 LINE",
"489 275 LINE",
"489 175 LINE",
"291 175 LINE",
"291 275 LINE",
"340 275 LINE",
"340 425 LINE",
"291 425 LINE",
"291 525 LINE",
"489 525 LINE",
"489 425 LINE"
);
}
);
width = 780;
}
);
leftKerningGroup = O;
rightKerningGroup = O;
},
{
glyphname = P_H;
lastChange = "2021-08-30 16:25:34 +0000";
layers = (
{
guideLines = (
{
position = "{181, 519}";
}
);
layerId = "96BCCF85-5232-4835-A4EF-A1D5F093B6B0";
paths = (
{
closed = 1;
nodes = (
"548 298 LINE",
"548 0 LINE",
"418 0 LINE",
"418 89 LINE",
"352 89 LINE",
"352 0 LINE",
"222 0 LINE",
"222 298 LINE",
"352 298 LINE",
"352 209 LINE",
"418 209 LINE",
"418 298 LINE"
);
},
{
closed = 1;
nodes = (
"510 700 OFFCURVE",
"598 634 OFFCURVE",
"598 527 CURVE",
"598 527 OFFCURVE",
"598 510 OFFCURVE",
"598 510 CURVE SMOOTH",
"597 402 OFFCURVE",
"519 339 OFFCURVE",
"403 339 CURVE SMOOTH",
"179 339 LINE",
"179 0 LINE",
"30 0 LINE",
"30 700 LINE",
"403 700 LINE"
);
},
{
closed = 1;
nodes = (
"405 469 OFFCURVE",
"448 479 OFFCURVE",
"448 516 CURVE",
"448 523 LINE",
"448 560 OFFCURVE",
"405 570 OFFCURVE",
"379 570 CURVE",
"179 570 LINE",
"179 469 LINE",
"379 469 LINE"
);
}
);
width = 628;
}
);
leftKerningGroup = H;
leftMetricsKey = B;
rightKerningGroup = G;
},
{
glyphname = R_A;
lastChange = "2021-08-30 16:25:38 +0000";
layers = (
{
guideLines = (
{
position = "{544, 170}";
}
);
layerId = "96BCCF85-5232-4835-A4EF-A1D5F093B6B0";
paths = (
{
closed = 1;
nodes = (
"576 267 LINE",
"531 267 LINE",
"519 170 LINE",
"390 170 LINE",
"470 700 LINE",
"638 700 LINE",
"718 170 LINE",
"590 170 LINE"
);
},
{
closed = 1;
nodes = (
"569 381 LINE",
"563 549 LINE",
"546 549 LINE",
"539 381 LINE"
);
},
{
closed = 1;
nodes = (
"380 351 OFFCURVE",
"366 288 OFFCURVE",
"318 244 CURVE",
"331 181 LINE SMOOTH",
"337 150 OFFCURVE",
"367 129 OFFCURVE",
"399 129 CURVE SMOOTH",
"718 129 LINE",
"718 0 LINE",
"375 0 LINE SMOOTH",
"290 0 OFFCURVE",
"217 59 OFFCURVE",
"199 142 CURVE SMOOTH",
"188 193 LINE",
"179 193 LINE",
"179 0 LINE",
"30 0 LINE",
"30 700 LINE",
"183 700 LINE",
"291 700 OFFCURVE",
"380 612 OFFCURVE",
"380 503 CURVE",
"380 386 LINE"
);
},
{
closed = 1;
nodes = (
"211 322 OFFCURVE",
"230 328 OFFCURVE",
"230 386 CURVE",
"230 506 LINE",
"230 562 OFFCURVE",
"211 570 OFFCURVE",
"187 570 CURVE",
"179 570 LINE",
"179 322 LINE",
"187 322 LINE"
);
}
);
width = 748;
}
);
leftKerningGroup = H;
leftMetricsKey = B;
rightKerningGroup = H;
},
{
glyphname = R_E;
lastChange = "2021-08-30 16:25:40 +0000";
layers = (
{
guideLines = (
{
position = "{564, 170}";
}
);
layerId = "96BCCF85-5232-4835-A4EF-A1D5F093B6B0";
paths = (
{
closed = 1;
nodes = (
"380 351 OFFCURVE",
"366 288 OFFCURVE",
"318 244 CURVE",
"331 181 LINE SMOOTH",
"337 150 OFFCURVE",
"367 129 OFFCURVE",
"399 129 CURVE SMOOTH",
"748 129 LINE",
"748 0 LINE",
"375 0 LINE SMOOTH",
"290 0 OFFCURVE",
"217 59 OFFCURVE",
"199 142 CURVE SMOOTH",
"188 193 LINE",
"179 193 LINE",
"179 0 LINE",
"30 0 LINE",
"30 700 LINE",
"183 700 LINE",
"291 700 OFFCURVE",
"380 612 OFFCURVE",
"380 503 CURVE",
"380 386 LINE"
);
},
{
closed = 1;
nodes = (
"211 322 OFFCURVE",
"230 328 OFFCURVE",
"230 386 CURVE",
"230 506 LINE",
"230 562 OFFCURVE",
"211 570 OFFCURVE",
"187 570 CURVE",
"179 570 LINE",
"179 322 LINE",
"187 322 LINE"
);
},
{
closed = 1;
nodes = (
"532 580 LINE",
"532 495 LINE",
"714 495 LINE",
"714 375 LINE",
"532 375 LINE",
"532 290 LINE",
"748 290 LINE",
"748 170 LINE",
"420 170 LINE",
"420 700 LINE",
"748 700 LINE",
"748 580 LINE"
);
}
);
width = 778;
}
);
leftKerningGroup = H;
leftMetricsKey = B;
rightKerningGroup = H;
},
{
glyphname = R_I;
lastChange = "2021-08-30 16:25:46 +0000";
layers = (
{
layerId = "96BCCF85-5232-4835-A4EF-A1D5F093B6B0";
paths = (
{
closed = 1;
nodes = (
"380 351 OFFCURVE",
"366 288 OFFCURVE",
"318 244 CURVE",
"331 181 LINE SMOOTH",
"337 150 OFFCURVE",
"367 129 OFFCURVE",
"399 129 CURVE SMOOTH",
"732 129 LINE",
"732 0 LINE",
"375 0 LINE SMOOTH",
"290 0 OFFCURVE",
"217 59 OFFCURVE",
"199 142 CURVE SMOOTH",
"188 193 LINE",
"179 193 LINE",
"179 0 LINE",
"30 0 LINE",
"30 700 LINE",
"183 700 LINE",
"291 700 OFFCURVE",
"380 612 OFFCURVE",
"380 503 CURVE",
"380 386 LINE"
);
},
{
closed = 1;
nodes = (
"211 322 OFFCURVE",
"230 328 OFFCURVE",
"230 386 CURVE",
"230 506 LINE",
"230 562 OFFCURVE",
"211 570 OFFCURVE",
"187 570 CURVE",
"179 570 LINE",
"179 322 LINE",
"187 322 LINE"
);
},
{
closed = 1;
nodes = (
"732 700 LINE",
"732 570 LINE",
"623 570 LINE",
"623 300 LINE",
"732 300 LINE",
"732 170 LINE",
"404 170 LINE",
"404 300 LINE",
"512 300 LINE",
"512 570 LINE",
"404 570 LINE",
"404 700 LINE"
);
}
);
width = 762;
}
);
leftKerningGroup = H;
leftMetricsKey = B;
rightKerningGroup = H;
},
{
glyphname = R_O;
lastChange = "2021-08-30 16:25:48 +0000";
layers = (
{
layerId = "96BCCF85-5232-4835-A4EF-A1D5F093B6B0";
paths = (
{
closed = 1;
nodes = (
"380 351 OFFCURVE",
"366 288 OFFCURVE",
"318 244 CURVE",
"331 181 LINE SMOOTH",
"337 150 OFFCURVE",
"367 129 OFFCURVE",
"399 129 CURVE SMOOTH",
"753 129 LINE",
"753 0 LINE",
"375 0 LINE SMOOTH",
"290 0 OFFCURVE",
"217 59 OFFCURVE",
"199 142 CURVE SMOOTH",
"188 193 LINE",
"179 193 LINE",
"179 0 LINE",
"30 0 LINE",
"30 700 LINE",
"183 700 LINE",
"291 700 OFFCURVE",
"380 612 OFFCURVE",
"380 503 CURVE",
"380 386 LINE"
);
},
{
closed = 1;
nodes = (
"211 322 OFFCURVE",
"230 328 OFFCURVE",
"230 386 CURVE",
"230 506 LINE",
"230 562 OFFCURVE",
"211 570 OFFCURVE",
"187 570 CURVE",
"179 570 LINE",
"179 322 LINE",
"187 322 LINE"
);
},
{
closed = 1;
nodes = (
"674 710 OFFCURVE",
"748 636 OFFCURVE",
"748 546 CURVE",
"748 324 LINE",
"748 233 OFFCURVE",
"674 160 OFFCURVE",
"584 160 CURVE",
"493 160 OFFCURVE",
"420 233 OFFCURVE",
"420 324 CURVE",
"420 546 LINE",
"420 636 OFFCURVE",
"493 710 OFFCURVE",
"584 710 CURVE"
);
},
{
closed = 1;
nodes = (
"608 554 LINE",
"608 567 OFFCURVE",
"598 578 OFFCURVE",
"584 578 CURVE",
"570 578 OFFCURVE",
"560 567 OFFCURVE",
"560 554 CURVE",
"560 313 LINE",
"560 300 OFFCURVE",
"570 290 OFFCURVE",
"584 290 CURVE",
"598 290 OFFCURVE",
"608 300 OFFCURVE",
"608 313 CURVE"
);
}
);
width = 783;
}
);
leftKerningGroup = H;
leftMetricsKey = B;
rightKerningGroup = H;
},
{
glyphname = R_U;
lastChange = "2021-08-30 16:25:50 +0000";
layers = (
{
layerId = "96BCCF85-5232-4835-A4EF-A1D5F093B6B0";
paths = (
{
closed = 1;
nodes = (
"380 351 OFFCURVE",
"366 288 OFFCURVE",
"318 244 CURVE",
"331 181 LINE SMOOTH",
"337 150 OFFCURVE",
"367 129 OFFCURVE",
"399 129 CURVE SMOOTH",
"754 129 LINE",
"754 0 LINE",
"375 0 LINE SMOOTH",
"290 0 OFFCURVE",
"217 59 OFFCURVE",
"199 142 CURVE SMOOTH",
"188 193 LINE",
"179 193 LINE",
"179 0 LINE",
"30 0 LINE",
"30 700 LINE",
"183 700 LINE",
"291 700 OFFCURVE",
"380 612 OFFCURVE",
"380 503 CURVE",
"380 386 LINE"
);
},
{
closed = 1;
nodes = (
"211 322 OFFCURVE",
"230 328 OFFCURVE",
"230 386 CURVE",
"230 506 LINE",
"230 562 OFFCURVE",
"211 570 OFFCURVE",
"187 570 CURVE",
"179 570 LINE",
"179 322 LINE",
"187 322 LINE"
);
},
{
closed = 1;
nodes = (
"754 700 LINE",
"754 324 LINE",
"754 233 OFFCURVE",
"681 160 OFFCURVE",
"590 160 CURVE",
"499 160 OFFCURVE",
"425 233 OFFCURVE",
"425 324 CURVE",
"425 700 LINE",
"565 700 LINE",
"565 315 LINE",
"565 301 OFFCURVE",
"577 290 OFFCURVE",
"590 290 CURVE",
"604 290 OFFCURVE",
"615 301 OFFCURVE",
"615 315 CURVE",
"615 700 LINE"
);
}
);
width = 784;
}
);
leftKerningGroup = H;
leftMetricsKey = B;
rightKerningGroup = H;
rightMetricsKey = H;
},
{
glyphname = R_a;
lastChange = "2021-08-30 16:25:52 +0000";
layers = (
{
guideLines = (
{
position = "{544, 170}";
}
);
layerId = "96BCCF85-5232-4835-A4EF-A1D5F093B6B0";
paths = (
{
closed = 1;
nodes = (
"380 351 OFFCURVE",
"366 288 OFFCURVE",
"318 244 CURVE",
"331 181 LINE SMOOTH",
"337 150 OFFCURVE",
"367 129 OFFCURVE",
"399 129 CURVE SMOOTH",
"684 129 LINE",
"684 0 LINE",
"375 0 LINE SMOOTH",
"290 0 OFFCURVE",
"217 59 OFFCURVE",
"199 142 CURVE SMOOTH",
"188 193 LINE",
"179 193 LINE",
"179 0 LINE",
"30 0 LINE",
"30 700 LINE",
"183 700 LINE",
"291 700 OFFCURVE",
"380 612 OFFCURVE",
"380 503 CURVE",
"380 386 LINE"
);
},
{
closed = 1;
nodes = (
"211 322 OFFCURVE",
"230 328 OFFCURVE",
"230 386 CURVE",
"230 506 LINE",
"230 562 OFFCURVE",
"211 570 OFFCURVE",
"187 570 CURVE",
"179 570 LINE",
"179 322 LINE",
"187 322 LINE"
);
},
{
closed = 1;
nodes = (
"625 710 OFFCURVE",
"684 651 OFFCURVE",
"684 577 CURVE",
"684 172 LINE",
"604 172 LINE",
"604 199 LINE",
"597 199 LINE",
"586 176 OFFCURVE",
"559 164 OFFCURVE",
"537 164 CURVE",
"464 164 OFFCURVE",
"419 223 OFFCURVE",
"419 297 CURVE",
"419 371 LINE",
"419 444 OFFCURVE",
"478 504 OFFCURVE",
"551 504 CURVE",
"572 504 LINE",
"572 601 LINE",
"572 611 OFFCURVE",
"562 620 OFFCURVE",
"551 620 CURVE",
"540 620 OFFCURVE",
"531 611 OFFCURVE",
"531 601 CURVE",
"531 524 LINE",
"419 524 LINE",
"419 577 LINE",
"419 651 OFFCURVE",
"478 710 OFFCURVE",
"551 710 CURVE"
);
},
{
closed = 1;
nodes = (
"562 270 OFFCURVE",
"572 278 OFFCURVE",
"572 289 CURVE",
"572 390 LINE",
"551 390 LINE",
"540 390 OFFCURVE",
"531 382 OFFCURVE",
"531 370 CURVE",
"531 289 LINE",
"531 278 OFFCURVE",
"540 270 OFFCURVE",
"551 270 CURVE"
);
}
);
width = 714;
}
);
leftKerningGroup = H;
leftMetricsKey = B;
rightKerningGroup = H;
rightMetricsKey = H;
},
{
glyphname = R_e;
lastChange = "2021-08-30 16:25:53 +0000";
layers = (
{
guideLines = (
{
position = "{544, 170}";
}
);
layerId = "96BCCF85-5232-4835-A4EF-A1D5F093B6B0";
paths = (
{
closed = 1;
nodes = (
"380 351 OFFCURVE",
"366 288 OFFCURVE",
"318 244 CURVE",
"331 181 LINE SMOOTH",
"337 150 OFFCURVE",
"367 129 OFFCURVE",
"399 129 CURVE SMOOTH",
"693 129 LINE",
"693 0 LINE",
"375 0 LINE SMOOTH",
"290 0 OFFCURVE",
"217 59 OFFCURVE",
"199 142 CURVE SMOOTH",
"188 193 LINE",
"179 193 LINE",
"179 0 LINE",
"30 0 LINE",
"30 700 LINE",
"183 700 LINE",
"291 700 OFFCURVE",
"380 612 OFFCURVE",
"380 503 CURVE",
"380 386 LINE"
);
},
{
closed = 1;
nodes = (
"211 322 OFFCURVE",
"230 328 OFFCURVE",
"230 386 CURVE",
"230 506 LINE",
"230 562 OFFCURVE",
"211 570 OFFCURVE",
"187 570 CURVE",
"179 570 LINE",
"179 322 LINE",
"187 322 LINE"
);
},
{
closed = 1;
nodes = (
"631 710 OFFCURVE",
"693 649 OFFCURVE",
"693 573 CURVE",
"693 404 LINE",
"535 404 LINE",
"535 282 LINE",
"535 271 OFFCURVE",
"543 261 OFFCURVE",
"555 261 CURVE",
"566 261 OFFCURVE",
"575 271 OFFCURVE",
"575 282 CURVE",
"575 364 LINE",
"693 364 LINE",
"693 289 LINE",
"689 217 OFFCURVE",
"628 160 OFFCURVE",
"555 160 CURVE",
"479 160 OFFCURVE",
"418 221 OFFCURVE",
"418 298 CURVE",
"418 573 LINE",
"418 649 OFFCURVE",
"479 710 OFFCURVE",
"555 710 CURVE"
);
},
{
closed = 1;
nodes = (
"575 588 LINE",
"575 599 OFFCURVE",
"566 608 OFFCURVE",
"555 608 CURVE",
"543 608 OFFCURVE",
"535 599 OFFCURVE",
"535 588 CURVE",
"535 507 LINE",
"575 507 LINE"
);
}
);
width = 723;
}
);
leftKerningGroup = H;
leftMetricsKey = B;
rightKerningGroup = H;
},
{
glyphname = T_A;
lastChange = "2021-08-30 16:25:57 +0000";
layers = (
{
layerId = "96BCCF85-5232-4835-A4EF-A1D5F093B6B0";
paths = (
{
closed = 1;
nodes = (
"643 700 LINE",
"643 570 LINE",
"275 570 LINE",
"275 0 LINE",
"125 0 LINE",
"125 570 LINE",
"30 570 LINE",
"30 700 LINE"
);
},
{
closed = 1;
nodes = (
"501 97 LINE",
"456 97 LINE",
"444 0 LINE",
"315 0 LINE",
"395 530 LINE",
"563 530 LINE",
"643 0 LINE",
"515 0 LINE"
);
},
{
closed = 1;
nodes = (
"494 211 LINE",
"488 379 LINE",
"471 379 LINE",
"464 211 LINE"
);
}
);
width = 673;
}
);
leftKerningGroup = T;
rightKerningGroup = H;
},
{
glyphname = T_E;
lastChange = "2021-08-30 16:26:01 +0000";
layers = (
{
layerId = "96BCCF85-5232-4835-A4EF-A1D5F093B6B0";
paths = (
{
closed = 1;
nodes = (
"643 700 LINE",
"643 570 LINE",
"275 570 LINE",
"275 0 LINE",
"125 0 LINE",
"125 570 LINE",
"30 570 LINE",
"30 700 LINE"
);
},
{
closed = 1;
nodes = (
"427 410 LINE",
"427 325 LINE",
"609 325 LINE",
"609 205 LINE",
"427 205 LINE",
"427 120 LINE",
"643 120 LINE",
"643 0 LINE",
"315 0 LINE",
"315 530 LINE",
"643 530 LINE",
"643 410 LINE"
);
}
);
width = 673;
}
);
leftKerningGroup = T;
rightKerningGroup = H;
rightMetricsKey = H;
},
{
glyphname = T_H;
lastChange = "2021-08-30 16:26:05 +0000";
layers = (
{
layerId = "96BCCF85-5232-4835-A4EF-A1D5F093B6B0";
paths = (
{
closed = 1;
nodes = (
"643 700 LINE",
"643 570 LINE",
"275 570 LINE",
"275 0 LINE",
"125 0 LINE",
"125 570 LINE",
"30 570 LINE",
"30 700 LINE"
);
},
{
closed = 1;
nodes = (
"643 530 LINE",
"643 0 LINE",
"513 0 LINE",
"513 189 LINE",
"447 189 LINE",
"447 0 LINE",
"317 0 LINE",
"317 530 LINE",
"447 530 LINE",
"447 341 LINE",
"513 341 LINE",
"513 530 LINE"
);
}
);
width = 673;
}
);
leftKerningGroup = T;
rightKerningGroup = H;
rightMetricsKey = H;
},
{
glyphname = T_I;
lastChange = "2021-08-30 16:26:07 +0000";
layers = (
{
layerId = "96BCCF85-5232-4835-A4EF-A1D5F093B6B0";
paths = (
{
closed = 1;
nodes = (
"643 700 LINE",
"643 570 LINE",
"275 570 LINE",
"275 0 LINE",
"125 0 LINE",
"125 570 LINE",
"30 570 LINE",
"30 700 LINE"
);
},
{
closed = 1;
nodes = (
"643 530 LINE",
"643 430 LINE",
"539 430 LINE",
"539 120 LINE",
"643 120 LINE",
"643 0 LINE",
"315 0 LINE",
"315 120 LINE",
"418 120 LINE",
"418 430 LINE",
"315 430 LINE",
"315 530 LINE"
);
}
);
width = 673;
}
);
leftKerningGroup = T;
rightKerningGroup = H;
rightMetricsKey = H;
},
{
glyphname = T_O;
lastChange = "2021-08-30 16:26:09 +0000";
layers = (
{
layerId = "96BCCF85-5232-4835-A4EF-A1D5F093B6B0";
paths = (
{
closed = 1;
nodes = (
"644 700 LINE",
"644 570 LINE",
"275 570 LINE",
"275 0 LINE",
"125 0 LINE",
"125 570 LINE",
"30 570 LINE",
"30 700 LINE"
);
},
{
closed = 1;
nodes = (
"570 540 OFFCURVE",
"644 466 OFFCURVE",
"644 376 CURVE",
"644 154 LINE",
"644 63 OFFCURVE",
"570 -10 OFFCURVE",
"480 -10 CURVE",
"389 -10 OFFCURVE",
"316 63 OFFCURVE",
"316 154 CURVE",
"316 376 LINE",
"316 466 OFFCURVE",
"389 540 OFFCURVE",
"480 540 CURVE"
);
},
{
closed = 1;
nodes = (
"504 384 LINE",
"504 397 OFFCURVE",
"494 408 OFFCURVE",
"480 408 CURVE",
"466 408 OFFCURVE",
"456 397 OFFCURVE",
"456 384 CURVE",
"456 143 LINE",
"456 130 OFFCURVE",
"466 120 OFFCURVE",
"480 120 CURVE",
"494 120 OFFCURVE",
"504 130 OFFCURVE",
"504 143 CURVE"
);
}
);
width = 674;
}
);
leftKerningGroup = T;
rightKerningGroup = H;
},
{
glyphname = T_U;
lastChange = "2021-08-30 16:26:11 +0000";
layers = (
{
layerId = "96BCCF85-5232-4835-A4EF-A1D5F093B6B0";
paths = (
{
closed = 1;
nodes = (
"644 700 LINE",
"644 570 LINE",
"275 570 LINE",
"275 0 LINE",
"125 0 LINE",
"125 570 LINE",
"30 570 LINE",
"30 700 LINE"
);
},
{
closed = 1;
nodes = (
"644 530 LINE",
"644 154 LINE",
"644 63 OFFCURVE",
"571 -10 OFFCURVE",
"480 -10 CURVE",
"389 -10 OFFCURVE",
"315 63 OFFCURVE",
"315 154 CURVE",
"315 530 LINE",
"455 530 LINE",
"455 145 LINE",
"455 131 OFFCURVE",
"467 120 OFFCURVE",
"480 120 CURVE",
"494 120 OFFCURVE",
"505 131 OFFCURVE",
"505 145 CURVE",
"505 530 LINE"
);
}
);
width = 674;
}
);
leftKerningGroup = T;
rightKerningGroup = H;
rightMetricsKey = H;
},
{
glyphname = U_A;
lastChange = "2021-08-30 17:04:50 +0000";
layers = (
{
layerId = "96BCCF85-5232-4835-A4EF-A1D5F093B6B0";
paths = (
{
closed = 1;
nodes = (
"380 453 LINE",
"380 311 LINE",
"439 311 LINE"
);
},
{
closed = 1;
nodes = (
"567 0 LINE",
"493 180 LINE",
"380 180 LINE",
"380 165 LINE",
"380 68 OFFCURVE",
"302 -10 OFFCURVE",
"205 -10 CURVE",
"108 -10 OFFCURVE",
"30 68 OFFCURVE",
"30 165 CURVE",
"30 700 LINE",
"179 700 LINE",
"179 156 LINE",
"179 141 OFFCURVE",
"191 129 OFFCURVE",
"205 129 CURVE",
"220 129 OFFCURVE",
"232 141 OFFCURVE",
"232 156 CURVE",
"232 700 LINE",
"410 700 LINE",
"716 0 LINE"
);
}
);
width = 746;
}
);
leftKerningGroup = u;
rightKerningGroup = A;
},
{
glyphname = U_M;
lastChange = "2021-08-30 17:03:03 +0000";
layers = (
{
layerId = "96BCCF85-5232-4835-A4EF-A1D5F093B6B0";
paths = (
{
closed = 1;
nodes = (
"515 700 LINE",
"472 389 LINE",
"466 389 LINE",
"421 700 LINE",
"232 700 LINE",
"232 156 LINE",
"232 141 OFFCURVE",
"220 129 OFFCURVE",
"205 129 CURVE",
"191 129 OFFCURVE",
"179 141 OFFCURVE",
"179 156 CURVE",
"179 700 LINE",
"30 700 LINE",
"30 165 LINE",
"30 68 OFFCURVE",
"108 -10 OFFCURVE",
"205 -10 CURVE",
"302 -10 OFFCURVE",
"380 68 OFFCURVE",
"380 165 CURVE",
"380 311 LINE",
"386 311 LINE",
"425 0 LINE",
"512 0 LINE",
"551 311 LINE",
"557 311 LINE",
"557 0 LINE",
"687 0 LINE",
"687 700 LINE"
);
}
);
width = 717;
}
);
leftKerningGroup = u;
rightKerningGroup = H;
rightMetricsKey = H;
},
{
glyphname = U_N;
lastChange = "2021-08-30 17:02:45 +0000";
layers = (
{
layerId = "96BCCF85-5232-4835-A4EF-A1D5F093B6B0";
paths = (
{
closed = 1;
nodes = (
"480 700 LINE",
"480 425 LINE",
"465 425 LINE",
"380 700 LINE",
"232 700 LINE",
"232 156 LINE",
"232 141 OFFCURVE",
"220 129 OFFCURVE",
"205 129 CURVE",
"191 129 OFFCURVE",
"179 141 OFFCURVE",
"179 156 CURVE",
"179 700 LINE",
"30 700 LINE",
"30 165 LINE",
"30 68 OFFCURVE",
"108 -10 OFFCURVE",
"205 -10 CURVE",
"302 -10 OFFCURVE",
"380 68 OFFCURVE",
"380 165 CURVE",
"380 275 LINE",
"395 275 LINE",
"490 0 LINE",
"610 0 LINE",
"610 700 LINE"
);
}
);
width = 640;
}
);
leftKerningGroup = u;
rightKerningGroup = H;
rightMetricsKey = H;
},
{
glyphname = Uacute_A;
lastChange = "2021-08-30 17:02:16 +0000";
layers = (
{
components = (
{
name = acutecomb;
transform = "{1, 0, 0, 1, 330, 0}";
}
);
layerId = "96BCCF85-5232-4835-A4EF-A1D5F093B6B0";
paths = (
{
closed = 1;
nodes = (
"766 500 LINE",
"745 500 LINE",
"728 279 LINE",
"782 279 LINE"
);
},
{
closed = 1;
nodes = (
"797 0 LINE",
"787 129 LINE",
"659 129 LINE",
"595 45 OFFCURVE",
"494 -10 OFFCURVE",
"380 -10 CURVE",
"187 -10 OFFCURVE",
"30 147 OFFCURVE",
"30 340 CURVE",
"30 700 LINE",
"180 700 LINE",
"180 340 LINE",
"180 228 OFFCURVE",
"269 140 OFFCURVE",
"380 140 CURVE",
"490 140 OFFCURVE",
"581 228 OFFCURVE",
"581 340 CURVE",
"581 700 LINE",
"861 700 LINE",
"946 0 LINE"
);
}
);
width = 976;
}
);
leftKerningGroup = U;
rightKerningGroup = a;
},
{
glyphname = Ugrave_A;
lastChange = "2021-08-30 17:02:02 +0000";
layers = (
{
components = (
{
name = gravecomb;
transform = "{1, 0, 0, 1, 272, 0}";
}
);
layerId = "96BCCF85-5232-4835-A4EF-A1D5F093B6B0";
paths = (
{
closed = 1;
nodes = (
"766 500 LINE",
"745 500 LINE",
"728 279 LINE",
"782 279 LINE"
);
},
{
closed = 1;
nodes = (
"797 0 LINE",
"787 129 LINE",
"659 129 LINE",
"595 45 OFFCURVE",
"494 -10 OFFCURVE",
"380 -10 CURVE",
"187 -10 OFFCURVE",
"30 147 OFFCURVE",
"30 340 CURVE",
"30 700 LINE",
"180 700 LINE",
"180 340 LINE",
"180 228 OFFCURVE",
"269 140 OFFCURVE",
"380 140 CURVE",
"490 140 OFFCURVE",
"581 228 OFFCURVE",
"581 340 CURVE",
"581 700 LINE",
"861 700 LINE",
"946 0 LINE"
);
}
);
width = 976;
}
);
leftKerningGroup = U;
rightKerningGroup = a;
},
{
glyphname = Uhookabove_A;
lastChange = "2021-08-30 17:02:05 +0000";
layers = (
{
components = (
{
name = hookabovecomb;
transform = "{1, 0, 0, 1, 279, -30}";
}
);
layerId = "96BCCF85-5232-4835-A4EF-A1D5F093B6B0";
paths = (
{
closed = 1;
nodes = (
"766 500 LINE",
"745 500 LINE",
"728 279 LINE",
"782 279 LINE"
);
},
{
closed = 1;
nodes = (
"797 0 LINE",
"787 129 LINE",
"659 129 LINE",
"595 45 OFFCURVE",
"494 -10 OFFCURVE",
"380 -10 CURVE",
"187 -10 OFFCURVE",
"30 147 OFFCURVE",
"30 340 CURVE",
"30 700 LINE",
"180 700 LINE",
"180 340 LINE",
"180 228 OFFCURVE",
"269 140 OFFCURVE",
"380 140 CURVE",
"490 140 OFFCURVE",
"581 228 OFFCURVE",
"581 340 CURVE",
"581 700 LINE",
"861 700 LINE",
"946 0 LINE"
);
}
);
width = 976;
}
);
leftKerningGroup = U;
rightKerningGroup = a;
},
{
glyphname = Utilde_A;
lastChange = "2021-08-30 17:02:08 +0000";
layers = (
{
components = (
{
name = tildecomb;
transform = "{1, 0, 0, 1, 160, -28}";
}
);
layerId = "96BCCF85-5232-4835-A4EF-A1D5F093B6B0";
paths = (
{
closed = 1;
nodes = (
"766 500 LINE",
"745 500 LINE",
"728 279 LINE",
"782 279 LINE"
);
},
{
closed = 1;
nodes = (
"797 0 LINE",
"787 129 LINE",
"659 129 LINE",
"595 45 OFFCURVE",
"494 -10 OFFCURVE",
"380 -10 CURVE",
"187 -10 OFFCURVE",
"30 147 OFFCURVE",
"30 340 CURVE",
"30 700 LINE",
"180 700 LINE",
"180 340 LINE",
"180 228 OFFCURVE",
"269 140 OFFCURVE",
"380 140 CURVE",
"490 140 OFFCURVE",
"581 228 OFFCURVE",
"581 340 CURVE",
"581 700 LINE",
"861 700 LINE",
"946 0 LINE"
);
}
);
width = 976;
}
);
leftKerningGroup = U;
rightKerningGroup = a;
},
{
glyphname = O_O.001;
lastChange = "2021-09-16 16:19:54 +0000";
layers = (
{
guideLines = (
{
angle = 90;
position = "{477, 797}";
},
{
position = "{544, 170}";
}
);
layerId = "96BCCF85-5232-4835-A4EF-A1D5F093B6B0";
paths = (
{
closed = 1;
nodes = (
"480 558 OFFCURVE",
"469 570 OFFCURVE",
"455 570 CURVE",
"440 570 OFFCURVE",
"429 558 OFFCURVE",
"429 544 CURVE",
"429 154 LINE",
"429 140 OFFCURVE",
"440 129 OFFCURVE",
"455 129 CURVE",
"469 129 OFFCURVE",
"480 140 OFFCURVE",
"480 154 CURVE",
"480 544 LINE"
);
},
{
closed = 1;
nodes = (
"230 568 OFFCURVE",
"219 580 OFFCURVE",
"205 580 CURVE",
"190 580 OFFCURVE",
"179 568 OFFCURVE",
"179 554 CURVE",
"179 147 LINE",
"179 133 OFFCURVE",
"190 122 OFFCURVE",
"205 122 CURVE",
"219 122 OFFCURVE",
"230 133 OFFCURVE",
"230 147 CURVE",
"230 554 LINE"
);
},
{
closed = 1;
nodes = (
"551 710 OFFCURVE",
"630 632 OFFCURVE",
"630 535 CURVE",
"630 165 LINE",
"630 68 OFFCURVE",
"551 -10 OFFCURVE",
"455 -10 CURVE",
"406 -10 OFFCURVE",
"362 10 OFFCURVE",
"330 42 CURVE",
"298 10 OFFCURVE",
"254 -10 OFFCURVE",
"205 -10 CURVE",
"108 -10 OFFCURVE",
"30 68 OFFCURVE",
"30 165 CURVE",
"30 535 LINE",
"30 632 OFFCURVE",
"108 710 OFFCURVE",
"205 710 CURVE",
"254 710 OFFCURVE",
"298 690 OFFCURVE",
"330 658 CURVE",
"362 690 OFFCURVE",
"406 710 OFFCURVE",
"455 710 CURVE"
);
}
);
width = 660;
}
);
leftKerningGroup = o;
rightKerningGroup = o;
},
{
glyphname = U_A.001;
lastChange = "2021-08-30 17:03:32 +0000";
layers = (
{
layerId = "96BCCF85-5232-4835-A4EF-A1D5F093B6B0";
paths = (
{
closed = 1;
nodes = (
"398 500 LINE",
"385 500 LINE",
"380 279 LINE",
"402 279 LINE"
);
},
{
closed = 1;
nodes = (
"417 0 LINE",
"407 129 LINE",
"376 129 LINE",
"360 49 OFFCURVE",
"290 -10 OFFCURVE",
"205 -10 CURVE",
"108 -10 OFFCURVE",
"30 68 OFFCURVE",
"30 165 CURVE",
"30 700 LINE",
"179 700 LINE",
"179 156 LINE",
"179 141 OFFCURVE",
"191 129 OFFCURVE",
"205 129 CURVE",
"220 129 OFFCURVE",
"232 141 OFFCURVE",
"232 156 CURVE",
"232 700 LINE",
"481 700 LINE",
"566 0 LINE"
);
}
);
width = 596;
}
);
},
{
glyphname = a;
lastChange = "2021-08-30 16:26:46 +0000";
layers = (
{
guideLines = (
{
position = "{559, 175}";
},
{
position = "{233, 35}";
}
);
layerId = "96BCCF85-5232-4835-A4EF-A1D5F093B6B0";
paths = (
{
closed = 1;
nodes = (
"302 710 OFFCURVE",
"380 632 OFFCURVE",
"380 535 CURVE",
"380 0 LINE",
"275 0 LINE",
"275 35 LINE",
"265 35 LINE",
"251 5 OFFCURVE",
"216 -10 OFFCURVE",
"187 -10 CURVE",
"90 -10 OFFCURVE",
"30 68 OFFCURVE",
"30 165 CURVE",
"30 263 LINE",
"30 359 OFFCURVE",
"108 438 OFFCURVE",
"205 438 CURVE",
"232 438 LINE",
"232 566 LINE",
"232 580 OFFCURVE",
"220 592 OFFCURVE",
"205 592 CURVE",
"191 592 OFFCURVE",
"179 580 OFFCURVE",
"179 566 CURVE",
"179 464 LINE",
"30 464 LINE",
"30 535 LINE",
"30 632 OFFCURVE",
"108 710 OFFCURVE",
"205 710 CURVE"
);
},
{
closed = 1;
nodes = (
"220 129 OFFCURVE",
"232 140 OFFCURVE",
"232 155 CURVE",
"232 288 LINE",
"205 288 LINE",
"191 288 OFFCURVE",
"179 277 OFFCURVE",
"179 262 CURVE",
"179 155 LINE",
"179 140 OFFCURVE",
"191 129 OFFCURVE",
"205 129 CURVE"
);
}
);
width = 410;
}
);
leftKerningGroup = o;
rightKerningGroup = G;
unicode = 0061;
},
{
glyphname = b;
lastChange = "2021-08-30 16:17:00 +0000";
layers = (
{
layerId = "96BCCF85-5232-4835-A4EF-A1D5F093B6B0";
paths = (
{
closed = 1;
nodes = (
"380 478 OFFCURVE",
"345 414 OFFCURVE",
"290 399 CURVE",
"290 389 LINE",
"345 368 OFFCURVE",
"380 313 OFFCURVE",
"380 263 CURVE",
"380 175 LINE",
"380 78 OFFCURVE",
"302 0 OFFCURVE",
"205 0 CURVE",
"30 0 LINE",
"30 700 LINE",
"205 700 LINE",
"302 700 OFFCURVE",
"380 627 OFFCURVE",
"380 530 CURVE"
);
},
{
closed = 1;
nodes = (
"230 243 LINE",
"230 281 OFFCURVE",
"210 311 OFFCURVE",
"186 311 CURVE",
"179 311 LINE",
"179 129 LINE",
"186 129 LINE",
"210 129 OFFCURVE",
"230 159 OFFCURVE",
"230 197 CURVE"
);
},
{
closed = 1;
nodes = (
"191 481 LINE",
"212 481 OFFCURVE",
"230 500 OFFCURVE",
"230 525 CURVE",
"230 550 OFFCURVE",
"212 570 OFFCURVE",
"191 570 CURVE",
"179 570 LINE",
"179 481 LINE"
);
}
);
width = 410;
}
);
leftKerningGroup = H;
leftMetricsKey = B;
rightKerningGroup = o;
unicode = 0062;
},
{
glyphname = c;
lastChange = "2021-08-30 16:17:06 +0000";
layers = (
{
guideLines = (
{
position = "{403, 275}";
}
);
layerId = "96BCCF85-5232-4835-A4EF-A1D5F093B6B0";
paths = (
{
closed = 1;
nodes = (
"35 632 OFFCURVE",
"113 710 OFFCURVE",
"210 710 CURVE",
"307 710 OFFCURVE",
"385 632 OFFCURVE",
"385 535 CURVE",
"385 425 LINE",
"237 425 LINE",
"237 544 LINE",
"237 558 OFFCURVE",
"225 570 OFFCURVE",
"210 570 CURVE",
"196 570 OFFCURVE",
"184 558 OFFCURVE",
"184 544 CURVE",
"184 155 LINE",
"184 141 OFFCURVE",
"196 129 OFFCURVE",
"210 129 CURVE",
"225 129 OFFCURVE",
"237 141 OFFCURVE",
"237 155 CURVE",
"237 275 LINE",
"385 275 LINE",
"385 165 LINE",
"385 68 OFFCURVE",
"307 -10 OFFCURVE",
"210 -10 CURVE",
"113 -10 OFFCURVE",
"35 68 OFFCURVE",
"35 165 CURVE",
"35 535 LINE"
);
}
);
width = 420;
}
);
leftKerningGroup = o;
rightKerningGroup = o;
unicode = 0063;
},
{
glyphname = d;
lastChange = "2021-07-11 10:38:19 +0000";
layers = (
{
layerId = "96BCCF85-5232-4835-A4EF-A1D5F093B6B0";
paths = (
{
closed = 1;
nodes = (
"179 570 LINE",
"179 129 LINE",
"207 129 LINE",
"220 129 OFFCURVE",
"230 140 OFFCURVE",
"230 152 CURVE",
"230 547 LINE",
"230 559 OFFCURVE",
"220 570 OFFCURVE",
"207 570 CURVE"
);
},
{
closed = 1;
nodes = (
"302 700 OFFCURVE",
"380 622 OFFCURVE",
"380 525 CURVE",
"380 175 LINE",
"380 78 OFFCURVE",
"302 0 OFFCURVE",
"205 0 CURVE",
"30 0 LINE",
"30 700 LINE",
"205 700 LINE"
);
}
);
width = 414;
}
);
leftKerningGroup = H;
leftMetricsKey = B;
rightKerningGroup = o;
unicode = 0064;
},
{
glyphname = dcroat;
lastChange = "2021-08-30 16:21:12 +0000";
layers = (
{
layerId = "96BCCF85-5232-4835-A4EF-A1D5F093B6B0";
paths = (
{
closed = 1;
nodes = (
"573 700 OFFCURVE",
"730 543 OFFCURVE",
"730 350 CURVE",
"730 157 OFFCURVE",
"573 0 OFFCURVE",
"380 0 CURVE",
"118 0 LINE",
"118 315 LINE",
"30 315 LINE",
"30 385 LINE",
"118 385 LINE",
"118 700 LINE",
"380 700 LINE"
);
},
{
closed = 1;
nodes = (
"482 131 OFFCURVE",
"580 229 OFFCURVE",
"580 350 CURVE",
"580 471 OFFCURVE",
"482 570 OFFCURVE",
"361 570 CURVE",
"263 570 LINE",
"263 385 LINE",
"387 385 LINE",
"387 315 LINE",
"263 315 LINE",
"263 131 LINE",
"361 131 LINE"
);
}
);
width = 760;
}
);
leftKerningGroup = Dcroat;
rightKerningGroup = O;
unicode = 0111;
},
{
glyphname = e;
lastChange = "2021-08-30 16:27:14 +0000";
layers = (
{
guideLines = (
{
position = "{297, 165}";
},
{
position = "{398, 275}";
}
);
layerId = "96BCCF85-5232-4835-A4EF-A1D5F093B6B0";
paths = (
{
closed = 1;
nodes = (
"301 700 OFFCURVE",
"380 622 OFFCURVE",
"380 525 CURVE",
"380 311 LINE",
"179 311 LINE",
"179 155 LINE",
"179 141 OFFCURVE",
"190 129 OFFCURVE",
"205 129 CURVE",
"219 129 OFFCURVE",
"230 141 OFFCURVE",
"230 155 CURVE",
"230 260 LINE",
"380 260 LINE",
"380 164 LINE",
"375 72 OFFCURVE",
"298 0 OFFCURVE",
"205 0 CURVE",
"108 0 OFFCURVE",
"30 78 OFFCURVE",
"30 175 CURVE",
"30 525 LINE",
"30 622 OFFCURVE",
"108 700 OFFCURVE",
"205 700 CURVE"
);
},
{
closed = 1;
nodes = (
"230 545 LINE",
"230 559 OFFCURVE",
"219 570 OFFCURVE",
"205 570 CURVE",
"190 570 OFFCURVE",
"179 559 OFFCURVE",
"179 545 CURVE",
"179 441 LINE",
"230 441 LINE"
);
}
);
width = 410;
}
);
leftKerningGroup = o;
rightKerningGroup = o;
unicode = 0065;
},
{
glyphname = f;
lastChange = "2021-08-30 16:17:38 +0000";
layers = (
{
layerId = "96BCCF85-5232-4835-A4EF-A1D5F093B6B0";
paths = (
{
closed = 1;
nodes = (
"179 550 LINE",
"179 425 LINE",
"266 425 LINE",
"266 275 LINE",
"179 275 LINE",
"179 0 LINE",
"30 0 LINE",
"30 700 LINE",
"310 700 LINE",
"310 550 LINE"
);
}
);
width = 340;
}
);
leftKerningGroup = H;
leftMetricsKey = B;
rightKerningGroup = f;
unicode = 0066;
},
{
glyphname = h;
lastChange = "2021-08-30 16:17:49 +0000";
layers = (
{
layerId = "96BCCF85-5232-4835-A4EF-A1D5F093B6B0";
paths = (
{
closed = 1;
nodes = (
"380 700 LINE",
"380 0 LINE",
"232 0 LINE",
"232 250 LINE",
"179 250 LINE",
"179 0 LINE",
"30 0 LINE",
"30 700 LINE",
"179 700 LINE",
"179 450 LINE",
"232 450 LINE",
"232 700 LINE"
);
}
);
width = 410;
}
);
leftKerningGroup = H;
leftMetricsKey = B;
rightKerningGroup = H;
unicode = 0068;
},
{
glyphname = i;
lastChange = "2021-08-30 16:17:54 +0000";
layers = (
{
layerId = "96BCCF85-5232-4835-A4EF-A1D5F093B6B0";
paths = (
{
closed = 1;
nodes = (
"245 570 LINE",
"245 129 LINE",
"310 129 LINE",
"310 0 LINE",
"30 0 LINE",
"30 129 LINE",
"94 129 LINE",
"94 570 LINE",
"30 570 LINE",
"30 700 LINE",
"310 700 LINE",
"310 570 LINE"
);
}
);
width = 343;
}
);
leftKerningGroup = i;
rightKerningGroup = i;
unicode = 0069;
},
{
glyphname = j;
lastChange = "2021-08-30 16:27:38 +0000";
layers = (
{
layerId = "96BCCF85-5232-4835-A4EF-A1D5F093B6B0";
paths = (
{
closed = 1;
nodes = (
"380 700 LINE",
"380 165 LINE",
"380 68 OFFCURVE",
"302 -10 OFFCURVE",
"205 -10 CURVE",
"108 -10 OFFCURVE",
"30 68 OFFCURVE",
"30 165 CURVE",
"30 275 LINE",
"179 275 LINE",
"179 156 LINE",
"179 141 OFFCURVE",
"190 129 OFFCURVE",
"205 129 CURVE",
"220 129 OFFCURVE",
"232 141 OFFCURVE",
"232 156 CURVE",
"232 700 LINE"
);
}
);
width = 410;
}
);
leftKerningGroup = j;
rightKerningGroup = u;
rightMetricsKey = H;
unicode = 006A;
},
{
glyphname = k;
lastChange = "2021-08-30 16:18:11 +0000";
layers = (
{
layerId = "96BCCF85-5232-4835-A4EF-A1D5F093B6B0";
paths = (
{
closed = 1;
nodes = (
"380 680 LINE",
"280 396 LINE",
"280 381 LINE",
"380 20 LINE",
"380 0 LINE",
"230 0 LINE",
"189 216 LINE",
"179 216 LINE",
"179 0 LINE",
"30 0 LINE",
"30 700 LINE",
"179 700 LINE",
"179 500 LINE",
"189 500 LINE",
"230 700 LINE",
"380 700 LINE"
);
}
);
width = 411;
}
);
leftKerningGroup = H;
leftMetricsKey = B;
rightKerningGroup = e;
unicode = 006B;
},
{
glyphname = l;
lastChange = "2021-08-30 16:18:20 +0000";
layers = (
{
layerId = "96BCCF85-5232-4835-A4EF-A1D5F093B6B0";
paths = (
{
closed = 1;
nodes = (
"179 129 LINE",
"310 129 LINE",
"310 0 LINE",
"30 0 LINE",
"30 700 LINE",
"179 700 LINE"
);
}
);
width = 340;
}
);
leftKerningGroup = H;
leftMetricsKey = B;
rightKerningGroup = L;
unicode = 006C;
},
{
glyphname = m;
lastChange = "2021-08-30 16:27:43 +0000";
layers = (
{
guideLines = (
{
position = "{252, 665}";
}
);
layerId = "96BCCF85-5232-4835-A4EF-A1D5F093B6B0";
paths = (
{
closed = 1;
nodes = (
"414 710 OFFCURVE",
"467 651 OFFCURVE",
"467 579 CURVE",
"467 0 LINE",
"351 0 LINE",
"351 556 LINE",
"351 564 OFFCURVE",
"344 571 OFFCURVE",
"336 571 CURVE",
"328 571 OFFCURVE",
"321 564 OFFCURVE",
"321 556 CURVE",
"321 0 LINE",
"176 0 LINE",
"176 554 LINE",
"176 563 OFFCURVE",
"169 570 OFFCURVE",
"161 570 CURVE",
"153 570 OFFCURVE",
"146 563 OFFCURVE",
"146 554 CURVE",
"146 0 LINE",
"30 0 LINE",
"30 700 LINE",
"119 700 LINE",
"119 665 LINE",
"129 665 LINE",
"135 690 OFFCURVE",
"151 710 OFFCURVE",
"187 710 CURVE",
"221 710 OFFCURVE",
"239 689 OFFCURVE",
"249 665 CURVE",
"259 665 LINE",
"272 689 OFFCURVE",
"305 710 OFFCURVE",
"342 710 CURVE"
);
}
);
width = 498;
}
);
leftKerningGroup = H;
leftMetricsKey = B;
rightKerningGroup = G;
unicode = 006D;
},
{
glyphname = o;
lastChange = "2021-08-30 16:18:58 +0000";
layers = (
{
guideLines = (
{
position = "{47, 580}";
},
{
position = "{47, 122}";
}
);
layerId = "96BCCF85-5232-4835-A4EF-A1D5F093B6B0";
paths = (
{
closed = 1;
nodes = (
"301 710 OFFCURVE",
"380 632 OFFCURVE",
"380 535 CURVE",
"380 165 LINE",
"380 68 OFFCURVE",
"301 -10 OFFCURVE",
"205 -10 CURVE",
"108 -10 OFFCURVE",
"30 68 OFFCURVE",
"30 165 CURVE",
"30 535 LINE",
"30 632 OFFCURVE",
"108 710 OFFCURVE",
"205 710 CURVE"
);
},
{
closed = 1;
nodes = (
"230 554 LINE",
"230 568 OFFCURVE",
"219 580 OFFCURVE",
"205 580 CURVE",
"190 580 OFFCURVE",
"179 568 OFFCURVE",
"179 554 CURVE",
"179 147 LINE",
"179 133 OFFCURVE",
"190 122 OFFCURVE",
"205 122 CURVE",
"219 122 OFFCURVE",
"230 133 OFFCURVE",
"230 147 CURVE"
);
}
);
width = 411;
}
);
leftKerningGroup = o;
rightKerningGroup = o;
unicode = 006F;
},
{
glyphname = p;
lastChange = "2021-08-30 16:19:20 +0000";
layers = (
{
layerId = "96BCCF85-5232-4835-A4EF-A1D5F093B6B0";
paths = (
{
closed = 1;
nodes = (
"292 700 OFFCURVE",
"380 613 OFFCURVE",
"380 506 CURVE",
"380 506 OFFCURVE",
"380 386 OFFCURVE",
"380 386 CURVE SMOOTH",
"379 278 OFFCURVE",
"292 192 OFFCURVE",
"185 192 CURVE",
"179 192 LINE",
"179 0 LINE",
"30 0 LINE",
"30 700 LINE",
"185 700 LINE"
);
},
{
closed = 1;
nodes = (
"208 322 OFFCURVE",
"230 322 OFFCURVE",
"230 389 CURVE",
"230 502 LINE",
"230 570 OFFCURVE",
"208 570 OFFCURVE",
"182 570 CURVE",
"179 570 LINE",
"179 322 LINE",
"182 322 LINE"
);
}
);
width = 410;
}
);
leftKerningGroup = H;
leftMetricsKey = B;
rightKerningGroup = p;
unicode = 0070;
},
{
glyphname = q;
lastChange = "2021-08-30 16:27:58 +0000";
layers = (
{
layerId = "96BCCF85-5232-4835-A4EF-A1D5F093B6B0";
paths = (
{
closed = 1;
nodes = (
"302 710 OFFCURVE",
"380 632 OFFCURVE",
"380 535 CURVE",
"380 175 LINE",
"380 116 OFFCURVE",
"351 63 OFFCURVE",
"306 31 CURVE",
"306 21 LINE",
"321 10 OFFCURVE",
"348 7 OFFCURVE",
"380 13 CURVE",
"380 -87 LINE",
"315 -87 OFFCURVE",
"258 -53 OFFCURVE",
"228 0 CURVE",
"205 0 LINE",
"109 0 OFFCURVE",
"30 79 OFFCURVE",
"30 175 CURVE",
"30 535 LINE",
"30 632 OFFCURVE",
"109 710 OFFCURVE",
"205 710 CURVE"
);
},
{
closed = 1;
nodes = (
"179 141 OFFCURVE",
"191 129 OFFCURVE",
"205 129 CURVE SMOOTH",
"220 129 OFFCURVE",
"232 141 OFFCURVE",
"232 155 CURVE SMOOTH",
"232 544 LINE",
"232 558 OFFCURVE",
"220 570 OFFCURVE",
"205 570 CURVE",
"191 570 OFFCURVE",
"179 558 OFFCURVE",
"179 544 CURVE",
"179 155 LINE SMOOTH"
);
}
);
width = 410;
}
);
leftKerningGroup = o;
rightKerningGroup = o;
unicode = 0071;
},
{
glyphname = r;
lastChange = "2021-08-30 16:28:01 +0000";
layers = (
{
layerId = "96BCCF85-5232-4835-A4EF-A1D5F093B6B0";
paths = (
{
closed = 1;
nodes = (
"380 427 OFFCURVE",
"330 380 OFFCURVE",
"271 361 CURVE",
"271 346 LINE",
"330 337 OFFCURVE",
"366 289 OFFCURVE",
"366 219 CURVE SMOOTH",
"366 0 LINE",
"218 -1 LINE",
"218 219 LINE",
"218 233 OFFCURVE",
"206 245 OFFCURVE",
"191 245 CURVE",
"179 245 LINE",
"179 -1 LINE",
"30 0 LINE",
"30 700 LINE",
"183 700 LINE",
"292 700 OFFCURVE",
"380 617 OFFCURVE",
"380 508 CURVE SMOOTH"
);
},
{
closed = 1;
nodes = (
"198 445 LINE",
"216 445 OFFCURVE",
"231 459 OFFCURVE",
"231 477 CURVE SMOOTH",
"231 477 OFFCURVE",
"231 535 OFFCURVE",
"231 535 CURVE",
"231 554 OFFCURVE",
"216 568 OFFCURVE",
"198 568 CURVE",
"179 568 LINE",
"179 445 LINE"
);
}
);
width = 414;
}
);
leftKerningGroup = H;
leftMetricsKey = B;
rightKerningGroup = r;
unicode = 0072;
},
{
glyphname = s;
lastChange = "2021-08-30 16:19:33 +0000";
layers = (
{
layerId = "96BCCF85-5232-4835-A4EF-A1D5F093B6B0";
paths = (
{
closed = 1;
nodes = (
"30 632 OFFCURVE",
"108 710 OFFCURVE",
"205 710 CURVE",
"302 710 OFFCURVE",
"380 632 OFFCURVE",
"380 535 CURVE",
"380 464 LINE",
"232 464 LINE",
"232 541 LINE",
"232 555 OFFCURVE",
"220 568 OFFCURVE",
"205 568 CURVE",
"191 568 OFFCURVE",
"179 555 OFFCURVE",
"179 541 CURVE",
"179 532 OFFCURVE",
"182 528 OFFCURVE",
"189 516 CURVE SMOOTH",
"313 319 LINE SMOOTH",
"344 270 OFFCURVE",
"380 222 OFFCURVE",
"380 169 CURVE",
"380 165 LINE",
"380 68 OFFCURVE",
"302 -10 OFFCURVE",
"205 -10 CURVE",
"108 -10 OFFCURVE",
"30 68 OFFCURVE",
"30 165 CURVE",
"30 245 LINE",
"179 245 LINE",
"179 160 LINE",
"179 146 OFFCURVE",
"190 133 OFFCURVE",
"205 133 CURVE",
"220 133 OFFCURVE",
"232 146 OFFCURVE",
"232 160 CURVE SMOOTH",
"232 172 OFFCURVE",
"230 178 OFFCURVE",
"221 193 CURVE SMOOTH",
"101 389 LINE SMOOTH",
"74 433 OFFCURVE",
"30 488 OFFCURVE",
"30 531 CURVE SMOOTH",
"30 535 LINE"
);
}
);
width = 410;
}
);
leftKerningGroup = o;
rightKerningGroup = o;
unicode = 0073;
},
{
glyphname = u;
lastChange = "2021-08-30 16:27:47 +0000";
layers = (
{
guideLines = (
{
angle = 90;
position = "{257, 24}";
},
{
position = "{233, 35}";
}
);
layerId = "96BCCF85-5232-4835-A4EF-A1D5F093B6B0";
paths = (
{
closed = 1;
nodes = (
"380 700 LINE",
"380 0 LINE",
"261 0 LINE",
"261 35 LINE",
"251 35 LINE",
"241 12 OFFCURVE",
"201 -10 OFFCURVE",
"159 -10 CURVE SMOOTH",
"65 -10 OFFCURVE",
"30 68 OFFCURVE",
"30 165 CURVE",
"30 700 LINE",
"179 700 LINE",
"179 155 LINE",
"179 141 OFFCURVE",
"190 129 OFFCURVE",
"205 129 CURVE",
"219 129 OFFCURVE",
"230 141 OFFCURVE",
"230 155 CURVE",
"230 700 LINE"
);
}
);
width = 410;
}
);
leftKerningGroup = u;
rightKerningGroup = H;
unicode = 0075;
},
{
glyphname = uhorn;
lastChange = "2021-08-30 16:28:13 +0000";
layers = (
{
layerId = "96BCCF85-5232-4835-A4EF-A1D5F093B6B0";
paths = (
{
closed = 1;
nodes = (
"749 700 LINE",
"749 622 OFFCURVE",
"735 491 OFFCURVE",
"609 491 CURVE",
"609 0 LINE",
"477 0 LINE",
"477 109 LINE",
"462 109 LINE",
"433 37 OFFCURVE",
"383 -10 OFFCURVE",
"274 -10 CURVE",
"114 -10 OFFCURVE",
"30 119 OFFCURVE",
"30 279 CURVE",
"30 700 LINE",
"180 700 LINE",
"179 268 LINE SMOOTH",
"179 191 OFFCURVE",
"241 129 OFFCURVE",
"319 129 CURVE",
"396 129 OFFCURVE",
"458 191 OFFCURVE",
"458 268 CURVE SMOOTH",
"459 700 LINE",
"609 700 LINE",
"609 570 LINE",
"647 570 OFFCURVE",
"659 635 OFFCURVE",
"659 700 CURVE"
);
}
);
width = 779;
}
);
leftKerningGroup = U;
rightKerningGroup = Uhorn;
unicode = 01B0;
},
{
glyphname = w;
lastChange = "2021-08-30 16:28:19 +0000";
layers = (
{
layerId = "96BCCF85-5232-4835-A4EF-A1D5F093B6B0";
paths = (
{
closed = 1;
nodes = (
"312 -10 OFFCURVE",
"268 7 OFFCURVE",
"254 44 CURVE",
"244 44 LINE",
"228 7 OFFCURVE",
"185 -10 OFFCURVE",
"147 -10 CURVE",
"75 -10 OFFCURVE",
"30 49 OFFCURVE",
"30 121 CURVE",
"30 700 LINE",
"146 700 LINE",
"146 145 LINE",
"146 136 OFFCURVE",
"153 129 OFFCURVE",
"161 129 CURVE",
"170 129 OFFCURVE",
"177 136 OFFCURVE",
"177 145 CURVE",
"177 700 LINE",
"321 700 LINE",
"321 145 LINE",
"321 136 OFFCURVE",
"328 129 OFFCURVE",
"336 129 CURVE",
"345 129 OFFCURVE",
"352 136 OFFCURVE",
"352 145 CURVE",
"352 700 LINE",
"468 700 LINE",
"468 121 LINE",
"468 49 OFFCURVE",
"425 -10 OFFCURVE",
"347 -10 CURVE"
);
}
);
width = 499;
}
);
leftKerningGroup = u;
rightKerningGroup = u;
unicode = 0077;
},
{
glyphname = x;
lastChange = "2021-08-30 16:20:14 +0000";
layers = (
{
layerId = "96BCCF85-5232-4835-A4EF-A1D5F093B6B0";
paths = (
{
closed = 1;
nodes = (
"380 700 LINE",
"380 685 LINE",
"285 350 LINE",
"380 15 LINE",
"380 0 LINE",
"232 0 LINE",
"212 225 LINE",
"199 225 LINE",
"179 0 LINE",
"30 0 LINE",
"30 15 LINE",
"126 350 LINE",
"30 685 LINE",
"30 700 LINE",
"178 700 LINE",
"199 475 LINE",
"212 475 LINE",
"233 700 LINE"
);
}
);
width = 410;
}
);
leftKerningGroup = x;
rightKerningGroup = e;
unicode = 0078;
},
{
glyphname = z;
lastChange = "2021-08-30 16:20:34 +0000";
layers = (
{
layerId = "96BCCF85-5232-4835-A4EF-A1D5F093B6B0";
paths = (
{
closed = 1;
nodes = (
"330 570 LINE",
"180 149 LINE",
"180 129 LINE",
"330 129 LINE",
"330 0 LINE",
"30 0 LINE",
"30 134 LINE",
"180 550 LINE",
"180 570 LINE",
"30 570 LINE",
"30 700 LINE",
"330 700 LINE"
);
}
);
width = 362;
}
);
leftKerningGroup = Z;
rightKerningGroup = Z;
unicode = 007A;
},
{
glyphname = a.001;
lastChange = "2021-08-30 16:28:29 +0000";
layers = (
{
guideLines = (
{
position = "{559, 175}";
}
);
layerId = "96BCCF85-5232-4835-A4EF-A1D5F093B6B0";
paths = (
{
closed = 1;
nodes = (
"275 665 LINE",
"275 700 LINE",
"380 700 LINE",
"380 525 LINE",
"380 175 LINE",
"380 0 LINE",
"275 0 LINE",
"275 35 LINE",
"265 35 LINE",
"259 23 OFFCURVE",
"238 -10 OFFCURVE",
"180 -10 CURVE",
"93 -10 OFFCURVE",
"30 68 OFFCURVE",
"30 165 CURVE",
"30 535 LINE",
"30 632 OFFCURVE",
"89 710 OFFCURVE",
"186 710 CURVE",
"228 710 OFFCURVE",
"256 685 OFFCURVE",
"265 665 CURVE"
);
},
{
closed = 1;
nodes = (
"219 129 OFFCURVE",
"230 141 OFFCURVE",
"230 155 CURVE",
"230 543 LINE",
"230 558 OFFCURVE",
"219 570 OFFCURVE",
"204 570 CURVE",
"190 570 OFFCURVE",
"179 558 OFFCURVE",
"179 543 CURVE",
"179 155 LINE",
"179 141 OFFCURVE",
"190 129 OFFCURVE",
"204 129 CURVE"
);
}
);
width = 410;
}
);
leftKerningGroup = o;
rightKerningGroup = H;
rightMetricsKey = H;
},
{
glyphname = a.big;
lastChange = "2021-08-30 16:26:51 +0000";
layers = (
{
guideLines = (
{
angle = 90;
position = "{642, 464}";
},
{
angle = 90;
position = "{192, 746}";
},
{
angle = 90;
position = "{527, 733}";
},
{
angle = 90;
position = "{449, 683}";
}
);
layerId = "96BCCF85-5232-4835-A4EF-A1D5F093B6B0";
paths = (
{
closed = 1;
nodes = (
"729 700 LINE",
"729 0 LINE",
"590 0 LINE",
"590 88 LINE",
"575 88 LINE",
"526 14 OFFCURVE",
"449 -10 OFFCURVE",
"380 -10 CURVE",
"192 -10 OFFCURVE",
"30 151 OFFCURVE",
"30 350 CURVE",
"30 549 OFFCURVE",
"192 710 OFFCURVE",
"380 710 CURVE SMOOTH",
"449 710 OFFCURVE",
"527 686 OFFCURVE",
"575 613 CURVE",
"590 613 LINE",
"590 700 LINE"
);
},
{
closed = 1;
nodes = (
"510 132 OFFCURVE",
"610 231 OFFCURVE",
"610 350 CURVE",
"610 470 OFFCURVE",
"510 570 OFFCURVE",
"390 570 CURVE",
"271 570 OFFCURVE",
"172 470 OFFCURVE",
"172 350 CURVE",
"172 231 OFFCURVE",
"271 132 OFFCURVE",
"390 132 CURVE"
);
}
);
width = 759;
}
);
leftKerningGroup = O;
rightKerningGroup = H;
rightMetricsKey = H;
},
{
glyphname = e.big;
lastChange = "2021-08-30 16:27:20 +0000";
layers = (
{
layerId = "96BCCF85-5232-4835-A4EF-A1D5F093B6B0";
paths = (
{
closed = 1;
nodes = (
"750 270 LINE",
"173 270 LINE",
"193 200 OFFCURVE",
"268 122 OFFCURVE",
"390 122 CURVE SMOOTH",
"482 122 OFFCURVE",
"545 169 OFFCURVE",
"574 211 CURVE",
"722 211 LINE",
"722 196 LINE",
"659 65 OFFCURVE",
"530 -10 OFFCURVE",
"390 -10 CURVE",
"191 -10 OFFCURVE",
"30 136 OFFCURVE",
"30 350 CURVE",
"30 568 OFFCURVE",
"194 710 OFFCURVE",
"390 710 CURVE",
"587 710 OFFCURVE",
"750 570 OFFCURVE",
"750 350 CURVE"
);
},
{
closed = 1;
nodes = (
"608 427 LINE",
"581 504 OFFCURVE",
"504 582 OFFCURVE",
"390 582 CURVE",
"273 582 OFFCURVE",
"197 502 OFFCURVE",
"170 427 CURVE"
);
}
);
width = 780;
}
);
leftKerningGroup = O;
rightKerningGroup = O;
},
{
glyphname = u.big;
lastChange = "2021-08-30 16:28:07 +0000";
layers = (
{
guideLines = (
{
angle = 90;
position = "{583, 315}";
}
);
layerId = "96BCCF85-5232-4835-A4EF-A1D5F093B6B0";
paths = (
{
closed = 1;
nodes = (
"730 700 LINE",
"730 0 LINE",
"597 0 LINE",
"597 109 LINE",
"582 109 LINE",
"550 47 OFFCURVE",
"483 -10 OFFCURVE",
"380 -10 CURVE",
"186 -10 OFFCURVE",
"30 147 OFFCURVE",
"30 340 CURVE",
"30 700 LINE",
"180 700 LINE",
"183 326 LINE",
"183 217 OFFCURVE",
"271 129 OFFCURVE",
"380 129 CURVE",
"489 129 OFFCURVE",
"577 217 OFFCURVE",
"577 326 CURVE",
"580 700 LINE"
);
}
);
width = 760;
}
);
leftKerningGroup = U;
rightKerningGroup = H;
rightMetricsKey = H;
},
{
glyphname = i.001;
lastChange = "2021-08-30 16:28:34 +0000";
layers = (
{
layerId = "96BCCF85-5232-4835-A4EF-A1D5F093B6B0";
paths = (
{
closed = 1;
nodes = (
"180 0 LINE",
"30 0 LINE",
"30 700 LINE",
"180 700 LINE"
);
}
);
width = 210;
}
);
leftKerningGroup = H;
leftMetricsKey = B;
rightKerningGroup = H;
rightMetricsKey = H;
},
{
glyphname = r.001;
lastChange = "2021-08-30 16:28:36 +0000";
layers = (
{
layerId = "96BCCF85-5232-4835-A4EF-A1D5F093B6B0";
paths = (
{
closed = 1;
nodes = (
"380 502 OFFCURVE",
"380 390 OFFCURVE",
"380 389 CURVE SMOOTH",
"379 314 OFFCURVE",
"340 264 OFFCURVE",
"318 244 CURVE",
"318 234 LINE",
"370 166 OFFCURVE",
"380 0 OFFCURVE",
"380 0 CURVE",
"231 0 LINE",
"231 140 OFFCURVE",
"179 140 OFFCURVE",
"179 140 CURVE",
"179 0 LINE",
"30 0 LINE",
"30 700 LINE",
"184 700 LINE",
"292 700 OFFCURVE",
"380 612 OFFCURVE",
"380 503 CURVE"
);
},
{
closed = 1;
nodes = (
"215 322 OFFCURVE",
"230 335 OFFCURVE",
"230 353 CURVE SMOOTH",
"230 362 OFFCURVE",
"230 538 OFFCURVE",
"230 538 CURVE",
"230 556 OFFCURVE",
"215 570 OFFCURVE",
"198 570 CURVE",
"179 570 LINE",
"179 322 LINE",
"198 322 LINE"
);
}
);
width = 410;
}
);
leftKerningGroup = H;
leftMetricsKey = B;
rightKerningGroup = G;
},
{
glyphname = v.001;
lastChange = "2021-08-30 16:28:38 +0000";
layers = (
{
layerId = "96BCCF85-5232-4835-A4EF-A1D5F093B6B0";
paths = (
{
closed = 1;
nodes = (
"380 700 LINE",
"380 685 LINE",
"298 77 LINE",
"289 32 OFFCURVE",
"250 0 OFFCURVE",
"205 0 CURVE",
"160 0 OFFCURVE",
"121 32 OFFCURVE",
"112 77 CURVE",
"30 685 LINE",
"30 700 LINE",
"179 700 LINE",
"198 220 LINE",
"211 220 LINE",
"230 700 LINE"
);
}
);
width = 410;
}
);
leftKerningGroup = V;
rightKerningGroup = V;
},
{
glyphname = y.001;
lastChange = "2021-08-30 16:28:40 +0000";
layers = (
{
layerId = "96BCCF85-5232-4835-A4EF-A1D5F093B6B0";
paths = (
{
closed = 1;
nodes = (
"380 700 LINE",
"380 165 LINE",
"380 68 OFFCURVE",
"302 -10 OFFCURVE",
"205 -10 CURVE",
"108 -10 OFFCURVE",
"30 68 OFFCURVE",
"30 165 CURVE",
"30 220 LINE",
"179 220 LINE",
"179 153 LINE",
"179 140 OFFCURVE",
"191 128 OFFCURVE",
"204 128 CURVE",
"218 128 OFFCURVE",
"230 140 OFFCURVE",
"230 154 CURVE",
"230 263 LINE",
"205 263 LINE",
"108 263 OFFCURVE",
"30 341 OFFCURVE",
"30 438 CURVE",
"30 700 LINE",
"179 700 LINE",
"179 427 LINE",
"179 413 OFFCURVE",
"190 402 OFFCURVE",
"204 402 CURVE",
"218 402 OFFCURVE",
"230 413 OFFCURVE",
"230 427 CURVE",
"230 700 LINE"
);
}
);
width = 410;
}
);
leftKerningGroup = u;
rightKerningGroup = u;
},
{
glyphname = y.002;
lastChange = "2021-08-30 16:28:44 +0000";
layers = (
{
layerId = "96BCCF85-5232-4835-A4EF-A1D5F093B6B0";
paths = (
{
closed = 1;
nodes = (
"230 700 LINE",
"380 700 LINE",
"380 438 LINE",
"380 368 OFFCURVE",
"339 308 OFFCURVE",
"280 279 CURVE",
"280 0 LINE",
"129 0 LINE",
"129 280 LINE",
"71 308 OFFCURVE",
"30 368 OFFCURVE",
"30 438 CURVE",
"30 700 LINE",
"179 700 LINE",
"179 428 LINE",
"179 413 OFFCURVE",
"190 402 OFFCURVE",
"204 402 CURVE",
"218 402 OFFCURVE",
"230 413 OFFCURVE",
"230 428 CURVE"
);
}
);
width = 410;
}
);
leftKerningGroup = V;
rightKerningGroup = V;
},
{
glyphname = one;
lastChange = "2021-08-30 16:28:49 +0000";
layers = (
{
layerId = "96BCCF85-5232-4835-A4EF-A1D5F093B6B0";
paths = (
{
closed = 1;
nodes = (
"300 129 LINE",
"380 129 LINE",
"380 0 LINE",
"30 0 LINE",
"30 129 LINE",
"149 129 LINE",
"149 500 LINE",
"60 418 LINE",
"30 418 LINE",
"30 578 LINE",
"149 700 LINE",
"300 700 LINE"
);
}
);
width = 410;
}
);
leftKerningGroup = one;
rightKerningGroup = one;
unicode = 0031;
},
{
glyphname = two;
lastChange = "2021-08-30 16:28:51 +0000";
layers = (
{
guideLines = (
{
position = "{200, 462}";
}
);
layerId = "96BCCF85-5232-4835-A4EF-A1D5F093B6B0";
paths = (
{
closed = 1;
nodes = (
"301 710 OFFCURVE",
"380 632 OFFCURVE",
"380 535 CURVE",
"380 531 LINE",
"380 422 OFFCURVE",
"342 376 OFFCURVE",
"265 299 CURVE SMOOTH",
"217 251 OFFCURVE",
"187 192 OFFCURVE",
"187 129 CURVE",
"380 129 LINE",
"380 0 LINE",
"30 0 LINE",
"30 62 LINE",
"30 189 OFFCURVE",
"52 285 OFFCURVE",
"150 365 CURVE",
"211 419 OFFCURVE",
"229 462 OFFCURVE",
"229 492 CURVE",
"229 546 LINE",
"229 559 OFFCURVE",
"218 570 OFFCURVE",
"205 570 CURVE",
"191 570 OFFCURVE",
"180 559 OFFCURVE",
"180 546 CURVE",
"180 462 LINE",
"30 462 LINE",
"30 535 LINE",
"30 632 OFFCURVE",
"108 710 OFFCURVE",
"205 710 CURVE"
);
}
);
width = 410;
}
);
leftKerningGroup = o;
rightKerningGroup = G;
unicode = 0032;
},
{
glyphname = three;
lastChange = "2021-08-30 16:28:52 +0000";
layers = (
{
guideLines = (
{
position = "{200, 462}";
}
);
layerId = "96BCCF85-5232-4835-A4EF-A1D5F093B6B0";
paths = (
{
closed = 1;
nodes = (
"380 500 LINE",
"379 448 OFFCURVE",
"350 394 OFFCURVE",
"300 375 CURVE",
"300 359 LINE",
"351 342 OFFCURVE",
"380 282 OFFCURVE",
"380 233 CURVE",
"380 170 LINE",
"380 70 OFFCURVE",
"301 -10 OFFCURVE",
"205 -10 CURVE",
"108 -10 OFFCURVE",
"30 70 OFFCURVE",
"30 170 CURVE",
"30 238 LINE",
"180 238 LINE",
"180 153 LINE",
"180 140 OFFCURVE",
"191 129 OFFCURVE",
"205 129 CURVE",
"218 129 OFFCURVE",
"229 140 OFFCURVE",
"229 154 CURVE",
"229 250 LINE",
"229 263 OFFCURVE",
"218 275 OFFCURVE",
"205 275 CURVE",
"108 275 LINE",
"108 425 LINE",
"205 425 LINE",
"218 425 OFFCURVE",
"229 436 OFFCURVE",
"229 449 CURVE",
"229 545 LINE",
"229 558 OFFCURVE",
"218 570 OFFCURVE",
"205 570 CURVE",
"191 570 OFFCURVE",
"180 559 OFFCURVE",
"180 545 CURVE",
"180 462 LINE",
"30 462 LINE",
"30 530 LINE",
"30 630 OFFCURVE",
"108 710 OFFCURVE",
"205 710 CURVE",
"301 710 OFFCURVE",
"380 630 OFFCURVE",
"380 530 CURVE"
);
}
);
width = 410;
}
);
leftKerningGroup = o;
rightKerningGroup = o;
unicode = 0033;
},
{
glyphname = four;
lastChange = "2021-08-30 16:28:56 +0000";
layers = (
{
layerId = "96BCCF85-5232-4835-A4EF-A1D5F093B6B0";
paths = (
{
closed = 1;
nodes = (
"230 0 LINE",
"230 144 LINE",
"30 144 LINE",
"30 294 LINE",
"138 700 LINE",
"287 700 LINE",
"287 685 LINE",
"151 309 LINE",
"151 294 LINE",
"230 294 LINE",
"230 438 LINE",
"360 438 LINE",
"360 0 LINE"
);
}
);
width = 390;
}
);
leftKerningGroup = four;
rightKerningGroup = four;
unicode = 0034;
},
{
glyphname = five;
lastChange = "2021-08-30 16:28:57 +0000";
layers = (
{
guideLines = (
{
position = "{315, 441}";
},
{
angle = 90;
position = "{322, 473}";
}
);
layerId = "96BCCF85-5232-4835-A4EF-A1D5F093B6B0";
paths = (
{
closed = 1;
nodes = (
"370 700 LINE",
"370 570 LINE",
"180 570 LINE",
"180 473 LINE",
"195 473 LINE",
"209 495 OFFCURVE",
"241 500 OFFCURVE",
"269 500 CURVE SMOOTH",
"360 500 OFFCURVE",
"380 411 OFFCURVE",
"380 325 CURVE",
"380 165 LINE",
"380 68 OFFCURVE",
"301 -10 OFFCURVE",
"205 -10 CURVE",
"108 -10 OFFCURVE",
"30 68 OFFCURVE",
"30 165 CURVE",
"30 226 LINE",
"180 226 LINE",
"180 153 LINE",
"180 140 OFFCURVE",
"191 129 OFFCURVE",
"205 129 CURVE",
"218 129 OFFCURVE",
"229 140 OFFCURVE",
"229 153 CURVE",
"229 325 LINE",
"229 331 OFFCURVE",
"226 338 OFFCURVE",
"222 342 CURVE",
"218 347 OFFCURVE",
"211 349 OFFCURVE",
"205 349 CURVE",
"191 349 OFFCURVE",
"180 338 OFFCURVE",
"180 325 CURVE",
"180 286 LINE",
"30 286 LINE",
"30 325 LINE",
"30 700 LINE"
);
}
);
width = 410;
}
);
leftKerningGroup = u;
rightKerningGroup = u;
unicode = 0035;
},
{
glyphname = six;
lastChange = "2021-08-30 16:28:59 +0000";
layers = (
{
layerId = "96BCCF85-5232-4835-A4EF-A1D5F093B6B0";
paths = (
{
closed = 1;
nodes = (
"190 570 OFFCURVE",
"179 558 OFFCURVE",
"179 544 CURVE",
"179 420 LINE",
"194 420 LINE",
"216 447 OFFCURVE",
"264 448 OFFCURVE",
"286 441 CURVE SMOOTH",
"381 411 OFFCURVE",
"380 321 OFFCURVE",
"380 263 CURVE",
"380 165 LINE",
"380 68 OFFCURVE",
"301 -10 OFFCURVE",
"205 -10 CURVE",
"108 -10 OFFCURVE",
"30 68 OFFCURVE",
"30 165 CURVE",
"30 535 LINE",
"30 632 OFFCURVE",
"108 710 OFFCURVE",
"205 710 CURVE",
"301 710 OFFCURVE",
"380 631 OFFCURVE",
"380 534 CURVE",
"380 500 LINE",
"230 500 LINE",
"230 544 LINE",
"230 558 OFFCURVE",
"219 570 OFFCURVE",
"205 570 CURVE"
);
},
{
closed = 1;
nodes = (
"190 311 OFFCURVE",
"179 300 OFFCURVE",
"179 286 CURVE",
"179 154 LINE",
"179 140 OFFCURVE",
"190 129 OFFCURVE",
"205 129 CURVE",
"219 129 OFFCURVE",
"230 140 OFFCURVE",
"230 154 CURVE",
"230 286 LINE",
"230 300 OFFCURVE",
"218 311 OFFCURVE",
"205 311 CURVE"
);
}
);
width = 410;
}
);
leftKerningGroup = o;
rightKerningGroup = o;
unicode = 0036;
},
{
glyphname = seven;
lastChange = "2021-08-30 16:29:03 +0000";
layers = (
{
layerId = "96BCCF85-5232-4835-A4EF-A1D5F093B6B0";
paths = (
{
closed = 1;
nodes = (
"30 700 LINE",
"380 700 LINE",
"380 623 LINE",
"205 0 LINE",
"44 0 LINE",
"219 550 LINE",
"219 570 LINE",
"30 570 LINE"
);
}
);
width = 410;
}
);
leftKerningGroup = seven;
rightKerningGroup = V;
unicode = 0037;
},
{
glyphname = eight;
lastChange = "2021-08-30 16:29:06 +0000";
layers = (
{
guideLines = (
{
position = "{315, 441}";
},
{
position = "{381, 418}";
},
{
position = "{375, 370}";
}
);
layerId = "96BCCF85-5232-4835-A4EF-A1D5F093B6B0";
paths = (
{
closed = 1;
nodes = (
"380 477 OFFCURVE",
"353 420 OFFCURVE",
"300 402 CURVE",
"300 389 LINE",
"353 374 OFFCURVE",
"380 329 OFFCURVE",
"380 261 CURVE",
"380 170 LINE",
"380 70 OFFCURVE",
"301 -10 OFFCURVE",
"205 -10 CURVE",
"108 -10 OFFCURVE",
"30 70 OFFCURVE",
"30 170 CURVE",
"30 261 LINE",
"30 313 OFFCURVE",
"55 371 OFFCURVE",
"110 389 CURVE",
"110 402 LINE",
"55 418 OFFCURVE",
"30 477 OFFCURVE",
"30 530 CURVE",
"30 630 OFFCURVE",
"108 710 OFFCURVE",
"205 710 CURVE",
"301 710 OFFCURVE",
"380 630 OFFCURVE",
"380 530 CURVE"
);
},
{
closed = 1;
nodes = (
"230 285 LINE",
"230 298 OFFCURVE",
"219 311 OFFCURVE",
"205 311 CURVE",
"190 311 OFFCURVE",
"179 299 OFFCURVE",
"179 285 CURVE",
"179 155 LINE",
"179 140 OFFCURVE",
"190 129 OFFCURVE",
"205 129 CURVE",
"219 129 OFFCURVE",
"230 140 OFFCURVE",
"230 155 CURVE"
);
},
{
closed = 1;
nodes = (
"219 477 OFFCURVE",
"230 489 OFFCURVE",
"230 503 CURVE",
"230 543 LINE",
"230 558 OFFCURVE",
"219 570 OFFCURVE",
"205 570 CURVE",
"190 570 OFFCURVE",
"179 558 OFFCURVE",
"179 543 CURVE",
"179 503 LINE",
"179 489 OFFCURVE",
"190 477 OFFCURVE",
"205 477 CURVE"
);
}
);
width = 410;
}
);
leftKerningGroup = o;
rightKerningGroup = o;
unicode = 0038;
},
{
glyphname = period;
lastChange = "2021-08-30 16:29:25 +0000";
layers = (
{
layerId = "96BCCF85-5232-4835-A4EF-A1D5F093B6B0";
paths = (
{
closed = 1;
nodes = (
"210 31 OFFCURVE",
"170 -10 OFFCURVE",
"120 -10 CURVE",
"71 -10 OFFCURVE",
"30 31 OFFCURVE",
"30 80 CURVE",
"30 130 OFFCURVE",
"71 169 OFFCURVE",
"120 169 CURVE",
"170 169 OFFCURVE",
"210 130 OFFCURVE",
"210 80 CURVE"
);
}
);
width = 240;
}
);
leftKerningGroup = period;
rightKerningGroup = period;
unicode = 002E;
},
{
glyphname = comma;
lastChange = "2021-08-30 16:29:27 +0000";
layers = (
{
layerId = "96BCCF85-5232-4835-A4EF-A1D5F093B6B0";
paths = (
{
closed = 1;
nodes = (
"169 129 LINE",
"169 109 LINE",
"91 -71 LINE",
"30 -71 LINE",
"60 129 LINE"
);
}
);
width = 199;
}
);
leftKerningGroup = period;
rightKerningGroup = period;
unicode = 002C;
},
{
glyphname = exclam;
lastChange = "2021-08-30 16:29:34 +0000";
layers = (
{
guideLines = (
{
position = "{216, 228}";
},
{
angle = 90;
position = "{60, 211}";
},
{
angle = 90;
position = "{150, 211}";
}
);
layerId = "96BCCF85-5232-4835-A4EF-A1D5F093B6B0";
paths = (
{
closed = 1;
nodes = (
"150 190 LINE",
"60 190 LINE",
"30 700 LINE",
"180 700 LINE"
);
},
{
closed = 1;
nodes = (
"160 129 LINE",
"160 0 LINE",
"50 0 LINE",
"50 129 LINE"
);
}
);
width = 210;
}
);
unicode = 0021;
},
{
glyphname = question;
lastChange = "2021-08-30 16:29:36 +0000";
layers = (
{
guideLines = (
{
angle = 90;
position = "{232, 155}";
},
{
position = "{219, 228}";
},
{
position = "{-11, 190}";
},
{
angle = 90;
position = "{130, 158}";
}
);
layerId = "96BCCF85-5232-4835-A4EF-A1D5F093B6B0";
paths = (
{
closed = 1;
nodes = (
"302 700 OFFCURVE",
"380 622 OFFCURVE",
"380 525 CURVE SMOOTH",
"380 389 OFFCURVE",
"244 385 OFFCURVE",
"244 190 CURVE",
"142 190 LINE",
"142 432 OFFCURVE",
"250 448 OFFCURVE",
"245 530 CURVE SMOOTH",
"244 552 OFFCURVE",
"227 570 OFFCURVE",
"205 570 CURVE SMOOTH",
"184 570 OFFCURVE",
"166 552 OFFCURVE",
"166 530 CURVE SMOOTH",
"166 432 LINE",
"30 432 LINE",
"30 525 LINE",
"30 622 OFFCURVE",
"109 700 OFFCURVE",
"205 700 CURVE"
);
},
{
closed = 1;
nodes = (
"248 129 LINE",
"248 0 LINE",
"138 0 LINE",
"138 129 LINE"
);
}
);
width = 410;
}
);
leftKerningGroup = o;
rightKerningGroup = p;
unicode = 003F;
},
{
glyphname = asterisk;
lastChange = "2021-08-30 16:29:42 +0000";
layers = (
{
layerId = "96BCCF85-5232-4835-A4EF-A1D5F093B6B0";
paths = (
{
closed = 1;
nodes = (
"226 700 LINE",
"226 300 LINE",
"196 300 LINE",
"196 700 LINE"
);
},
{
closed = 1;
nodes = (
"46 613 LINE",
"392 413 LINE",
"377 387 LINE",
"31 587 LINE"
);
},
{
closed = 1;
nodes = (
"30 413 LINE",
"376 613 LINE",
"391 587 LINE",
"45 387 LINE"
);
}
);
width = 422;
}
);
unicode = 002A;
},
{
glyphname = numbersign;
lastChange = "2021-08-30 16:29:47 +0000";
layers = (
{
guideLines = (
{
angle = 90;
position = "{504, 731}";
}
);
layerId = "96BCCF85-5232-4835-A4EF-A1D5F093B6B0";
paths = (
{
closed = 1;
nodes = (
"387 472 LINE",
"534 472 LINE",
"534 442 LINE",
"387 442 LINE",
"387 258 LINE",
"534 258 LINE",
"534 228 LINE",
"387 228 LINE",
"387 0 LINE",
"357 0 LINE",
"357 228 LINE",
"207 228 LINE",
"207 0 LINE",
"177 0 LINE",
"177 228 LINE",
"30 228 LINE",
"30 258 LINE",
"177 258 LINE",
"177 442 LINE",
"30 442 LINE",
"30 472 LINE",
"177 472 LINE",
"177 700 LINE",
"207 700 LINE",
"207 472 LINE",
"357 472 LINE",
"357 700 LINE",
"387 700 LINE"
);
},
{
closed = 1;
nodes = (
"357 442 LINE",
"207 442 LINE",
"207 258 LINE",
"357 258 LINE"
);
}
);
width = 564;
}
);
unicode = 0023;
},
{
glyphname = slash;
lastChange = "2021-08-30 16:29:50 +0000";
layers = (
{
layerId = "96BCCF85-5232-4835-A4EF-A1D5F093B6B0";
paths = (
{
closed = 1;
nodes = (
"30 -31 LINE",
"205 741 LINE",
"230 741 LINE",
"230 726 LINE",
"55 -46 LINE",
"30 -46 LINE"
);
}
);
width = 260;
}
);
leftKerningGroup = a;
rightKerningGroup = V;
unicode = 002F;
},
{
glyphname = exclam.001;
lastChange = "2021-08-30 16:30:01 +0000";
layers = (
{
guideLines = (
{
position = "{246, 228}";
},
{
angle = 90;
position = "{90, 211}";
},
{
angle = 90;
position = "{180, 211}";
}
);
layerId = "96BCCF85-5232-4835-A4EF-A1D5F093B6B0";
paths = (
{
closed = 1;
nodes = (
"636 679 LINE",
"574 494 LINE",
"730 471 LINE",
"604 350 LINE",
"730 229 LINE",
"574 206 LINE",
"636 21 LINE",
"492 100 LINE",
"473 -100 LINE",
"380 61 LINE",
"286 -100 LINE",
"267 100 LINE",
"123 21 LINE",
"185 206 LINE",
"30 229 LINE",
"155 350 LINE",
"30 471 LINE",
"185 494 LINE",
"123 679 LINE",
"267 600 LINE",
"286 800 LINE",
"380 639 LINE",
"473 800 LINE",
"492 600 LINE"
);
},
{
closed = 1;
nodes = (
"405 259 LINE",
"423 550 LINE",
"337 550 LINE",
"354 259 LINE"
);
},
{
closed = 1;
nodes = (
"348 150 LINE",
"411 150 LINE",
"411 224 LINE",
"348 224 LINE"
);
}
);
width = 760;
}
);
leftKerningGroup = O;
rightKerningGroup = O;
},
{
glyphname = hyphen;
lastChange = "2021-08-30 16:30:06 +0000";
layers = (
{
layerId = "96BCCF85-5232-4835-A4EF-A1D5F093B6B0";
paths = (
{
closed = 1;
nodes = (
"30 379 LINE",
"30 409 LINE",
"293 409 LINE",
"293 379 LINE"
);
}
);
width = 323;
}
);
leftKerningGroup = center;
rightKerningGroup = center;
unicode = 002D;
},
{
glyphname = endash;
lastChange = "2021-08-30 16:30:08 +0000";
layers = (
{
layerId = "96BCCF85-5232-4835-A4EF-A1D5F093B6B0";
paths = (
{
closed = 1;
nodes = (
"30 379 LINE",
"30 409 LINE",
"380 409 LINE",
"380 379 LINE"
);
}
);
width = 410;
}
);
leftKerningGroup = center;
rightKerningGroup = center;
unicode = 2013;
},
{
glyphname = emdash;
lastChange = "2021-08-30 16:30:10 +0000";
layers = (
{
layerId = "96BCCF85-5232-4835-A4EF-A1D5F093B6B0";
paths = (
{
closed = 1;
nodes = (
"30 379 LINE",
"30 409 LINE",
"730 409 LINE",
"730 379 LINE"
);
}
);
width = 760;
}
);
leftKerningGroup = center;
rightKerningGroup = center;
unicode = 2014;
},
{
glyphname = parenleft;
lastChange = "2021-08-30 16:30:14 +0000";
layers = (
{
guideLines = (
{
position = "{-206, -50}";
},
{
position = "{47, 580}";
},
{
position = "{47, 122}";
}
);
layerId = "96BCCF85-5232-4835-A4EF-A1D5F093B6B0";
paths = (
{
closed = 1;
nodes = (
"30 637 OFFCURVE",
"224 737 OFFCURVE",
"232 741 CURVE",
"246 710 LINE",
"184 679 OFFCURVE",
"60 575 OFFCURVE",
"60 348 CURVE",
"60 118 OFFCURVE",
"194 4 OFFCURVE",
"246 -15 CURVE",
"232 -46 LINE",
"224 -42 OFFCURVE",
"30 59 OFFCURVE",
"30 348 CURVE"
);
}
);
width = 276;
}
);
leftKerningGroup = paren;
rightKerningGroup = parenleft;
unicode = 0028;
},
{
glyphname = braceleft;
lastChange = "2021-08-30 16:30:20 +0000";
layers = (
{
guideLines = (
{
angle = 90;
position = "{237, 807}";
}
);
layerId = "96BCCF85-5232-4835-A4EF-A1D5F093B6B0";
paths = (
{
closed = 1;
nodes = (
"117 670 OFFCURVE",
"196 750 OFFCURVE",
"292 750 CURVE",
"292 720 LINE",
"237 720 OFFCURVE",
"147 670 OFFCURVE",
"147 570 CURVE SMOOTH",
"147 485 LINE SMOOTH",
"147 420 OFFCURVE",
"133 389 OFFCURVE",
"69 357 CURVE",
"69 342 LINE",
"133 307 OFFCURVE",
"147 270 OFFCURVE",
"147 189 CURVE SMOOTH",
"147 129 LINE SMOOTH",
"147 15 OFFCURVE",
"237 -18 OFFCURVE",
"292 -18 CURVE",
"293 -54 LINE",
"196 -54 OFFCURVE",
"117 15 OFFCURVE",
"117 130 CURVE SMOOTH",
"117 189 LINE SMOOTH",
"117 274 OFFCURVE",
"78 305 OFFCURVE",
"30 335 CURVE",
"30 365 LINE",
"73 389 OFFCURVE",
"117 400 OFFCURVE",
"117 485 CURVE",
"117 570 LINE"
);
}
);
width = 323;
}
);
leftKerningGroup = parenleft;
rightKerningGroup = parenleft;
unicode = 007B;
},
{
glyphname = bracketleft;
lastChange = "2021-08-30 16:30:23 +0000";
layers = (
{
layerId = "96BCCF85-5232-4835-A4EF-A1D5F093B6B0";
paths = (
{
closed = 1;
nodes = (
"60 710 LINE",
"60 -10 LINE",
"158 -10 LINE",
"158 -40 LINE",
"30 -40 LINE",
"30 740 LINE",
"158 740 LINE",
"158 710 LINE"
);
}
);
width = 208;
}
);
leftKerningGroup = parenleft;
rightKerningGroup = parenleft;
unicode = 005B;
},
{
glyphname = quotedbl;
lastChange = "2021-08-30 16:30:26 +0000";
layers = (
{
guideLines = (
{
position = "{302, 535}";
},
{
position = "{182, 740}";
}
);
layerId = "96BCCF85-5232-4835-A4EF-A1D5F093B6B0";
paths = (
{
closed = 1;
nodes = (
"40 535 LINE",
"30 720 LINE",
"30 740 LINE",
"80 740 LINE",
"80 720 LINE",
"70 535 LINE"
);
},
{
closed = 1;
nodes = (
"120 535 LINE",
"110 720 LINE",
"110 740 LINE",
"160 740 LINE",
"160 720 LINE",
"150 535 LINE"
);
}
);
width = 190;
}
);
leftKerningGroup = above;
rightKerningGroup = above;
unicode = 0022;
},
{
glyphname = quotesingle;
lastChange = "2021-08-30 16:30:28 +0000";
layers = (
{
guideLines = (
{
position = "{193, 740}";
},
{
position = "{313, 535}";
}
);
layerId = "96BCCF85-5232-4835-A4EF-A1D5F093B6B0";
paths = (
{
closed = 1;
nodes = (
"40 535 LINE",
"30 720 LINE",
"30 740 LINE",
"80 740 LINE",
"80 720 LINE",
"71 535 LINE"
);
}
);
width = 110;
}
);
leftKerningGroup = above;
rightKerningGroup = above;
unicode = 0027;
},
{
glyphname = whiteSmilingFace;
lastChange = "2021-08-30 16:30:31 +0000";
layers = (
{
components = (
{
name = period;
transform = "{0.7, 0, 0, 0.7, 124, 358}";
},
{
name = period;
transform = "{0.7, 0, 0, 0.7, 386, 358}";
},
{
name = brevecomb;
transform = "{0.556, 0, 0, 1, 195, -593}";
}
);
guideLines = (
{
angle = 90;
position = "{410, 773}";
},
{
position = "{710, 350}";
},
{
angle = 90;
position = "{212, 366}";
}
);
layerId = "96BCCF85-5232-4835-A4EF-A1D5F093B6B0";
paths = (
{
closed = 1;
nodes = (
"550 710 OFFCURVE",
"672 553 OFFCURVE",
"672 350 CURVE SMOOTH",
"672 147 OFFCURVE",
"550 -10 OFFCURVE",
"351 -10 CURVE",
"151 -10 OFFCURVE",
"30 147 OFFCURVE",
"30 350 CURVE SMOOTH",
"30 553 OFFCURVE",
"151 710 OFFCURVE",
"351 710 CURVE"
);
},
{
closed = 1;
nodes = (
"642 537 OFFCURVE",
"539 678 OFFCURVE",
"353 678 CURVE SMOOTH",
"164 678 OFFCURVE",
"60 540 OFFCURVE",
"60 348 CURVE SMOOTH",
"60 157 OFFCURVE",
"164 22 OFFCURVE",
"353 22 CURVE SMOOTH",
"539 22 OFFCURVE",
"642 160 OFFCURVE",
"642 348 CURVE SMOOTH"
);
}
);
width = 702;
}
);
leftKerningGroup = O;
rightKerningGroup = O;
unicode = 263A;
},
{
glyphname = at;
lastChange = "2021-09-10 15:11:48 +0000";
layers = (
{
guideLines = (
{
angle = 90;
position = "{332, 225}";
},
{
angle = 90;
position = "{366, 486}";
}
);
layerId = "96BCCF85-5232-4835-A4EF-A1D5F093B6B0";
paths = (
{
closed = 1;
nodes = (
"370 710 OFFCURVE",
"468 619 OFFCURVE",
"468 498 CURVE",
"468 303 LINE",
"468 229 OFFCURVE",
"407 167 OFFCURVE",
"332 167 CURVE",
"257 167 OFFCURVE",
"196 229 OFFCURVE",
"196 303 CURVE",
"196 394 LINE",
"196 470 OFFCURVE",
"254 549 OFFCURVE",
"366 507 CURVE",
"373 515 LINE",
"346 566 OFFCURVE",
"310 585 OFFCURVE",
"253 580 CURVE SMOOTH",
"191 575 OFFCURVE",
"142 522 OFFCURVE",
"142 461 CURVE",
"142 240 LINE SMOOTH",
"142 178 OFFCURVE",
"181 129 OFFCURVE",
"253 129 CURVE SMOOTH",
"430 129 LINE",
"430 0 LINE",
"249 0 LINE",
"128 0 OFFCURVE",
"30 98 OFFCURVE",
"30 219 CURVE",
"30 491 LINE",
"30 612 OFFCURVE",
"128 710 OFFCURVE",
"249 710 CURVE"
);
},
{
closed = 1;
nodes = (
"366 392 LINE",
"366 412 OFFCURVE",
"351 428 OFFCURVE",
"332 428 CURVE",
"312 428 OFFCURVE",
"297 412 OFFCURVE",
"297 392 CURVE",
"297 322 LINE",
"297 302 OFFCURVE",
"312 287 OFFCURVE",
"332 287 CURVE",
"351 287 OFFCURVE",
"366 302 OFFCURVE",
"366 322 CURVE"
);
}
);
width = 498;
}
);
leftKerningGroup = o;
rightKerningGroup = G;
unicode = 0040;
},
{
glyphname = ampersand;
lastChange = "2021-08-30 16:30:43 +0000";
layers = (
{
guideLines = (
{
position = "{327, 120}";
},
{
angle = 90;
position = "{259, 429}";
},
{
position = "{172, 415}";
},
{
position = "{285, 350}";
}
);
layerId = "96BCCF85-5232-4835-A4EF-A1D5F093B6B0";
paths = (
{
closed = 1;
nodes = (
"389 350 LINE",
"389 210 LINE",
"389 160 OFFCURVE",
"430 120 OFFCURVE",
"479 120 CURVE",
"479 -10 LINE",
"410 -10 OFFCURVE",
"362 29 OFFCURVE",
"354 63 CURVE",
"334 63 LINE",
"326 26 OFFCURVE",
"281 -10 OFFCURVE",
"210 -10 CURVE SMOOTH",
"110 -10 OFFCURVE",
"30 71 OFFCURVE",
"30 170 CURVE",
"30 289 LINE SMOOTH",
"30 366 OFFCURVE",
"78 395 OFFCURVE",
"110 405 CURVE",
"110 425 LINE",
"30 463 LINE",
"30 613 LINE",
"450 710 LINE",
"450 580 LINE",
"160 540 LINE",
"160 520 LINE",
"450 459 LINE",
"450 329 LINE"
);
},
{
closed = 1;
nodes = (
"259 350 LINE",
"210 350 LINE",
"182 350 OFFCURVE",
"160 329 OFFCURVE",
"160 302 CURVE",
"160 170 LINE",
"160 142 OFFCURVE",
"183 120 OFFCURVE",
"210 120 CURVE SMOOTH",
"236 120 OFFCURVE",
"259 142 OFFCURVE",
"259 170 CURVE"
);
}
);
width = 509;
}
);
leftKerningGroup = H;
rightKerningGroup = H;
unicode = 0026;
},
{
glyphname = paragraph;
lastChange = "2021-08-30 16:30:46 +0000";
layers = (
{
layerId = "96BCCF85-5232-4835-A4EF-A1D5F093B6B0";
paths = (
{
closed = 1;
nodes = (
"307 700 LINE",
"337 700 LINE",
"337 0 LINE",
"307 0 LINE"
);
},
{
closed = 1;
nodes = (
"30 612 OFFCURVE",
"118 700 OFFCURVE",
"227 700 CURVE",
"257 700 LINE",
"257 0 LINE",
"227 0 LINE",
"227 306 LINE",
"118 306 OFFCURVE",
"30 394 OFFCURVE",
"30 503 CURVE"
);
}
);
width = 367;
}
);
unicode = 00B6;
},
{
glyphname = section;
lastChange = "2021-09-07 16:35:51 +0000";
layers = (
{
layerId = "96BCCF85-5232-4835-A4EF-A1D5F093B6B0";
paths = (
{
closed = 1;
nodes = (
"30 404 OFFCURVE",
"54 426 OFFCURVE",
"92 445 CURVE",
"92 465 LINE",
"51 494 OFFCURVE",
"30 538 OFFCURVE",
"30 586 CURVE SMOOTH",
"30 673 OFFCURVE",
"101 743 OFFCURVE",
"188 743 CURVE SMOOTH",
"275 743 OFFCURVE",
"345 673 OFFCURVE",
"345 586 CURVE",
"314 586 LINE",
"314 655 OFFCURVE",
"256 711 OFFCURVE",
"188 711 CURVE SMOOTH",
"119 711 OFFCURVE",
"61 655 OFFCURVE",
"61 586 CURVE SMOOTH",
"61 516 OFFCURVE",
"121 465 OFFCURVE",
"188 460 CURVE SMOOTH",
"288 452 OFFCURVE",
"345 422 OFFCURVE",
"345 349 CURVE SMOOTH",
"345 328 OFFCURVE",
"335 287 OFFCURVE",
"284 258 CURVE",
"284 238 LINE",
"325 209 OFFCURVE",
"345 160 OFFCURVE",
"345 113 CURVE SMOOTH",
"345 26 OFFCURVE",
"275 -44 OFFCURVE",
"188 -44 CURVE SMOOTH",
"101 -44 OFFCURVE",
"30 26 OFFCURVE",
"30 113 CURVE",
"60 113 LINE",
"60 43 OFFCURVE",
"118 -15 OFFCURVE",
"188 -15 CURVE SMOOTH",
"258 -15 OFFCURVE",
"316 43 OFFCURVE",
"316 113 CURVE SMOOTH",
"316 184 OFFCURVE",
"279 230 OFFCURVE",
"170 241 CURVE SMOOTH",
"81 250 OFFCURVE",
"30 293 OFFCURVE",
"30 349 CURVE SMOOTH"
);
},
{
closed = 1;
nodes = (
"314 395 OFFCURVE",
"269 431 OFFCURVE",
"188 431 CURVE SMOOTH",
"81 431 OFFCURVE",
"61 396 OFFCURVE",
"61 352 CURVE SMOOTH",
"61 298 OFFCURVE",
"119 272 OFFCURVE",
"188 272 CURVE SMOOTH",
"254 272 OFFCURVE",
"314 290 OFFCURVE",
"314 352 CURVE SMOOTH"
);
}
);
width = 375;
}
);
unicode = 00A7;
},
{
glyphname = copyright;
lastChange = "2021-08-30 16:30:56 +0000";
layers = (
{
layerId = "96BCCF85-5232-4835-A4EF-A1D5F093B6B0";
paths = (
{
closed = 1;
nodes = (
"313 455 OFFCURVE",
"279 426 OFFCURVE",
"279 385 CURVE",
"279 315 LINE",
"279 274 OFFCURVE",
"313 245 OFFCURVE",
"351 245 CURVE",
"389 245 OFFCURVE",
"423 274 OFFCURVE",
"423 315 CURVE",
"423 317 LINE",
"588 317 LINE",
"588 291 LINE",
"588 161 OFFCURVE",
"481 54 OFFCURVE",
"351 54 CURVE",
"219 54 OFFCURVE",
"114 161 OFFCURVE",
"114 291 CURVE",
"114 409 LINE",
"114 539 OFFCURVE",
"219 646 OFFCURVE",
"351 646 CURVE",
"481 646 OFFCURVE",
"588 539 OFFCURVE",
"588 409 CURVE",
"588 383 LINE",
"423 383 LINE",
"423 385 LINE",
"423 426 OFFCURVE",
"389 455 OFFCURVE",
"351 455 CURVE"
);
},
{
closed = 1;
nodes = (
"550 710 OFFCURVE",
"672 553 OFFCURVE",
"672 350 CURVE SMOOTH",
"672 147 OFFCURVE",
"550 -10 OFFCURVE",
"351 -10 CURVE",
"151 -10 OFFCURVE",
"30 147 OFFCURVE",
"30 350 CURVE SMOOTH",
"30 553 OFFCURVE",
"151 710 OFFCURVE",
"351 710 CURVE"
);
},
{
closed = 1;
nodes = (
"642 537 OFFCURVE",
"539 678 OFFCURVE",
"353 678 CURVE SMOOTH",
"164 678 OFFCURVE",
"60 540 OFFCURVE",
"60 348 CURVE SMOOTH",
"60 157 OFFCURVE",
"164 22 OFFCURVE",
"353 22 CURVE SMOOTH",
"539 22 OFFCURVE",
"642 160 OFFCURVE",
"642 348 CURVE SMOOTH"
);
}
);
width = 702;
}
);
leftKerningGroup = O;
rightKerningGroup = O;
unicode = 00A9;
},
{
glyphname = registered;
lastChange = "2021-09-16 16:21:04 +0000";
layers = (
{
guideLines = (
{
angle = 90;
position = "{246, 335}";
},
{
position = "{424, 530}";
},
{
angle = 90;
position = "{366, 152}";
},
{
angle = 90;
position = "{399, 588}";
},
{
angle = 90;
position = "{111, 588}";
},
{
angle = 90;
position = "{266, 152}";
}
);
layerId = "96BCCF85-5232-4835-A4EF-A1D5F093B6B0";
paths = (
{
closed = 1;
nodes = (
"424 319 OFFCURVE",
"450 384 OFFCURVE",
"450 457 CURVE",
"450 579 OFFCURVE",
"377 677 OFFCURVE",
"256 677 CURVE",
"134 677 OFFCURVE",
"60 581 OFFCURVE",
"60 457 CURVE",
"60 373 OFFCURVE",
"94 303 OFFCURVE",
"154 266 CURVE",
"154 638 LINE",
"275 638 LINE",
"330 638 OFFCURVE",
"376 592 OFFCURVE",
"376 536 CURVE",
"376 500 LINE",
"376 468 OFFCURVE",
"362 443 OFFCURVE",
"334 432 CURVE",
"334 422 LINE",
"362 404 OFFCURVE",
"376 338 OFFCURVE",
"376 280 CURVE"
);
},
{
closed = 1;
nodes = (
"267 477 OFFCURVE",
"276 479 OFFCURVE",
"276 500 CURVE",
"276 531 LINE",
"276 551 OFFCURVE",
"267 554 OFFCURVE",
"259 554 CURVE",
"256 554 LINE",
"256 477 LINE",
"259 477 LINE"
);
},
{
closed = 1;
nodes = (
"255 239 OFFCURVE",
"255 239 OFFCURVE",
"256 239 CURVE",
"263 239 OFFCURVE",
"269 239 OFFCURVE",
"276 240 CURVE",
"276 278 LINE",
"276 330 OFFCURVE",
"280 343 OFFCURVE",
"264 377 CURVE",
"254 377 LINE",
"254 239 LINE"
);
},
{
closed = 1;
nodes = (
"389 710 OFFCURVE",
"480 594 OFFCURVE",
"480 458 CURVE",
"480 322 OFFCURVE",
"389 206 OFFCURVE",
"255 206 CURVE",
"121 206 OFFCURVE",
"30 322 OFFCURVE",
"30 458 CURVE",
"30 594 OFFCURVE",
"121 710 OFFCURVE",
"255 710 CURVE"
);
}
);
width = 510;
}
);
leftKerningGroup = above;
rightKerningGroup = above;
unicode = 00AE;
},
{
glyphname = trademark;
lastChange = "2021-08-30 16:31:03 +0000";
layers = (
{
layerId = "96BCCF85-5232-4835-A4EF-A1D5F093B6B0";
paths = (
{
closed = 1;
nodes = (
"200 741 LINE",
"200 716 LINE",
"130 716 LINE",
"130 391 LINE",
"101 391 LINE",
"101 716 LINE",
"30 716 LINE",
"30 741 LINE"
);
},
{
closed = 1;
nodes = (
"460 741 LINE",
"460 391 LINE",
"430 391 LINE",
"430 716 LINE",
"425 716 LINE",
"381 391 LINE",
"316 391 LINE",
"272 716 LINE",
"267 716 LINE",
"267 391 LINE",
"237 391 LINE",
"237 741 LINE",
"299 741 LINE",
"346 420 LINE",
"351 420 LINE",
"398 741 LINE"
);
}
);
width = 490;
}
);
leftKerningGroup = above;
rightKerningGroup = above;
unicode = 2122;
},
{
glyphname = degree;
lastChange = "2021-08-30 16:31:06 +0000";
layers = (
{
layerId = "96BCCF85-5232-4835-A4EF-A1D5F093B6B0";
paths = (
{
closed = 1;
nodes = (
"228 710 OFFCURVE",
"285 653 OFFCURVE",
"285 582 CURVE",
"285 512 OFFCURVE",
"228 455 OFFCURVE",
"157 455 CURVE",
"87 455 OFFCURVE",
"30 512 OFFCURVE",
"30 582 CURVE",
"30 653 OFFCURVE",
"87 710 OFFCURVE",
"157 710 CURVE"
);
},
{
closed = 1;
nodes = (
"212 486 OFFCURVE",
"254 528 OFFCURVE",
"254 581 CURVE",
"254 637 OFFCURVE",
"212 679 OFFCURVE",
"156 679 CURVE",
"103 679 OFFCURVE",
"61 637 OFFCURVE",
"61 581 CURVE",
"61 528 OFFCURVE",
"103 486 OFFCURVE",
"156 486 CURVE"
);
}
);
width = 315;
}
);
leftKerningGroup = above;
rightKerningGroup = above;
unicode = 00B0;
},
{
glyphname = bar;
lastChange = "2021-08-30 16:31:09 +0000";
layers = (
{
guideLines = (
{
position = "{84, 750}";
},
{
position = "{125, -50}";
}
);
layerId = "96BCCF85-5232-4835-A4EF-A1D5F093B6B0";
paths = (
{
closed = 1;
nodes = (
"60 750 LINE",
"60 -50 LINE",
"30 -50 LINE",
"30 750 LINE"
);
}
);
width = 90;
}
);
unicode = 007C;
},
{
glyphname = brokenbar;
lastChange = "2021-08-30 16:31:11 +0000";
layers = (
{
guideLines = (
{
position = "{-45, 750}";
},
{
position = "{-4, -50}";
}
);
layerId = "96BCCF85-5232-4835-A4EF-A1D5F093B6B0";
paths = (
{
closed = 1;
nodes = (
"30 747 LINE",
"60 747 LINE",
"60 437 LINE",
"30 437 LINE"
);
},
{
closed = 1;
nodes = (
"30 260 LINE",
"60 260 LINE",
"60 -50 LINE",
"30 -50 LINE"
);
}
);
width = 90;
}
);
unicode = 00A6;
},
{
glyphname = dagger;
lastChange = "2021-08-30 16:31:13 +0000";
layers = (
{
layerId = "96BCCF85-5232-4835-A4EF-A1D5F093B6B0";
paths = (
{
closed = 1;
nodes = (
"220 500 LINE",
"380 500 LINE",
"380 470 LINE",
"220 470 LINE",
"220 0 LINE",
"190 0 LINE",
"190 470 LINE",
"30 470 LINE",
"30 500 LINE",
"190 500 LINE",
"190 700 LINE",
"220 700 LINE"
);
}
);
width = 410;
}
);
unicode = 2020;
},
{
glyphname = daggerdbl;
lastChange = "2021-08-30 16:31:16 +0000";
layers = (
{
layerId = "96BCCF85-5232-4835-A4EF-A1D5F093B6B0";
paths = (
{
closed = 1;
nodes = (
"220 500 LINE",
"380 500 LINE",
"380 470 LINE",
"220 470 LINE",
"220 230 LINE",
"380 230 LINE",
"380 200 LINE",
"220 200 LINE",
"220 0 LINE",
"190 0 LINE",
"190 200 LINE",
"30 200 LINE",
"30 230 LINE",
"190 230 LINE",
"190 470 LINE",
"30 470 LINE",
"30 500 LINE",
"190 500 LINE",
"190 700 LINE",
"220 700 LINE"
);
}
);
width = 410;
}
);
unicode = 2021;
},
{
glyphname = at.001;
lastChange = "2021-08-30 16:31:27 +0000";
layers = (
{
components = (
{
name = a;
transform = "{0.7, 0, 0, 0.7, 119, 97}";
},
{
name = c;
transform = "{0.7, 0, 0, 0.7, 381, 97}";
},
{
name = n;
transform = "{0.7, 0, 0, 0.7, 915, 97}";
},
{
name = o;
transform = "{0.7, 0, 0, 0.7, 650, 97}";
}
);
guideLines = (
{
angle = 90;
position = "{266, 225}";
},
{
angle = 90;
position = "{300, 486}";
},
{
position = "{1352, 81}";
},
{
angle = 90;
position = "{1201, 58}";
},
{
angle = 90;
position = "{1305, 67}";
}
);
layerId = "96BCCF85-5232-4835-A4EF-A1D5F093B6B0";
paths = (
{
closed = 1;
nodes = (
"1363 88 LINE",
"1487 142 OFFCURVE",
"1526 229 OFFCURVE",
"1526 348 CURVE SMOOTH",
"1526 570 OFFCURVE",
"1491 680 OFFCURVE",
"810 680 CURVE SMOOTH",
"108 680 OFFCURVE",
"60 570 OFFCURVE",
"60 348 CURVE SMOOTH",
"60 102 OFFCURVE",
"108 20 OFFCURVE",
"805 20 CURVE",
"1305 20 LINE",
"1305 -10 LINE",
"805 -10 LINE",
"62 -10 OFFCURVE",
"30 100 OFFCURVE",
"30 350 CURVE SMOOTH",
"30 554 OFFCURVE",
"62 710 OFFCURVE",
"805 710 CURVE",
"1545 710 OFFCURVE",
"1556 554 OFFCURVE",
"1556 350 CURVE SMOOTH",
"1556 216 OFFCURVE",
"1487 116 OFFCURVE",
"1380 70 CURVE"
);
},
{
closed = 1;
nodes = (
"888 610 LINE",
"699 631 LINE",
"699 656 LINE",
"729 656 LINE",
"888 620 LINE"
);
},
{
closed = 1;
nodes = (
"1446 369 LINE",
"1446 116 LINE",
"1363 88 LINE",
"1363 121 LINE",
"1356 121 LINE",
"1348 103 OFFCURVE",
"1332 90 OFFCURVE",
"1305 90 CURVE",
"1237 90 OFFCURVE",
"1201 145 OFFCURVE",
"1201 212 CURVE",
"1201 471 LINE",
"1201 539 OFFCURVE",
"1256 594 OFFCURVE",
"1323 594 CURVE",
"1391 594 OFFCURVE",
"1446 539 OFFCURVE",
"1446 471 CURVE",
"1446 422 LINE",
"1342 422 LINE",
"1342 477 LINE",
"1342 488 OFFCURVE",
"1334 496 OFFCURVE",
"1323 496 CURVE",
"1314 496 OFFCURVE",
"1305 488 OFFCURVE",
"1305 477 CURVE",
"1305 205 LINE",
"1305 196 OFFCURVE",
"1314 187 OFFCURVE",
"1323 187 CURVE",
"1334 187 OFFCURVE",
"1342 196 OFFCURVE",
"1342 205 CURVE",
"1342 265 LINE",
"1342 264 LINE",
"1342 369 LINE"
);
}
);
width = 1586;
}
);
leftKerningGroup = O;
rightKerningGroup = O;
},
{
glyphname = at.002;
lastChange = "2021-09-10 15:12:08 +0000";
layers = (
{
guideLines = (
{
angle = 90;
position = "{332, 225}";
},
{
angle = 90;
position = "{366, 486}";
}
);
layerId = "96BCCF85-5232-4835-A4EF-A1D5F093B6B0";
paths = (
{
closed = 1;
nodes = (
"370 710 OFFCURVE",
"468 619 OFFCURVE",
"468 498 CURVE SMOOTH",
"468 259 LINE SMOOTH",
"468 185 OFFCURVE",
"407 129 OFFCURVE",
"332 129 CURVE SMOOTH",
"226 129 OFFCURVE",
"172 179 OFFCURVE",
"172 282 CURVE SMOOTH",
"172 425 LINE SMOOTH",
"172 515 OFFCURVE",
"220 584 OFFCURVE",
"322 584 CURVE SMOOTH",
"370 584 OFFCURVE",
"398 562 OFFCURVE",
"419 541 CURVE",
"433 549 LINE",
"398 650 OFFCURVE",
"315 680 OFFCURVE",
"249 680 CURVE SMOOTH",
"132 680 OFFCURVE",
"65 587 OFFCURVE",
"65 502 CURVE SMOOTH",
"65 185 LINE SMOOTH",
"65 98 OFFCURVE",
"115 35 OFFCURVE",
"215 35 CURVE SMOOTH",
"430 35 LINE",
"430 0 LINE",
"220 0 LINE SMOOTH",
"99 0 OFFCURVE",
"30 76 OFFCURVE",
"30 197 CURVE SMOOTH",
"30 491 LINE SMOOTH",
"30 612 OFFCURVE",
"128 710 OFFCURVE",
"249 710 CURVE SMOOTH"
);
},
{
closed = 1;
nodes = (
"435 453 LINE SMOOTH",
"435 509 OFFCURVE",
"389 549 OFFCURVE",
"324 549 CURVE SMOOTH",
"249 549 OFFCURVE",
"207 509 OFFCURVE",
"207 441 CURVE SMOOTH",
"207 259 LINE SMOOTH",
"207 203 OFFCURVE",
"256 164 OFFCURVE",
"324 164 CURVE SMOOTH",
"389 164 OFFCURVE",
"435 203 OFFCURVE",
"435 259 CURVE SMOOTH"
);
}
);
width = 498;
}
);
leftKerningGroup = o;
rightKerningGroup = G;
},
{
glyphname = ampersand.001;
lastChange = "2021-08-30 16:31:35 +0000";
layers = (
{
guideLines = (
{
position = "{327, 120}";
},
{
angle = 90;
position = "{259, 429}";
},
{
position = "{172, 415}";
},
{
position = "{285, 350}";
}
);
layerId = "96BCCF85-5232-4835-A4EF-A1D5F093B6B0";
paths = (
{
closed = 1;
nodes = (
"389 350 LINE",
"389 210 LINE",
"389 160 OFFCURVE",
"430 120 OFFCURVE",
"479 120 CURVE",
"479 -10 LINE",
"410 -10 OFFCURVE",
"362 29 OFFCURVE",
"354 63 CURVE",
"334 63 LINE",
"326 26 OFFCURVE",
"281 -10 OFFCURVE",
"210 -10 CURVE SMOOTH",
"110 -10 OFFCURVE",
"30 71 OFFCURVE",
"30 170 CURVE",
"30 289 LINE SMOOTH",
"30 366 OFFCURVE",
"78 395 OFFCURVE",
"110 405 CURVE",
"110 425 LINE",
"54 439 OFFCURVE",
"30 484 OFFCURVE",
"30 530 CURVE SMOOTH",
"30 629 OFFCURVE",
"110 710 OFFCURVE",
"210 710 CURVE",
"309 710 OFFCURVE",
"389 629 OFFCURVE",
"389 530 CURVE",
"259 530 LINE",
"259 557 OFFCURVE",
"236 580 OFFCURVE",
"210 580 CURVE SMOOTH",
"183 580 OFFCURVE",
"160 557 OFFCURVE",
"160 530 CURVE SMOOTH",
"160 503 OFFCURVE",
"183 480 OFFCURVE",
"210 480 CURVE SMOOTH",
"450 480 LINE",
"450 350 LINE"
);
},
{
closed = 1;
nodes = (
"259 350 LINE",
"210 350 LINE",
"182 350 OFFCURVE",
"160 329 OFFCURVE",
"160 302 CURVE",
"160 170 LINE",
"160 142 OFFCURVE",
"183 120 OFFCURVE",
"210 120 CURVE SMOOTH",
"236 120 OFFCURVE",
"259 142 OFFCURVE",
"259 170 CURVE"
);
}
);
width = 509;
}
);
},
{
glyphname = cent;
lastChange = "2021-09-16 16:21:26 +0000";
layers = (
{
guideLines = (
{
position = "{496, 93}";
},
{
position = "{539, 607}";
}
);
layerId = "96BCCF85-5232-4835-A4EF-A1D5F093B6B0";
paths = (
{
closed = 1;
nodes = (
"232 481 LINE",
"232 495 OFFCURVE",
"220 507 OFFCURVE",
"205 507 CURVE",
"191 507 OFFCURVE",
"179 495 OFFCURVE",
"179 481 CURVE",
"179 218 LINE",
"179 204 OFFCURVE",
"191 192 OFFCURVE",
"205 192 CURVE",
"220 192 OFFCURVE",
"232 204 OFFCURVE",
"232 218 CURVE",
"232 325 LINE",
"380 325 LINE",
"380 228 LINE",
"380 136 OFFCURVE",
"310 61 OFFCURVE",
"220 54 CURVE",
"220 -10 LINE",
"190 -10 LINE",
"190 54 LINE",
"100 61 OFFCURVE",
"30 136 OFFCURVE",
"30 228 CURVE",
"30 472 LINE",
"30 564 OFFCURVE",
"100 639 OFFCURVE",
"190 646 CURVE",
"190 710 LINE",
"220 710 LINE",
"220 646 LINE",
"310 639 OFFCURVE",
"380 564 OFFCURVE",
"380 472 CURVE",
"380 375 LINE",
"232 375 LINE"
);
}
);
width = 410;
}
);
leftKerningGroup = o;
rightKerningGroup = o;
unicode = 00A2;
},
{
glyphname = currency;
lastChange = "2021-08-30 16:31:40 +0000";
layers = (
{
layerId = "96BCCF85-5232-4835-A4EF-A1D5F093B6B0";
paths = (
{
closed = 1;
nodes = (
"401 474 LINE",
"334 406 LINE",
"351 371 OFFCURVE",
"351 329 OFFCURVE",
"334 294 CURVE",
"401 226 LINE",
"339 164 LINE",
"272 232 LINE",
"237 215 OFFCURVE",
"195 215 OFFCURVE",
"159 232 CURVE",
"92 164 LINE",
"30 226 LINE",
"97 294 LINE",
"80 329 OFFCURVE",
"80 371 OFFCURVE",
"97 406 CURVE",
"30 474 LINE",
"92 536 LINE",
"159 468 LINE",
"195 485 OFFCURVE",
"237 485 OFFCURVE",
"272 468 CURVE",
"339 536 LINE"
);
},
{
closed = 1;
nodes = (
"264 336 OFFCURVE",
"264 364 OFFCURVE",
"247 381 CURVE",
"230 398 OFFCURVE",
"202 398 OFFCURVE",
"185 381 CURVE",
"168 364 OFFCURVE",
"168 336 OFFCURVE",
"185 319 CURVE",
"202 302 OFFCURVE",
"230 302 OFFCURVE",
"247 319 CURVE"
);
}
);
width = 431;
}
);
leftKerningGroup = center;
rightKerningGroup = center;
unicode = 00A4;
},
{
glyphname = dollar;
lastChange = "2021-09-16 16:21:51 +0000";
layers = (
{
layerId = "96BCCF85-5232-4835-A4EF-A1D5F093B6B0";
paths = (
{
closed = 1;
nodes = (
"232 471 LINE",
"232 485 OFFCURVE",
"220 498 OFFCURVE",
"205 498 CURVE",
"191 498 OFFCURVE",
"179 485 OFFCURVE",
"179 471 CURVE",
"179 462 OFFCURVE",
"180 455 OFFCURVE",
"189 446 CURVE",
"270 370 OFFCURVE",
"380 311 OFFCURVE",
"380 216 CURVE",
"380 140 OFFCURVE",
"311 68 OFFCURVE",
"220 61 CURVE",
"220 -10 LINE",
"190 -10 LINE",
"190 61 LINE",
"100 68 OFFCURVE",
"30 143 OFFCURVE",
"30 235 CURVE",
"30 304 LINE",
"179 304 LINE",
"179 230 LINE",
"179 216 OFFCURVE",
"190 203 OFFCURVE",
"205 203 CURVE",
"220 203 OFFCURVE",
"232 216 OFFCURVE",
"232 230 CURVE",
"232 242 OFFCURVE",
"229 253 OFFCURVE",
"221 263 CURVE",
"164 335 OFFCURVE",
"30 382 OFFCURVE",
"30 483 CURVE",
"30 580 OFFCURVE",
"99 634 OFFCURVE",
"190 640 CURVE",
"190 710 LINE",
"220 710 LINE",
"220 639 LINE",
"310 632 OFFCURVE",
"380 557 OFFCURVE",
"380 465 CURVE",
"380 409 LINE",
"232 409 LINE"
);
}
);
width = 410;
}
);
leftKerningGroup = o;
rightKerningGroup = o;
unicode = 0024;
},
{
glyphname = dong;
lastChange = "2021-08-30 16:31:45 +0000";
layers = (
{
guideLines = (
{
angle = 90;
position = "{405, 105}";
}
);
layerId = "96BCCF85-5232-4835-A4EF-A1D5F093B6B0";
paths = (
{
closed = 1;
nodes = (
"449 525 LINE",
"405 525 LINE",
"405 135 LINE",
"293 135 LINE",
"293 175 LINE",
"278 175 LINE",
"266 156 OFFCURVE",
"238 135 OFFCURVE",
"205 135 CURVE",
"108 135 OFFCURVE",
"30 213 OFFCURVE",
"30 310 CURVE",
"30 407 OFFCURVE",
"99 485 OFFCURVE",
"196 485 CURVE SMOOTH",
"229 485 OFFCURVE",
"267 468 OFFCURVE",
"278 440 CURVE",
"293 440 LINE",
"293 525 LINE",
"205 525 LINE",
"205 625 LINE",
"293 625 LINE",
"293 680 LINE",
"405 680 LINE",
"405 625 LINE",
"449 625 LINE"
);
},
{
closed = 1;
nodes = (
"236 255 OFFCURVE",
"261 280 OFFCURVE",
"261 310 CURVE",
"261 341 OFFCURVE",
"236 366 OFFCURVE",
"205 366 CURVE",
"175 366 OFFCURVE",
"150 341 OFFCURVE",
"150 310 CURVE",
"150 280 OFFCURVE",
"175 255 OFFCURVE",
"205 255 CURVE"
);
},
{
closed = 1;
nodes = (
"60 78 LINE",
"405 78 LINE",
"405 48 LINE",
"60 48 LINE"
);
}
);
width = 479;
}
);
leftKerningGroup = o;
rightKerningGroup = H;
unicode = 20AB;
},
{
glyphname = euro;
lastChange = "2021-08-30 16:31:46 +0000";
layers = (
{
guideLines = (
{
position = "{379, 435}";
}
);
layerId = "96BCCF85-5232-4835-A4EF-A1D5F093B6B0";
paths = (
{
closed = 1;
nodes = (
"359 710 OFFCURVE",
"438 632 OFFCURVE",
"438 535 CURVE",
"438 435 LINE",
"320 435 LINE",
"320 500 LINE",
"320 532 OFFCURVE",
"295 558 OFFCURVE",
"263 558 CURVE",
"230 558 OFFCURVE",
"205 532 OFFCURVE",
"205 500 CURVE",
"205 389 LINE",
"379 389 LINE",
"379 359 LINE",
"205 359 LINE",
"205 341 LINE",
"379 341 LINE",
"379 311 LINE",
"205 311 LINE",
"205 186 LINE",
"205 155 OFFCURVE",
"230 129 OFFCURVE",
"263 129 CURVE",
"295 129 OFFCURVE",
"320 155 OFFCURVE",
"320 186 CURVE",
"320 265 LINE",
"438 265 LINE",
"438 165 LINE",
"438 68 OFFCURVE",
"359 -10 OFFCURVE",
"263 -10 CURVE",
"166 -10 OFFCURVE",
"88 68 OFFCURVE",
"88 165 CURVE",
"88 311 LINE",
"30 311 LINE",
"30 339 LINE",
"88 339 LINE",
"88 360 LINE",
"30 360 LINE",
"30 389 LINE",
"88 389 LINE",
"88 535 LINE",
"88 632 OFFCURVE",
"166 710 OFFCURVE",
"263 710 CURVE"
);
}
);
width = 468;
}
);
rightKerningGroup = o;
unicode = 20AC;
},
{
glyphname = sterling;
lastChange = "2021-08-30 16:31:49 +0000";
layers = (
{
guideLines = (
{
angle = 90;
position = "{254, 685}";
},
{
position = "{309, 435}";
},
{
angle = 90;
position = "{396, 340}";
}
);
layerId = "96BCCF85-5232-4835-A4EF-A1D5F093B6B0";
paths = (
{
closed = 1;
nodes = (
"389 710 OFFCURVE",
"467 632 OFFCURVE",
"467 535 CURVE",
"467 435 LINE",
"325 435 LINE",
"325 535 LINE",
"325 555 OFFCURVE",
"310 570 OFFCURVE",
"289 570 CURVE",
"269 570 OFFCURVE",
"254 555 OFFCURVE",
"254 535 CURVE",
"254 341 LINE",
"396 341 LINE",
"396 311 LINE",
"254 311 LINE",
"254 244 LINE SMOOTH",
"254 196 OFFCURVE",
"250 165 OFFCURVE",
"220 144 CURVE",
"220 129 LINE",
"467 129 LINE",
"467 0 LINE",
"30 0 LINE",
"30 129 LINE",
"117 129 LINE",
"117 311 LINE",
"30 311 LINE",
"30 341 LINE",
"117 341 LINE",
"117 535 LINE",
"117 632 OFFCURVE",
"196 710 OFFCURVE",
"292 710 CURVE"
);
}
);
width = 497;
}
);
unicode = 00A3;
},
{
glyphname = yen;
lastChange = "2021-09-16 16:22:56 +0000";
layers = (
{
layerId = "96BCCF85-5232-4835-A4EF-A1D5F093B6B0";
paths = (
{
closed = 1;
nodes = (
"380 685 LINE",
"280 311 LINE",
"378 311 LINE",
"378 281 LINE",
"280 281 LINE",
"280 251 LINE",
"378 251 LINE",
"378 221 LINE",
"280 221 LINE",
"280 0 LINE",
"131 0 LINE",
"131 221 LINE",
"33 221 LINE",
"33 251 LINE",
"131 251 LINE",
"131 281 LINE",
"33 281 LINE",
"33 311 LINE",
"131 311 LINE",
"30 685 LINE",
"30 700 LINE",
"179 700 LINE",
"199 440 LINE",
"212 440 LINE",
"232 700 LINE",
"380 700 LINE"
);
}
);
width = 410;
}
);
unicode = 00A5;
},
{
glyphname = plus;
lastChange = "2021-08-30 16:31:56 +0000";
layers = (
{
layerId = "96BCCF85-5232-4835-A4EF-A1D5F093B6B0";
paths = (
{
closed = 1;
nodes = (
"308 365 LINE",
"555 365 LINE",
"555 335 LINE",
"308 335 LINE",
"308 88 LINE",
"278 88 LINE",
"278 335 LINE",
"30 335 LINE",
"30 365 LINE",
"278 365 LINE",
"278 613 LINE",
"308 613 LINE"
);
}
);
width = 585;
}
);
unicode = 002B;
},
{
glyphname = minus;
lastChange = "2021-08-30 16:31:57 +0000";
layers = (
{
layerId = "96BCCF85-5232-4835-A4EF-A1D5F093B6B0";
paths = (
{
closed = 1;
nodes = (
"30 365 LINE",
"555 365 LINE",
"555 335 LINE",
"30 335 LINE"
);
}
);
width = 585;
}
);
unicode = 2212;
},
{
glyphname = equal;
lastChange = "2021-08-30 16:32:03 +0000";
layers = (
{
layerId = "96BCCF85-5232-4835-A4EF-A1D5F093B6B0";
paths = (
{
closed = 1;
nodes = (
"30 496 LINE",
"555 496 LINE",
"555 466 LINE",
"30 466 LINE"
);
},
{
closed = 1;
nodes = (
"30 234 LINE",
"555 234 LINE",
"555 204 LINE",
"30 204 LINE"
);
}
);
width = 585;
}
);
unicode = 003D;
},
{
glyphname = notequal;
lastChange = "2021-09-16 16:23:22 +0000";
layers = (
{
layerId = "96BCCF85-5232-4835-A4EF-A1D5F093B6B0";
paths = (
{
closed = 1;
nodes = (
"392 726 LINE",
"340 496 LINE",
"555 496 LINE",
"555 466 LINE",
"333 466 LINE",
"280 234 LINE",
"555 234 LINE",
"555 204 LINE",
"274 204 LINE",
"217 -46 LINE",
"192 -46 LINE",
"192 -31 LINE",
"245 204 LINE",
"30 204 LINE",
"30 234 LINE",
"252 234 LINE",
"305 466 LINE",
"30 466 LINE",
"30 496 LINE",
"311 496 LINE",
"367 741 LINE",
"392 741 LINE"
);
}
);
width = 585;
}
);
unicode = 2260;
},
{
glyphname = greater;
lastChange = "2021-08-30 16:32:08 +0000";
layers = (
{
layerId = "96BCCF85-5232-4835-A4EF-A1D5F093B6B0";
paths = (
{
closed = 1;
nodes = (
"52 640 LINE",
"342 350 LINE",
"52 60 LINE",
"31 82 LINE",
"299 345 LINE",
"299 355 LINE",
"30 619 LINE"
);
}
);
width = 372;
}
);
unicode = 003E;
},
{
glyphname = greaterequal;
lastChange = "2021-08-30 16:32:15 +0000";
layers = (
{
layerId = "96BCCF85-5232-4835-A4EF-A1D5F093B6B0";
paths = (
{
closed = 1;
nodes = (
"55 640 LINE",
"380 378 LINE",
"55 115 LINE",
"34 137 LINE",
"328 373 LINE",
"328 383 LINE",
"33 619 LINE"
);
},
{
closed = 1;
nodes = (
"30 30 LINE",
"380 30 LINE",
"380 0 LINE",
"30 0 LINE"
);
}
);
width = 410;
}
);
unicode = 2265;
},
{
glyphname = plusminus;
lastChange = "2021-08-30 16:32:17 +0000";
layers = (
{
layerId = "96BCCF85-5232-4835-A4EF-A1D5F093B6B0";
paths = (
{
closed = 1;
nodes = (
"247 393 LINE",
"435 393 LINE",
"435 363 LINE",
"247 363 LINE",
"247 156 LINE",
"217 156 LINE",
"217 363 LINE",
"30 363 LINE",
"30 393 LINE",
"217 393 LINE",
"217 640 LINE",
"247 640 LINE"
);
},
{
closed = 1;
nodes = (
"30 30 LINE",
"435 30 LINE",
"435 0 LINE",
"30 0 LINE"
);
}
);
width = 465;
}
);
unicode = 00B1;
},
{
glyphname = approxequal;
lastChange = "2021-08-30 16:32:20 +0000";
layers = (
{
layerId = "96BCCF85-5232-4835-A4EF-A1D5F093B6B0";
paths = (
{
closed = 1;
nodes = (
"555 579 LINE",
"555 414 OFFCURVE",
"483 366 OFFCURVE",
"409 385 CURVE SMOOTH",
"309 411 OFFCURVE",
"306 545 OFFCURVE",
"189 554 CURVE SMOOTH",
"125 559 OFFCURVE",
"66 525 OFFCURVE",
"60 383 CURVE",
"30 383 LINE",
"30 496 OFFCURVE",
"74 579 OFFCURVE",
"183 579 CURVE SMOOTH",
"313 579 OFFCURVE",
"327 430 OFFCURVE",
"421 408 CURVE SMOOTH",
"503 389 OFFCURVE",
"525 472 OFFCURVE",
"525 579 CURVE"
);
},
{
closed = 1;
nodes = (
"555 317 LINE",
"555 152 OFFCURVE",
"483 104 OFFCURVE",
"409 123 CURVE SMOOTH",
"309 149 OFFCURVE",
"306 283 OFFCURVE",
"189 292 CURVE SMOOTH",
"125 297 OFFCURVE",
"66 263 OFFCURVE",
"60 121 CURVE",
"30 121 LINE",
"30 234 OFFCURVE",
"74 317 OFFCURVE",
"183 317 CURVE SMOOTH",
"313 317 OFFCURVE",
"327 168 OFFCURVE",
"421 146 CURVE SMOOTH",
"503 127 OFFCURVE",
"525 210 OFFCURVE",
"525 317 CURVE"
);
}
);
width = 585;
}
);
unicode = 2248;
},
{
glyphname = asciitilde;
lastChange = "2021-08-30 16:32:26 +0000";
layers = (
{
guideLines = (
{
angle = 90;
position = "{380, 470}";
}
);
layerId = "96BCCF85-5232-4835-A4EF-A1D5F093B6B0";
paths = (
{
closed = 1;
nodes = (
"555 448 LINE",
"555 283 OFFCURVE",
"483 235 OFFCURVE",
"409 254 CURVE SMOOTH",
"309 280 OFFCURVE",
"306 414 OFFCURVE",
"189 423 CURVE SMOOTH",
"125 428 OFFCURVE",
"66 394 OFFCURVE",
"60 252 CURVE",
"30 252 LINE",
"30 365 OFFCURVE",
"74 448 OFFCURVE",
"183 448 CURVE SMOOTH",
"313 448 OFFCURVE",
"327 299 OFFCURVE",
"421 277 CURVE SMOOTH",
"503 258 OFFCURVE",
"525 341 OFFCURVE",
"525 448 CURVE"
);
}
);
width = 585;
}
);
unicode = 007E;
},
{
glyphname = logicalnot;
lastChange = "2021-08-30 16:32:28 +0000";
layers = (
{
layerId = "96BCCF85-5232-4835-A4EF-A1D5F093B6B0";
paths = (
{
closed = 1;
nodes = (
"30 480 LINE",
"380 480 LINE",
"380 263 LINE",
"350 263 LINE",
"350 450 LINE",
"30 450 LINE"
);
}
);
width = 410;
}
);
unicode = 00AC;
},
{
glyphname = asciicircum;
lastChange = "2021-08-30 16:32:29 +0000";
layers = (
{
layerId = "96BCCF85-5232-4835-A4EF-A1D5F093B6B0";
paths = (
{
closed = 1;
nodes = (
"205 700 LINE",
"380 438 LINE",
"340 438 LINE",
"210 641 LINE",
"201 641 LINE",
"70 438 LINE",
"30 438 LINE"
);
}
);
width = 410;
}
);
unicode = 005E;
},
{
glyphname = emptyset;
lastChange = "2021-09-16 16:23:41 +0000";
layers = (
{
layerId = "96BCCF85-5232-4835-A4EF-A1D5F093B6B0";
paths = (
{
closed = 1;
nodes = (
"539 22 OFFCURVE",
"642 160 OFFCURVE",
"642 348 CURVE",
"642 483 OFFCURVE",
"589 594 OFFCURVE",
"492 646 CURVE",
"239 41 LINE",
"273 29 OFFCURVE",
"311 22 OFFCURVE",
"353 22 CURVE"
);
},
{
closed = 1;
nodes = (
"60 211 OFFCURVE",
"113 103 OFFCURVE",
"213 53 CURVE",
"465 658 LINE",
"432 671 OFFCURVE",
"395 678 OFFCURVE",
"353 678 CURVE",
"164 678 OFFCURVE",
"60 540 OFFCURVE",
"60 348 CURVE"
);
},
{
closed = 1;
nodes = (
"610 615 OFFCURVE",
"672 494 OFFCURVE",
"672 350 CURVE",
"672 147 OFFCURVE",
"550 -10 OFFCURVE",
"351 -10 CURVE",
"306 -10 OFFCURVE",
"264 -2 OFFCURVE",
"228 13 CURVE",
"203 -46 LINE",
"178 -46 LINE",
"178 -31 LINE",
"201 25 LINE",
"92 82 OFFCURVE",
"30 204 OFFCURVE",
"30 350 CURVE",
"30 553 OFFCURVE",
"151 710 OFFCURVE",
"351 710 CURVE",
"397 710 OFFCURVE",
"440 701 OFFCURVE",
"477 686 CURVE",
"500 741 LINE",
"525 741 LINE",
"525 726 LINE",
"503 673 LINE"
);
}
);
width = 702;
}
);
leftKerningGroup = O;
rightKerningGroup = O;
unicode = 2205;
},
{
glyphname = infinity;
lastChange = "2021-08-30 16:32:35 +0000";
layers = (
{
layerId = "96BCCF85-5232-4835-A4EF-A1D5F093B6B0";
paths = (
{
closed = 1;
nodes = (
"376 404 OFFCURVE",
"368 412 OFFCURVE",
"359 412 CURVE",
"349 412 OFFCURVE",
"341 404 OFFCURVE",
"341 394 CURVE",
"341 313 LINE",
"341 303 OFFCURVE",
"349 296 OFFCURVE",
"359 296 CURVE",
"368 296 OFFCURVE",
"376 303 OFFCURVE",
"376 313 CURVE",
"376 394 LINE"
);
},
{
closed = 1;
nodes = (
"157 404 OFFCURVE",
"149 412 OFFCURVE",
"140 412 CURVE",
"130 412 OFFCURVE",
"122 404 OFFCURVE",
"122 394 CURVE",
"122 313 LINE",
"122 304 OFFCURVE",
"130 296 OFFCURVE",
"140 296 CURVE",
"149 296 OFFCURVE",
"157 304 OFFCURVE",
"157 313 CURVE",
"157 394 LINE"
);
},
{
closed = 1;
nodes = (
"419 500 OFFCURVE",
"468 451 OFFCURVE",
"468 390 CURVE",
"468 317 LINE",
"468 257 OFFCURVE",
"419 208 OFFCURVE",
"359 208 CURVE",
"310 208 OFFCURVE",
"268 240 OFFCURVE",
"254 284 CURVE",
"244 284 LINE",
"230 240 OFFCURVE",
"189 208 OFFCURVE",
"140 208 CURVE",
"79 208 OFFCURVE",
"30 257 OFFCURVE",
"30 317 CURVE",
"30 390 LINE",
"30 451 OFFCURVE",
"79 500 OFFCURVE",
"140 500 CURVE",
"189 500 OFFCURVE",
"230 468 OFFCURVE",
"244 423 CURVE",
"254 423 LINE",
"268 468 OFFCURVE",
"310 500 OFFCURVE",
"359 500 CURVE"
);
}
);
width = 498;
}
);
unicode = 221E;
},
{
glyphname = integral;
lastChange = "2021-08-30 16:32:38 +0000";
layers = (
{
layerId = "96BCCF85-5232-4835-A4EF-A1D5F093B6B0";
paths = (
{
closed = 1;
nodes = (
"175 613 OFFCURVE",
"231 700 OFFCURVE",
"322 700 CURVE",
"322 671 LINE",
"252 671 OFFCURVE",
"205 604 OFFCURVE",
"205 525 CURVE SMOOTH",
"205 175 LINE SMOOTH",
"205 59 OFFCURVE",
"130 0 OFFCURVE",
"30 0 CURVE",
"30 30 LINE",
"130 30 OFFCURVE",
"175 79 OFFCURVE",
"175 175 CURVE SMOOTH",
"175 525 LINE SMOOTH"
);
}
);
width = 352;
}
);
rightKerningGroup = T;
unicode = 222B;
},
{
glyphname = product;
lastChange = "2021-08-30 16:32:40 +0000";
layers = (
{
layerId = "96BCCF85-5232-4835-A4EF-A1D5F093B6B0";
paths = (
{
closed = 1;
nodes = (
"30 700 LINE",
"467 700 LINE",
"467 670 LINE",
"358 670 LINE",
"358 -10 LINE",
"328 -10 LINE",
"328 670 LINE",
"169 670 LINE",
"169 -10 LINE",
"139 -10 LINE",
"139 670 LINE",
"30 670 LINE"
);
}
);
width = 497;
}
);
unicode = 220F;
},
{
glyphname = summation;
lastChange = "2021-08-30 16:32:43 +0000";
layers = (
{
guideLines = (
{
angle = 90;
position = "{64, 584}";
}
);
layerId = "96BCCF85-5232-4835-A4EF-A1D5F093B6B0";
paths = (
{
closed = 1;
nodes = (
"30 700 LINE",
"380 700 LINE",
"380 670 LINE",
"64 670 LINE",
"64 660 LINE",
"355 360 LINE",
"355 339 LINE",
"64 40 LINE",
"64 30 LINE",
"380 30 LINE",
"380 0 LINE",
"30 0 LINE",
"30 50 LINE",
"315 347 LINE",
"315 352 LINE",
"30 650 LINE"
);
}
);
width = 410;
}
);
unicode = 2211;
},
{
glyphname = radical;
lastChange = "2021-08-30 16:32:45 +0000";
layers = (
{
layerId = "96BCCF85-5232-4835-A4EF-A1D5F093B6B0";
paths = (
{
closed = 1;
nodes = (
"156 34 LINE",
"328 700 LINE",
"493 700 LINE",
"493 670 LINE",
"353 670 LINE",
"180 0 LINE",
"117 0 LINE",
"30 263 LINE",
"65 263 LINE",
"141 34 LINE"
);
}
);
width = 523;
}
);
unicode = 221A;
},
{
glyphname = percent;
lastChange = "2021-08-30 16:32:58 +0000";
layers = (
{
components = (
{
name = slash;
transform = "{1, 0, 0, 1, 164, 0}";
}
);
layerId = "96BCCF85-5232-4835-A4EF-A1D5F093B6B0";
paths = (
{
closed = 1;
nodes = (
"249 457 OFFCURVE",
"200 408 OFFCURVE",
"140 408 CURVE",
"79 408 OFFCURVE",
"30 457 OFFCURVE",
"30 518 CURVE",
"30 591 LINE",
"30 651 OFFCURVE",
"79 700 OFFCURVE",
"140 700 CURVE",
"200 700 OFFCURVE",
"249 651 OFFCURVE",
"249 591 CURVE",
"249 518 LINE"
);
},
{
closed = 1;
nodes = (
"122 504 OFFCURVE",
"130 495 OFFCURVE",
"140 495 CURVE",
"149 495 OFFCURVE",
"157 504 OFFCURVE",
"157 513 CURVE",
"157 595 LINE",
"157 605 OFFCURVE",
"149 613 OFFCURVE",
"140 613 CURVE",
"130 613 OFFCURVE",
"122 605 OFFCURVE",
"122 595 CURVE",
"122 513 LINE"
);
},
{
closed = 1;
nodes = (
"515 292 OFFCURVE",
"564 243 OFFCURVE",
"564 182 CURVE",
"564 109 LINE",
"564 49 OFFCURVE",
"515 0 OFFCURVE",
"455 0 CURVE",
"394 0 OFFCURVE",
"345 49 OFFCURVE",
"345 109 CURVE",
"345 182 LINE",
"345 243 OFFCURVE",
"394 292 OFFCURVE",
"455 292 CURVE"
);
},
{
closed = 1;
nodes = (
"472 186 LINE",
"472 196 OFFCURVE",
"464 204 OFFCURVE",
"455 204 CURVE",
"445 204 OFFCURVE",
"437 196 OFFCURVE",
"437 186 CURVE",
"437 105 LINE",
"437 96 OFFCURVE",
"445 88 OFFCURVE",
"455 88 CURVE",
"464 88 OFFCURVE",
"472 96 OFFCURVE",
"472 105 CURVE"
);
}
);
width = 594;
}
);
unicode = 0025;
},
{
glyphname = perthousand;
lastChange = "2021-08-30 16:33:03 +0000";
layers = (
{
components = (
{
name = slash;
transform = "{1, 0, 0, 1, 164, 0}";
}
);
layerId = "96BCCF85-5232-4835-A4EF-A1D5F093B6B0";
paths = (
{
closed = 1;
nodes = (
"249 457 OFFCURVE",
"200 408 OFFCURVE",
"140 408 CURVE",
"79 408 OFFCURVE",
"30 457 OFFCURVE",
"30 518 CURVE",
"30 591 LINE",
"30 651 OFFCURVE",
"79 700 OFFCURVE",
"140 700 CURVE",
"200 700 OFFCURVE",
"249 651 OFFCURVE",
"249 591 CURVE",
"249 518 LINE"
);
},
{
closed = 1;
nodes = (
"122 504 OFFCURVE",
"130 495 OFFCURVE",
"140 495 CURVE",
"149 495 OFFCURVE",
"157 504 OFFCURVE",
"157 513 CURVE",
"157 595 LINE",
"157 605 OFFCURVE",
"149 613 OFFCURVE",
"140 613 CURVE",
"130 613 OFFCURVE",
"122 605 OFFCURVE",
"122 595 CURVE",
"122 513 LINE"
);
},
{
closed = 1;
nodes = (
"691 196 OFFCURVE",
"683 204 OFFCURVE",
"674 204 CURVE",
"664 204 OFFCURVE",
"656 196 OFFCURVE",
"656 186 CURVE",
"656 105 LINE",
"656 95 OFFCURVE",
"664 88 OFFCURVE",
"674 88 CURVE",
"683 88 OFFCURVE",
"691 95 OFFCURVE",
"691 105 CURVE",
"691 186 LINE"
);
},
{
closed = 1;
nodes = (
"472 196 OFFCURVE",
"464 204 OFFCURVE",
"455 204 CURVE",
"445 204 OFFCURVE",
"437 196 OFFCURVE",
"437 186 CURVE",
"437 105 LINE",
"437 96 OFFCURVE",
"445 88 OFFCURVE",
"455 88 CURVE",
"464 88 OFFCURVE",
"472 96 OFFCURVE",
"472 105 CURVE",
"472 186 LINE"
);
},
{
closed = 1;
nodes = (
"734 292 OFFCURVE",
"783 243 OFFCURVE",
"783 182 CURVE",
"783 109 LINE",
"783 49 OFFCURVE",
"734 0 OFFCURVE",
"674 0 CURVE",
"625 0 OFFCURVE",
"583 32 OFFCURVE",
"569 76 CURVE",
"559 76 LINE",
"545 32 OFFCURVE",
"504 0 OFFCURVE",
"455 0 CURVE",
"394 0 OFFCURVE",
"345 49 OFFCURVE",
"345 109 CURVE",
"345 182 LINE",
"345 243 OFFCURVE",
"394 292 OFFCURVE",
"455 292 CURVE",
"504 292 OFFCURVE",
"545 260 OFFCURVE",
"559 215 CURVE",
"569 215 LINE",
"583 260 OFFCURVE",
"625 292 OFFCURVE",
"674 292 CURVE"
);
}
);
width = 813;
}
);
unicode = 2030;
},
{
glyphname = rightArrow;
lastChange = "2021-08-30 16:33:11 +0000";
layers = (
{
guideLines = (
{
position = "{497, 285}";
},
{
angle = -90;
position = "{320, 651}";
},
{
position = "{390, 640}";
}
);
layerId = "96BCCF85-5232-4835-A4EF-A1D5F093B6B0";
paths = (
{
closed = 1;
nodes = (
"562 350 LINE",
"320 60 LINE",
"320 250 LINE",
"30 250 LINE",
"30 450 LINE",
"320 450 LINE",
"320 640 LINE"
);
}
);
width = 592;
}
);
unicode = 2192;
},
{
glyphname = leftRightArrow;
lastChange = "2021-08-30 17:05:37 +0000";
layers = (
{
guideLines = (
{
position = "{-87, 285}";
}
);
layerId = "96BCCF85-5232-4835-A4EF-A1D5F093B6B0";
paths = (
{
closed = 1;
nodes = (
"552 640 LINE",
"552 450 LINE",
"272 450 LINE",
"272 640 LINE",
"30 350 LINE",
"272 60 LINE",
"272 250 LINE",
"552 250 LINE",
"552 60 LINE",
"794 350 LINE"
);
}
);
width = 824;
}
);
unicode = 2194;
},
{
glyphname = lozenge;
lastChange = "2021-08-30 16:33:19 +0000";
layers = (
{
layerId = "96BCCF85-5232-4835-A4EF-A1D5F093B6B0";
paths = (
{
closed = 1;
nodes = (
"259 700 LINE",
"467 350 LINE",
"259 0 LINE",
"238 0 LINE",
"30 350 LINE",
"238 700 LINE"
);
}
);
width = 497;
}
);
unicode = 25CA;
},
{
glyphname = acutecomb;
lastChange = "2021-08-30 16:33:33 +0000";
layers = (
{
guideLines = (
{
angle = 90;
position = "{-86, 768}";
}
);
layerId = "96BCCF85-5232-4835-A4EF-A1D5F093B6B0";
paths = (
{
closed = 1;
nodes = (
"187 981 LINE",
"187 966 LINE",
"50 760 LINE",
"30 760 LINE",
"147 981 LINE"
);
}
);
width = 217;
}
);
unicode = 0301;
},
{
glyphname = circumflexcomb;
lastChange = "2021-08-30 16:33:36 +0000";
layers = (
{
layerId = "96BCCF85-5232-4835-A4EF-A1D5F093B6B0";
paths = (
{
closed = 1;
nodes = (
"313 812 LINE",
"293 812 LINE",
"41 720 LINE",
"30 740 LINE",
"303 842 LINE",
"576 740 LINE",
"565 720 LINE"
);
}
);
width = 606;
}
);
unicode = 0302;
},
{
glyphname = brevecomb;
lastChange = "2021-08-30 16:33:38 +0000";
layers = (
{
layerId = "96BCCF85-5232-4835-A4EF-A1D5F093B6B0";
paths = (
{
closed = 1;
nodes = (
"530 870 LINE",
"530 798 OFFCURVE",
"419 740 OFFCURVE",
"280 740 CURVE SMOOTH",
"141 740 OFFCURVE",
"30 798 OFFCURVE",
"30 870 CURVE",
"63 870 LINE",
"63 817 OFFCURVE",
"141 770 OFFCURVE",
"280 770 CURVE SMOOTH",
"419 770 OFFCURVE",
"499 817 OFFCURVE",
"498 870 CURVE"
);
}
);
width = 560;
}
);
unicode = 0306;
},
{
glyphname = tildecomb;
lastChange = "2021-09-07 16:42:21 +0000";
layers = (
{
guideLines = (
{
position = "{213, 821}";
},
{
position = "{431, 788}";
}
);
layerId = "96BCCF85-5232-4835-A4EF-A1D5F093B6B0";
paths = (
{
closed = 1;
nodes = (
"410 812 OFFCURVE",
"369 783 OFFCURVE",
"322 788 CURVE SMOOTH",
"247 796 OFFCURVE",
"190 849 OFFCURVE",
"131 852 CURVE SMOOTH",
"85 854 OFFCURVE",
"60 821 OFFCURVE",
"60 788 CURVE",
"30 788 LINE",
"30 824 OFFCURVE",
"65 886 OFFCURVE",
"136 878 CURVE SMOOTH",
"208 870 OFFCURVE",
"261 823 OFFCURVE",
"309 816 CURVE SMOOTH",
"377 806 OFFCURVE",
"380 849 OFFCURVE",
"380 878 CURVE",
"410 878 LINE"
);
}
);
width = 440;
}
);
unicode = 0303;
},
{
glyphname = hookabovecomb;
lastChange = "2021-08-30 16:33:44 +0000";
layers = (
{
guideLines = (
{
position = "{602, 790}";
},
{
position = "{621, 1009}";
}
);
layerId = "96BCCF85-5232-4835-A4EF-A1D5F093B6B0";
paths = (
{
closed = 1;
nodes = (
"84 790 LINE",
"135 937 LINE SMOOTH",
"150 980 OFFCURVE",
"123 1001 OFFCURVE",
"97 998 CURVE SMOOTH",
"76 996 OFFCURVE",
"53 975 OFFCURVE",
"67 930 CURVE",
"36 926 LINE",
"17 978 OFFCURVE",
"45 1028 OFFCURVE",
"96 1034 CURVE SMOOTH",
"144 1040 OFFCURVE",
"187 994 OFFCURVE",
"167 937 CURVE SMOOTH",
"114 790 LINE"
);
}
);
width = 202;
}
);
unicode = 0309;
},
{
glyphname = horncomb;
lastChange = "2021-08-30 16:33:48 +0000";
layers = (
{
guideLines = (
{
position = "{271, 491}";
},
{
position = "{271, 521}";
}
);
layerId = "96BCCF85-5232-4835-A4EF-A1D5F093B6B0";
paths = (
{
closed = 1;
nodes = (
"30 570 LINE",
"68 570 OFFCURVE",
"80 635 OFFCURVE",
"80 700 CURVE",
"170 700 LINE",
"170 622 OFFCURVE",
"156 491 OFFCURVE",
"30 491 CURVE"
);
}
);
width = 200;
}
);
unicode = 031B;
},
{
glyphname = dotbelowcomb;
lastChange = "2021-08-30 16:33:51 +0000";
layers = (
{
layerId = "96BCCF85-5232-4835-A4EF-A1D5F093B6B0";
paths = (
{
closed = 1;
nodes = (
"190 -46 LINE",
"190 -137 LINE",
"30 -137 LINE",
"30 -46 LINE"
);
}
);
width = 220;
}
);
unicode = 0323;
},
{
glyphname = lol;
lastChange = "2021-08-30 16:33:59 +0000";
layers = (
{
components = (
{
name = period;
transform = "{0.7, 0, 0, 0.7, 124, 358}";
},
{
name = period;
transform = "{0.7, 0, 0, 0.7, 386, 358}";
}
);
guideLines = (
{
angle = 90;
position = "{410, 773}";
},
{
position = "{710, 350}";
},
{
angle = 90;
position = "{212, 366}";
}
);
layerId = "96BCCF85-5232-4835-A4EF-A1D5F093B6B0";
paths = (
{
closed = 1;
nodes = (
"550 710 OFFCURVE",
"672 553 OFFCURVE",
"672 350 CURVE SMOOTH",
"672 147 OFFCURVE",
"550 -10 OFFCURVE",
"351 -10 CURVE",
"151 -10 OFFCURVE",
"30 147 OFFCURVE",
"30 350 CURVE SMOOTH",
"30 553 OFFCURVE",
"151 710 OFFCURVE",
"351 710 CURVE"
);
},
{
closed = 1;
nodes = (
"642 537 OFFCURVE",
"539 678 OFFCURVE",
"353 678 CURVE SMOOTH",
"164 678 OFFCURVE",
"60 540 OFFCURVE",
"60 348 CURVE SMOOTH",
"60 157 OFFCURVE",
"164 22 OFFCURVE",
"353 22 CURVE SMOOTH",
"539 22 OFFCURVE",
"642 160 OFFCURVE",
"642 348 CURVE SMOOTH"
);
},
{
closed = 1;
nodes = (
"518 299 LINE",
"503 247 OFFCURVE",
"430 210 OFFCURVE",
"351 210 CURVE SMOOTH",
"272 210 OFFCURVE",
"198 247 OFFCURVE",
"183 299 CURVE",
"205 304 LINE",
"218 266 OFFCURVE",
"272 237 OFFCURVE",
"351 237 CURVE SMOOTH",
"430 237 OFFCURVE",
"485 266 OFFCURVE",
"497 304 CURVE"
);
},
{
closed = 1;
nodes = (
"518 219 LINE",
"503 167 OFFCURVE",
"430 130 OFFCURVE",
"351 130 CURVE SMOOTH",
"272 130 OFFCURVE",
"198 167 OFFCURVE",
"183 219 CURVE",
"205 224 LINE",
"218 186 OFFCURVE",
"272 157 OFFCURVE",
"351 157 CURVE SMOOTH",
"430 157 OFFCURVE",
"485 186 OFFCURVE",
"497 224 CURVE"
);
}
);
width = 702;
}
);
rightKerningGroup = O;
},
